<svg width="124" height="123" viewBox="0 0 124 123" fill="none" xmlns="http://www.w3.org/2000/svg">
<circle cx="62" cy="61.5" r="61.5" fill="#4EF162"/>
<path d="M50.4139 94.9877H37.6316L89.7126 30.1697H107.272V62.5787V94.9877H94.5445L94.4901 77.3101H75.2804L81.4902 66.8848H94.5445L95.6505 40.6131L50.4139 94.9877Z" fill="black"/>
<path d="M50.321 1.09009C51.4571 7.53258 50.9737 14.1564 48.9136 20.3655C46.8534 26.5747 43.2821 32.175 38.52 36.6606C33.7579 41.1462 27.9545 44.376 21.6334 46.0615C15.3122 47.747 8.67136 47.8344 2.30811 46.3153L3.0696 43.1243C5.76498 43.7654 8.57719 44.1056 11.4687 44.1056C31.442 44.1055 47.633 27.9146 47.6331 7.9413C47.6331 5.79843 47.4443 3.69944 47.0869 1.65895L50.321 1.09009Z" fill="black"/>
</svg>
