<svg width="68" height="68" viewBox="0 0 68 68" fill="none" xmlns="http://www.w3.org/2000/svg">
<circle cx="34" cy="34" r="33" fill="black" stroke="#4EF162" stroke-width="2"/>
<path d="M42.8773 15.3719C40.5212 14.013 37.7218 13.6456 35.0948 14.3503C32.4678 15.0551 30.2282 16.7743 28.8686 19.13L27.0071 22.3453C25.8067 24.4263 25.3747 26.8626 25.7862 29.2296C26.1977 31.5965 27.4268 33.744 29.2592 35.2978L20.2242 50.9367C19.7588 51.7687 20.0408 52.8123 20.8587 53.2917C21.6766 53.7571 22.7343 53.4751 23.2137 52.6571L32.2276 37.0535C34.5072 37.9239 37.0224 37.9534 39.3218 37.1367C41.6211 36.32 43.5542 34.7106 44.774 32.5973L46.6355 29.3821L46.6369 29.3792C49.4502 24.476 47.7693 18.2035 42.8788 15.3733M41.3699 16.9626L39.916 19.4417L36.8206 17.6536L37.7245 16.1165C38.9891 16.1099 40.2375 16.3997 41.3699 16.9626ZM36.5696 16.2025L35.9971 17.1783L34.993 16.5988C35.5046 16.4169 36.0326 16.2832 36.5696 16.2025ZM33.9184 17.0782L35.5162 18.0005L33.7549 20.9971L31.1531 19.4939C31.8756 18.4857 32.8216 17.6585 33.917 17.0768M30.6398 20.2934L33.2726 21.815L31.5056 24.8215L28.8911 23.3126L30.6398 20.2934ZM28.454 24.1587L31.0248 25.6423L29.262 28.6431L27.7545 27.7745C27.7068 26.5315 27.9461 25.2942 28.454 24.1587ZM27.8857 28.9477L28.7797 29.4639L28.2693 30.3325C28.1024 29.8826 27.974 29.4194 27.8857 28.9477ZM28.7529 31.3873L29.6033 29.9391L32.7043 31.7286L31.2687 34.1739C30.2233 33.455 29.3616 32.5005 28.7529 31.3873ZM32.0824 34.6674L33.5278 32.2038L36.6274 33.992L35.6769 35.6108C34.4217 35.579 33.1911 35.2555 32.0824 34.666M36.8093 35.5587L37.4524 34.4672L38.6186 35.1398C38.0334 35.3477 37.4264 35.4882 36.8093 35.5587ZM39.7002 34.666L37.9332 33.6465L39.6988 30.6428L42.4825 32.2518C41.7533 33.2607 40.8012 34.0878 39.7002 34.6688M42.9958 31.4494L40.1811 29.8263L41.9438 26.8254L44.7374 28.4401L42.9958 31.4494ZM45.1759 27.594L42.4261 26.0047L44.1888 23.0066L45.8796 23.9839C45.9219 25.1966 45.6963 26.4306 45.1759 27.594ZM45.7541 22.8134L44.6683 22.1873L45.2718 21.1621C45.4899 21.697 45.6502 22.247 45.7527 22.812M44.7656 20.1411L43.8447 21.7107L40.7367 19.9155L42.192 17.4336C43.2497 18.1229 44.1302 19.0501 44.7656 20.1411ZM38.8752 30.169L37.1097 33.1726L34.0087 31.3831L35.7714 28.3794L38.8752 30.169ZM34.9479 27.9042L33.1852 30.9079L30.0856 29.1198L31.8483 26.1161L34.9479 27.9042ZM32.3292 25.2968L34.0947 22.2903L37.1901 24.0784L35.4273 27.0835L32.3292 25.2968ZM36.2509 27.5587L38.0136 24.555L41.1188 26.3488L39.3561 29.3496L36.2509 27.5587ZM43.3624 22.53L41.5997 25.528L38.4959 23.7343L40.2544 20.7362L43.3624 22.53ZM39.4309 20.2596L37.6738 23.2591L34.577 21.4695L36.3383 18.4729L39.4309 20.2596Z" fill="url(#paint0_linear_562_1072)"/>
<path d="M41.8564 45.7047C41.9578 45.5238 42.0151 45.3215 42.0234 45.1143C42.0318 44.9071 41.9909 44.7008 41.9043 44.5124C41.8176 44.324 41.6876 44.1587 41.5249 44.0302C41.3622 43.9016 41.1713 43.8134 40.9679 43.7727L36.743 42.9266L36.7346 42.9308L36.7374 42.9266L36.0182 42.5318C35.4571 42.2179 34.7944 42.1396 34.1756 42.3142C33.5569 42.4887 33.0327 42.9017 32.7184 43.4625C32.0697 44.6188 32.4786 46.0995 33.6491 46.7482L34.3683 47.143L34.3711 47.136L34.3739 47.143L37.2874 50.3301C37.8937 50.9928 38.9655 50.8659 39.4026 50.0903C39.5585 49.808 39.6061 49.4786 39.5365 49.1637C39.4669 48.8489 39.285 48.5701 39.0247 48.3798C39.302 48.5219 39.6234 48.5518 39.9222 48.4634C40.221 48.3749 40.4743 48.1748 40.6295 47.9045C40.9538 47.3264 40.7423 46.6072 40.1782 46.2828L40.0175 46.1926L40.0654 46.2123C40.7 46.5649 41.5038 46.3392 41.8564 45.7047Z" fill="url(#paint1_linear_562_1072)"/>
<defs>
<linearGradient id="paint0_linear_562_1072" x1="34" y1="14" x2="34" y2="53.5159" gradientUnits="userSpaceOnUse">
<stop stop-color="#4EF162"/>
<stop offset="1" stop-color="#2D8B39"/>
</linearGradient>
<linearGradient id="paint1_linear_562_1072" x1="37.2177" y1="42.2231" x2="37.2177" y2="50.7583" gradientUnits="userSpaceOnUse">
<stop stop-color="#4EF162"/>
<stop offset="1" stop-color="#2D8B39"/>
</linearGradient>
</defs>
</svg>
