<svg width="95" height="96" viewBox="0 0 95 96" fill="none" xmlns="http://www.w3.org/2000/svg">
<path d="M47.975 3.40786C46.7355 3.5563 8.10466 29.4586 7.88201 30.2454C7.65935 31.0395 7.57029 39.2926 7.57029 39.2926L12.5504 40.8735L12.5726 47.4344L15.2371 52.8895V75.9493L13.248 80.2911L7.79294 81.9016V85.8055L3.51794 87.1043C3.51794 87.1043 3.57732 90.4516 3.57732 91.0083C3.57732 91.5649 3.76287 92.745 5.99685 92.745C8.23083 92.745 89.7676 92.3665 90.5914 92.3665C91.4152 92.3665 92.2687 92.2032 92.3133 90.7262C92.3578 89.2493 92.2687 87.1637 92.2687 87.1637L88.1273 85.1153L88.1125 81.8422L81.3734 79.7641L79.748 75.1626L79.7703 53.4833L82.3531 48.0356L83.1324 46.5586V40.6954L87.4742 39.0551C87.4742 39.0551 87.5558 30.5719 87.4297 30.327C87.3183 30.0895 48.9992 3.28911 47.975 3.40786Z" fill="#CDDFEE"/>
<path d="M11.3777 31.9672C11.1477 32.5387 11.0883 36.7543 11.2961 36.9622C11.5039 37.17 83.2438 37.0586 83.4887 36.8583C83.7336 36.6579 83.7707 32.0786 83.652 31.7965C83.5332 31.5145 63.3086 17.7024 63.3086 17.7024L32.0402 17.8583C32.0328 17.8583 11.5113 31.6258 11.3777 31.9672ZM3.51797 87.1192C3.45117 86.9559 3.51797 86.184 3.51797 85.8723C3.51797 85.5606 3.81484 85.2043 4.48281 85.2043C5.15078 85.2043 89.9383 85.0856 90.3539 85.1004C91.4004 85.1376 92.1055 85.3602 92.2094 86.0282C92.3133 86.6961 92.2762 87.1786 92.2762 87.1786L3.51797 87.1192ZM88.1199 81.8497L7.80039 81.909C7.80039 81.909 7.83008 81.0852 7.83008 80.8032C7.83008 80.5211 7.97852 80.061 8.93594 80.061C9.89336 80.061 86.0641 79.7715 86.7172 79.7715C87.3703 79.7715 88.0828 80.0758 88.1719 80.5286C88.2609 80.9813 88.1199 81.8497 88.1199 81.8497ZM80.3492 76.877L79.7555 75.1403L15.2223 75.1254L14.7398 77.0625L80.3492 76.877ZM14.4801 51.3086L80.7277 51.5387L79.7777 53.4832L15.2445 53.7282L14.4801 51.3086ZM13.0328 48.5774C13.0328 48.5774 12.4465 48.1543 12.35 47.5977C12.2535 47.0411 12.5133 46.7145 12.5133 46.7145L83.1398 46.5586C83.1398 46.5586 83.407 47.1079 83.177 47.4938C82.9469 47.8872 82.2937 48.2434 82.2937 48.2434L13.0328 48.5774ZM7.57031 39.2926L87.4816 39.0551C87.4816 39.0551 87.5336 39.8196 87.4816 40.1387C87.4371 40.4579 87.0215 40.7399 85.9602 40.7399H84.8988C84.8988 40.7399 10.0938 41.111 9.2625 41.111C8.43125 41.111 7.8375 40.6508 7.69648 40.2797C7.61484 40.0348 7.57031 39.2926 7.57031 39.2926Z" fill="#94ADBC"/>
<path d="M13.3668 33.9785L30.1774 22.6305L31.3055 34.2012L13.3668 33.9785ZM64.9785 22.252L81.8114 34.127H64.5258L64.9785 22.252Z" fill="#657582"/>
<path d="M24.7965 48.5254L27.5649 48.518L29.7321 53.7207L29.5317 75.1402L27.7282 79.9941L24.5071 80.0016L22.7333 75.1699L22.6516 53.6762L24.7965 48.5254ZM39.5364 48.4512L36.7829 53.602L36.9907 75.1402L38.6235 79.957L56.6067 79.8828L58.2247 75.1402L58.2692 53.5574L56.1688 48.3695L39.5364 48.4512ZM67.8137 48.3176L70.2555 48.3027L72.4153 53.5055L72.4079 75.1477L71.1536 79.8383L67.079 79.8457L65.8321 75.1477L65.7356 53.5277L67.8137 48.3176Z" fill="#54636E"/>
<path d="M40.5383 79.9497V63.436L55.0258 63.5771L55.0555 79.9052L40.5383 79.9497Z" fill="#6BA4AE"/>
<path d="M46.9508 62.6863L46.9434 79.9273L48.4426 79.9199V62.9386L46.9508 62.6863Z" fill="#A5D0D7"/>
<path d="M40.5383 64.2227V60.0813H55.0258V64.2227C55.0258 64.2227 40.6645 64.0965 40.5383 64.2227Z" fill="#95ACBC"/>
<path d="M40.5383 60.0812H55.0258C55.0258 60.0812 55.0852 58.7898 53.7419 58.6637C52.3985 58.5375 42.5274 58.6414 41.6962 58.6637C40.4567 58.7008 40.5383 60.0812 40.5383 60.0812Z" fill="#CCDEED"/>
<path d="M47.7895 8.80366C37.0352 8.87046 28.5223 17.3759 28.886 28.1302C29.2497 38.8845 39.1133 46.4474 47.7895 46.3806C56.8961 46.3138 66.4852 39.7974 66.9157 28.0708C67.3536 16.3517 57.4825 8.73686 47.7895 8.80366Z" fill="#CDDFEE"/>
<path d="M47.8563 11.379C38.8535 11.4384 31.6469 18.8231 31.9512 28.1895C32.2481 37.5559 40.1746 43.4934 47.4406 43.5602C55.8199 43.6344 63.5313 38.1571 63.8875 27.952C64.2438 17.7469 55.9684 11.327 47.8563 11.379Z" fill="#94ADBC"/>
<path d="M45.2586 16.6113C45.2586 16.6113 45.0953 13.7464 45.2957 13.5015C45.4961 13.2566 46.3125 13.2566 47.8933 13.2566C49.4816 13.2566 50.1273 13.2566 50.3723 13.457C50.6172 13.6574 50.491 16.7894 50.491 16.7894C50.491 16.7894 52.6433 17.5984 53.9867 18.6375C55.4117 19.7359 56.4285 21.198 56.3469 21.4429C56.2652 21.6878 53.4226 24.1667 53.0144 24.0851C52.6062 24.0035 50.2906 21.2945 47.5297 21.1164C43.1434 20.8343 43.1805 24.2484 45.9043 25.1835C48.6281 26.1187 57.2152 26.8609 56.8812 33.6964C56.5992 39.4484 50.7879 39.8566 50.7879 39.8566C50.7879 39.8566 50.9512 42.0089 50.7879 42.1351C50.6246 42.2613 45.5035 42.3355 45.3402 42.098C45.1769 41.8605 45.3031 39.6562 45.3031 39.6562C45.3031 39.6562 43.0246 39.2109 41.1543 37.9492C39.284 36.6875 37.9406 35.025 37.9035 34.8171C37.8664 34.6167 41.1988 31.8113 41.4363 31.7296C41.6738 31.648 45.0656 34.9878 48.2644 35.2624C51.5152 35.5445 52.8957 32.3382 48.3832 30.9578C43.8707 29.5773 38.5492 28.3972 38.7941 22.7492C39.0391 17.0121 45.2586 16.6113 45.2586 16.6113Z" fill="#024FAC"/>
</svg>
