<svg width="100" height="100" viewBox="0 0 100 100" fill="none" xmlns="http://www.w3.org/2000/svg">
<path d="M50 10.1562C42.1197 10.1562 34.4163 12.493 27.864 16.8711C21.3117 21.2492 16.2049 27.472 13.1892 34.7525C10.1735 42.033 9.38446 50.0442 10.9218 57.7731C12.4592 65.5021 16.254 72.6015 21.8262 78.1738C27.3985 83.746 34.4979 87.5408 42.2269 89.0782C49.9558 90.6155 57.9671 89.8265 65.2475 86.8108C72.528 83.7952 78.7508 78.6883 83.1289 72.136C87.507 65.5837 89.8438 57.8803 89.8438 50C89.8313 39.4366 85.6295 29.3094 78.1601 21.8399C70.6906 14.3705 60.5634 10.1687 50 10.1562ZM85.082 47.7734C83.8086 47.6992 82.5273 47.6562 81.2539 47.6562C75.2771 47.6589 69.3291 48.4857 63.5781 50.1133C62.1586 45.7183 60.2687 41.4893 57.9414 37.5C57.8867 37.4023 57.8242 37.3086 57.7695 37.2109C63.7494 33.7 69.1286 29.2544 73.7031 24.043C80.4325 30.1763 84.513 38.6862 85.082 47.7734ZM70.0352 21.1289C65.7785 25.9418 60.7807 30.0443 55.2305 33.2812C50.7399 26.8082 45.1139 21.202 38.625 16.7344C43.8381 14.9505 49.3979 14.4188 54.8546 15.1823C60.3114 15.9457 65.5118 17.9829 70.0352 21.1289ZM33.4805 18.9766C40.3878 23.246 46.3658 28.8613 51.0586 35.4883C42.9272 39.3933 34.0205 41.4161 25 41.4062C22.0139 41.404 19.032 41.1833 16.0781 40.7461C17.3496 36.1264 19.5481 31.8139 22.54 28.0712C25.5318 24.3286 29.2542 21.2342 33.4805 18.9766ZM14.8438 50C14.8436 48.4428 14.9467 46.8873 15.1523 45.3438C18.4113 45.8419 21.7032 46.0926 25 46.0938C34.9259 46.1048 44.7214 43.8327 53.6289 39.4531C53.7148 39.5977 53.8086 39.7383 53.8906 39.8828C56.0479 43.5767 57.8003 47.4926 59.1172 51.5625C55.5885 52.8389 52.1783 54.4217 48.9258 56.293C40.1951 61.3298 32.7504 68.3213 27.1758 76.7188C23.3086 73.4234 20.2031 69.3275 18.0739 64.7144C15.9447 60.1013 14.8426 55.0808 14.8438 50ZM30.9336 79.5234C36.124 71.6313 43.0864 65.0609 51.2656 60.3359C54.1841 58.6579 57.2393 57.2297 60.3984 56.0664C61.5139 60.6919 62.0777 65.4333 62.0781 70.1914C62.0781 74.6769 61.5789 79.1484 60.5898 83.5234C55.6572 85.0827 50.441 85.5327 45.3142 84.8412C40.1874 84.1497 35.2768 82.3338 30.9336 79.5234ZM65.793 81.4023C66.44 77.7004 66.7654 73.9494 66.7656 70.1914C66.7629 64.9425 66.1255 59.7131 64.8672 54.6172C70.198 53.1116 75.7106 52.3466 81.25 52.3438C82.5195 52.3438 83.7969 52.3867 85.0664 52.4688C84.6314 58.5468 82.6268 64.408 79.2486 69.4794C75.8704 74.5509 71.2341 78.659 65.793 81.4023Z" fill="#013606"/>
</svg>
