<svg width="68" height="68" viewBox="0 0 68 68" fill="none" xmlns="http://www.w3.org/2000/svg">
<circle cx="34" cy="34" r="33" fill="black" stroke="#4EF162" stroke-width="2"/>
<path d="M24.5312 24.375C25.7043 24.3755 26.8507 24.7253 27.8242 25.3798C28.7976 26.0343 29.5542 26.9639 29.9973 28.0501C30.4405 29.1362 30.5502 30.3297 30.3124 31.4784C30.0746 32.6271 29.5002 33.679 28.6622 34.5H29.5938C30.2651 34.5 30.9089 34.7667 31.3836 35.2414C31.8583 35.7161 32.125 36.3599 32.125 37.0312C32.125 37.7026 31.8583 38.3464 31.3836 38.8211C30.9089 39.2958 30.2651 39.5625 29.5938 39.5625H28.9694C29.6106 42.5848 31.4972 44.6183 32.5772 45.5666C33.2809 46.1843 33.8125 47.1141 33.8125 48.1856C33.8125 48.6045 33.73 49.0192 33.5697 49.4061C33.4094 49.7931 33.1745 50.1447 32.8784 50.4409C32.5822 50.737 32.2306 50.9719 31.8436 51.1322C31.4567 51.2925 31.042 51.375 30.6231 51.375H18.4394C18.0205 51.375 17.6058 51.2925 17.2189 51.1322C16.8319 50.9719 16.4803 50.737 16.1841 50.4409C15.888 50.1447 15.6531 49.7931 15.4928 49.4061C15.3325 49.0192 15.25 48.6045 15.25 48.1856C15.25 47.1141 15.7816 46.1843 16.4853 45.5666C17.5653 44.6183 19.4519 42.5848 20.0914 39.5625H19.4688C18.7974 39.5625 18.1536 39.2958 17.6789 38.8211C17.2042 38.3464 16.9375 37.7026 16.9375 37.0312C16.9375 36.3599 17.2042 35.7161 17.6789 35.2414C18.1536 34.7667 18.7974 34.5 19.4688 34.5H20.4003C19.5623 33.679 18.9879 32.6271 18.7501 31.4784C18.5123 30.3297 18.622 29.1362 19.0652 28.0501C19.5083 26.9639 20.2649 26.0343 21.2383 25.3798C22.2118 24.7253 23.3582 24.3755 24.5312 24.375ZM33.8125 17.625C34.2601 17.625 34.6893 17.8028 35.0057 18.1193C35.3222 18.4357 35.5 18.8649 35.5 19.3125V21.4219C35.5 21.7575 35.6333 22.0795 35.8707 22.3168C36.108 22.5542 36.43 22.6875 36.7656 22.6875C37.1013 22.6875 37.4232 22.5542 37.6606 22.3168C37.8979 22.0795 38.0312 21.7575 38.0312 21.4219V19.3125C38.0312 18.8649 38.209 18.4357 38.5255 18.1193C38.842 17.8028 39.2712 17.625 39.7188 17.625C40.1663 17.625 40.5955 17.8028 40.912 18.1193C41.2285 18.4357 41.4062 18.8649 41.4062 19.3125V21.4219C41.4062 21.7575 41.5396 22.0795 41.7769 22.3168C42.0143 22.5542 42.3362 22.6875 42.6719 22.6875C43.0075 22.6875 43.3295 22.5542 43.5668 22.3168C43.8042 22.0795 43.9375 21.7575 43.9375 21.4219V19.3125C43.9375 18.8649 44.1153 18.4357 44.4318 18.1193C44.7482 17.8028 45.1774 17.625 45.625 17.625H46.0469C46.3825 17.625 46.7045 17.7583 46.9418 17.9957C47.1792 18.233 47.3125 18.555 47.3125 18.8906V26.0625C47.3125 26.9576 46.9569 27.816 46.324 28.449C45.691 29.0819 44.8326 29.4375 43.9375 29.4375H43.5663C44.005 38.6411 47.2163 44.1626 48.3351 45.8265C48.7334 46.4171 49 47.1427 49 47.9308C49 49.8326 47.4576 51.3733 45.5558 51.375H34.3069C35.0494 50.5194 35.5 49.4074 35.5 48.1856C35.5 46.5437 34.69 45.1768 33.6893 44.2993C33.297 43.954 32.9319 43.5788 32.5975 43.1771C33.9424 40.3911 35.5675 35.7909 35.8713 29.4375H35.5C34.6049 29.4375 33.7465 29.0819 33.1135 28.449C32.4806 27.816 32.125 26.9576 32.125 26.0625V18.8906C32.125 18.555 32.2583 18.233 32.4957 17.9957C32.733 17.7583 33.055 17.625 33.3906 17.625H33.8125Z" fill="url(#paint0_linear_562_1071)"/>
<defs>
<linearGradient id="paint0_linear_562_1071" x1="32.125" y1="17.625" x2="32.125" y2="51.375" gradientUnits="userSpaceOnUse">
<stop stop-color="#4EF162"/>
<stop offset="1" stop-color="#2D8B39"/>
</linearGradient>
</defs>
</svg>
