<svg width="100" height="100" viewBox="0 0 100 100" fill="none" xmlns="http://www.w3.org/2000/svg">
<path d="M50 10.1562C42.1197 10.1562 34.4163 12.493 27.864 16.8711C21.3117 21.2492 16.2049 27.472 13.1892 34.7525C10.1735 42.033 9.38446 50.0442 10.9218 57.7731C12.4592 65.5021 16.254 72.6015 21.8262 78.1738C27.3985 83.746 34.4979 87.5408 42.2269 89.0782C49.9558 90.6155 57.9671 89.8265 65.2475 86.8108C72.528 83.7952 78.7508 78.6883 83.1289 72.136C87.507 65.5837 89.8438 57.8803 89.8438 50C89.8313 39.4366 85.6295 29.3094 78.1601 21.8399C70.6906 14.3705 60.5634 10.1687 50 10.1562ZM73.1328 23.5508L23.5508 73.1328C21.6264 70.9373 19.9823 68.5112 18.6563 65.9102L65.9219 18.6445C68.5194 19.975 70.9416 21.6231 73.1328 23.5508ZM76.4492 26.8672C78.3736 29.0627 80.0177 31.4888 81.3438 34.0898L34.0781 81.3555C31.4771 80.0295 29.051 78.3854 26.8555 76.4609L76.4492 26.8672ZM50 14.8438C53.8242 14.8403 57.6232 15.4631 61.2461 16.6875L16.6875 61.2461C14.9018 55.9571 14.4012 50.3188 15.2272 44.7979C16.0532 39.277 18.1821 34.0322 21.4376 29.4974C24.6932 24.9627 28.9818 21.2684 33.9486 18.7202C38.9154 16.172 44.4177 14.8432 50 14.8438ZM50 85.1562C46.1758 85.1597 42.3768 84.5369 38.7539 83.3125L83.3125 38.7539C85.0982 44.0429 85.5988 49.6812 84.7728 55.2021C83.9468 60.723 81.8179 65.9678 78.5624 70.5025C75.3068 75.0373 71.0182 78.7316 66.0514 81.2798C61.0846 83.828 55.5823 85.1568 50 85.1562Z" fill="#DAE0CA"/>
</svg>
