<svg width="450" height="443" viewBox="0 0 450 443" fill="none" xmlns="http://www.w3.org/2000/svg">
<path d="M0 24.2018C0 10.8355 10.8355 0 24.2018 0H425.798C439.164 0 450 10.8355 450 24.2018V443H0V24.2018Z" fill="#16171B"/>
<path d="M341 267L124 148.5V358L341 267Z" stroke="#015409"/>
<rect x="32" y="104" width="181" height="96" rx="12.9574" fill="#1B702C"/>
<rect x="250" y="214" width="181" height="96" rx="12.9574" fill="#1B702C"/>
<rect x="32" y="305" width="181" height="96" rx="12.9574" fill="#1B702C"/>
<path d="M32 116.957C32 109.801 37.8012 104 44.9574 104H200.043C207.199 104 213 109.801 213 116.957V158H32V116.957Z" fill="black"/>
<path d="M250 226.957C250 219.801 255.801 214 262.957 214H418.043C425.199 214 431 219.801 431 226.957V268H250V226.957Z" fill="black"/>
<path d="M32 317.957C32 310.801 37.8012 305 44.9574 305H200.043C207.199 305 213 310.801 213 317.957V359H32V317.957Z" fill="black"/>
<circle cx="59" cy="132" r="18" fill="#4EF162"/>
<circle cx="277" cy="242" r="18" fill="#4EF162"/>
<circle cx="59" cy="333" r="18" fill="#4EF162"/>
<path d="M40.0715 57.5095C38.6448 57.5095 37.4048 57.2029 36.3515 56.5895C35.3115 55.9629 34.4982 55.0895 33.9115 53.9695C33.3382 52.8362 33.0515 51.5029 33.0515 49.9695C33.0515 48.4495 33.3448 47.1229 33.9315 45.9895C34.5315 44.8562 35.3715 43.9762 36.4515 43.3495C37.5315 42.7229 38.7782 42.4095 40.1915 42.4095C41.3515 42.4095 42.3915 42.6229 43.3115 43.0495C44.2315 43.4762 44.9915 44.0762 45.5915 44.8495C46.1915 45.6095 46.5715 46.5162 46.7315 47.5695H44.0315C43.7782 46.7162 43.3048 46.0562 42.6115 45.5895C41.9315 45.1095 41.0982 44.8695 40.1115 44.8695C39.2315 44.8695 38.4582 45.0762 37.7915 45.4895C37.1382 45.9029 36.6315 46.4895 36.2715 47.2495C35.9115 48.0095 35.7315 48.9162 35.7315 49.9695C35.7315 50.9829 35.9115 51.8762 36.2715 52.6495C36.6315 53.4095 37.1382 54.0029 37.7915 54.4295C38.4582 54.8429 39.2315 55.0495 40.1115 55.0495C41.1115 55.0495 41.9648 54.8095 42.6715 54.3295C43.3915 53.8495 43.8715 53.2029 44.1115 52.3895H46.7715C46.5848 53.4029 46.1782 54.2962 45.5515 55.0695C44.9382 55.8429 44.1582 56.4429 43.2115 56.8695C42.2782 57.2962 41.2315 57.5095 40.0715 57.5095ZM55.2459 47.3495V49.6095H54.3459C53.4526 49.6095 52.7526 49.8495 52.2459 50.3295C51.7392 50.7962 51.4859 51.5095 51.4859 52.4695V57.2695H49.0459V47.4095H51.3459L51.5459 49.4495H51.3059C51.4392 48.7962 51.7526 48.2629 52.2459 47.8495C52.7392 47.4362 53.3792 47.2295 54.1659 47.2295C54.3392 47.2295 54.5126 47.2362 54.6859 47.2495C54.8592 47.2629 55.0459 47.2962 55.2459 47.3495ZM56.3241 52.3095C56.3241 51.2829 56.5507 50.3829 57.0041 49.6095C57.4574 48.8229 58.0841 48.2095 58.8841 47.7695C59.6841 47.3295 60.5907 47.1095 61.6041 47.1095C62.6307 47.1095 63.5374 47.3295 64.3241 47.7695C65.1241 48.2095 65.7507 48.8229 66.2041 49.6095C66.6574 50.3829 66.8841 51.2829 66.8841 52.3095C66.8841 53.3362 66.6574 54.2429 66.2041 55.0295C65.7507 55.8029 65.1241 56.4095 64.3241 56.8495C63.5374 57.2895 62.6307 57.5095 61.6041 57.5095C60.5907 57.5095 59.6841 57.2895 58.8841 56.8495C58.0841 56.4095 57.4574 55.8029 57.0041 55.0295C56.5507 54.2429 56.3241 53.3362 56.3241 52.3095ZM58.7641 52.3095C58.7641 52.9095 58.8841 53.4362 59.1241 53.8895C59.3774 54.3429 59.7107 54.6962 60.1241 54.9495C60.5507 55.2029 61.0441 55.3295 61.6041 55.3295C62.1641 55.3295 62.6574 55.2029 63.0841 54.9495C63.5107 54.6962 63.8441 54.3429 64.0841 53.8895C64.3241 53.4362 64.4441 52.9095 64.4441 52.3095C64.4441 51.6962 64.3241 51.1695 64.0841 50.7295C63.8441 50.2762 63.5107 49.9229 63.0841 49.6695C62.6574 49.4162 62.1641 49.2895 61.6041 49.2895C61.0441 49.2895 60.5507 49.4162 60.1241 49.6695C59.7107 49.9229 59.3774 50.2762 59.1241 50.7295C58.8841 51.1695 58.7641 51.6962 58.7641 52.3095ZM68.3968 54.2695H70.7168C70.7301 54.6962 70.8901 55.0362 71.1968 55.2895C71.5034 55.5429 71.9301 55.6695 72.4768 55.6695C73.0634 55.6695 73.5034 55.5629 73.7968 55.3495C74.1034 55.1362 74.2568 54.8495 74.2568 54.4895C74.2568 54.2495 74.1768 54.0362 74.0168 53.8495C73.8568 53.6629 73.5568 53.5229 73.1168 53.4295L71.3368 53.0095C70.4434 52.8095 69.7768 52.4895 69.3368 52.0495C68.9101 51.5962 68.6968 50.9762 68.6968 50.1895C68.6968 49.5495 68.8634 48.9962 69.1968 48.5295C69.5434 48.0629 70.0101 47.7095 70.5968 47.4695C71.1834 47.2162 71.8568 47.0895 72.6168 47.0895C73.3501 47.0895 73.9968 47.2229 74.5568 47.4895C75.1168 47.7562 75.5501 48.1295 75.8568 48.6095C76.1768 49.0895 76.3434 49.6495 76.3568 50.2895H74.0368C74.0368 49.8629 73.9034 49.5295 73.6368 49.2895C73.3701 49.0362 72.9968 48.9095 72.5168 48.9095C72.0368 48.9095 71.6634 49.0162 71.3968 49.2295C71.1301 49.4429 70.9968 49.7295 70.9968 50.0895C70.9968 50.6362 71.4234 51.0095 72.2768 51.2095L74.0568 51.6295C74.8834 51.8162 75.5034 52.1162 75.9168 52.5295C76.3434 52.9429 76.5568 53.5295 76.5568 54.2895C76.5568 54.9562 76.3834 55.5362 76.0368 56.0295C75.6901 56.5095 75.2034 56.8829 74.5768 57.1495C73.9501 57.4029 73.2301 57.5295 72.4168 57.5295C71.1901 57.5295 70.2101 57.2295 69.4768 56.6295C68.7568 56.0295 68.3968 55.2429 68.3968 54.2695ZM77.9932 54.2695H80.3132C80.3265 54.6962 80.4865 55.0362 80.7932 55.2895C81.0999 55.5429 81.5265 55.6695 82.0732 55.6695C82.6599 55.6695 83.0999 55.5629 83.3932 55.3495C83.6999 55.1362 83.8532 54.8495 83.8532 54.4895C83.8532 54.2495 83.7732 54.0362 83.6132 53.8495C83.4532 53.6629 83.1532 53.5229 82.7132 53.4295L80.9332 53.0095C80.0399 52.8095 79.3732 52.4895 78.9332 52.0495C78.5065 51.5962 78.2932 50.9762 78.2932 50.1895C78.2932 49.5495 78.4599 48.9962 78.7932 48.5295C79.1399 48.0629 79.6065 47.7095 80.1932 47.4695C80.7799 47.2162 81.4532 47.0895 82.2132 47.0895C82.9465 47.0895 83.5932 47.2229 84.1532 47.4895C84.7132 47.7562 85.1465 48.1295 85.4532 48.6095C85.7732 49.0895 85.9399 49.6495 85.9532 50.2895H83.6332C83.6332 49.8629 83.4999 49.5295 83.2332 49.2895C82.9665 49.0362 82.5932 48.9095 82.1132 48.9095C81.6332 48.9095 81.2599 49.0162 80.9932 49.2295C80.7265 49.4429 80.5932 49.7295 80.5932 50.0895C80.5932 50.6362 81.0199 51.0095 81.8732 51.2095L83.6532 51.6295C84.4799 51.8162 85.0999 52.1162 85.5132 52.5295C85.9399 52.9429 86.1532 53.5295 86.1532 54.2895C86.1532 54.9562 85.9799 55.5362 85.6332 56.0295C85.2865 56.5095 84.7999 56.8829 84.1732 57.1495C83.5465 57.4029 82.8265 57.5295 82.0132 57.5295C80.7865 57.5295 79.8065 57.2295 79.0732 56.6295C78.3532 56.0295 77.9932 55.2429 77.9932 54.2695ZM88.0757 53.0095V50.8495H94.5157V53.0095H88.0757ZM103.881 57.5095C102.454 57.5095 101.214 57.2029 100.161 56.5895C99.1206 55.9629 98.3073 55.0895 97.7206 53.9695C97.1473 52.8362 96.8606 51.5029 96.8606 49.9695C96.8606 48.4495 97.154 47.1229 97.7406 45.9895C98.3406 44.8562 99.1806 43.9762 100.261 43.3495C101.341 42.7229 102.587 42.4095 104.001 42.4095C105.161 42.4095 106.201 42.6229 107.121 43.0495C108.041 43.4762 108.801 44.0762 109.401 44.8495C110.001 45.6095 110.381 46.5162 110.541 47.5695H107.841C107.587 46.7162 107.114 46.0562 106.421 45.5895C105.741 45.1095 104.907 44.8695 103.921 44.8695C103.041 44.8695 102.267 45.0762 101.601 45.4895C100.947 45.9029 100.441 46.4895 100.081 47.2495C99.7206 48.0095 99.5406 48.9162 99.5406 49.9695C99.5406 50.9829 99.7206 51.8762 100.081 52.6495C100.441 53.4095 100.947 54.0029 101.601 54.4295C102.267 54.8429 103.041 55.0495 103.921 55.0495C104.921 55.0495 105.774 54.8095 106.481 54.3295C107.201 53.8495 107.681 53.2029 107.921 52.3895H110.581C110.394 53.4029 109.987 54.2962 109.361 55.0695C108.747 55.8429 107.967 56.4429 107.021 56.8695C106.087 57.2962 105.041 57.5095 103.881 57.5095ZM115.217 57.2695H112.797V42.3895H115.217V57.2695ZM124.816 47.3895H127.256V57.2695H124.996L124.816 55.9495C124.522 56.4162 124.082 56.7962 123.496 57.0895C122.909 57.3829 122.282 57.5295 121.616 57.5295C120.482 57.5295 119.596 57.1695 118.956 56.4495C118.316 55.7295 117.996 54.7695 117.996 53.5695V47.3895H120.436V52.7095C120.436 53.6429 120.616 54.3162 120.976 54.7295C121.336 55.1429 121.856 55.3495 122.536 55.3495C123.309 55.3495 123.882 55.1229 124.256 54.6695C124.629 54.2029 124.816 53.5029 124.816 52.5695V47.3895ZM132.374 57.2695H130.114V42.3895H132.554V48.8295C132.874 48.2695 133.341 47.8429 133.954 47.5495C134.568 47.2429 135.254 47.0895 136.014 47.0895C136.961 47.0895 137.768 47.3162 138.434 47.7695C139.114 48.2095 139.634 48.8295 139.994 49.6295C140.368 50.4295 140.554 51.3562 140.554 52.4095C140.554 53.4095 140.361 54.2962 139.974 55.0695C139.588 55.8429 139.041 56.4495 138.334 56.8895C137.628 57.3162 136.801 57.5295 135.854 57.5295C135.121 57.5295 134.454 57.3695 133.854 57.0495C133.268 56.7295 132.828 56.2895 132.534 55.7295L132.374 57.2695ZM132.574 52.2895C132.574 52.8762 132.688 53.4029 132.914 53.8695C133.141 54.3229 133.461 54.6762 133.874 54.9295C134.301 55.1695 134.794 55.2895 135.354 55.2895C135.928 55.2895 136.421 55.1629 136.834 54.9095C137.248 54.6562 137.561 54.3029 137.774 53.8495C137.988 53.3962 138.094 52.8762 138.094 52.2895C138.094 51.7029 137.988 51.1829 137.774 50.7295C137.561 50.2762 137.248 49.9229 136.834 49.6695C136.421 49.4029 135.928 49.2695 135.354 49.2695C134.794 49.2695 134.301 49.4029 133.874 49.6695C133.461 49.9229 133.141 50.2762 132.914 50.7295C132.688 51.1695 132.574 51.6895 132.574 52.2895ZM151.485 42.6495V57.2695H148.925V42.6495H151.485ZM157.144 57.2695H154.704V47.3895H156.964L157.164 48.6695C157.471 48.1762 157.904 47.7895 158.464 47.5095C159.038 47.2295 159.658 47.0895 160.324 47.0895C161.564 47.0895 162.498 47.4562 163.124 48.1895C163.764 48.9229 164.084 49.9229 164.084 51.1895V57.2695H161.644V51.7695C161.644 50.9429 161.458 50.3295 161.084 49.9295C160.711 49.5162 160.204 49.3095 159.564 49.3095C158.804 49.3095 158.211 49.5495 157.784 50.0295C157.358 50.5095 157.144 51.1495 157.144 51.9495V57.2695ZM165.84 47.3895H172.08V49.4295H165.84V47.3895ZM170.18 57.2695H167.74V44.3095H170.18V57.2695ZM178.278 57.5295C177.305 57.5295 176.438 57.3095 175.678 56.8695C174.932 56.4162 174.345 55.8029 173.918 55.0295C173.492 54.2429 173.278 53.3429 173.278 52.3295C173.278 51.3029 173.485 50.3962 173.898 49.6095C174.312 48.8229 174.892 48.2095 175.638 47.7695C176.385 47.3162 177.238 47.0895 178.198 47.0895C179.198 47.0895 180.058 47.3029 180.778 47.7295C181.498 48.1429 182.052 48.7229 182.438 49.4695C182.838 50.2162 183.038 51.1095 183.038 52.1495V52.8895L174.558 52.9095L174.598 51.3495H180.618C180.618 50.6695 180.398 50.1229 179.958 49.7095C179.532 49.2962 178.952 49.0895 178.218 49.0895C177.645 49.0895 177.158 49.2095 176.758 49.4495C176.372 49.6895 176.078 50.0495 175.878 50.5295C175.678 51.0095 175.578 51.5962 175.578 52.2895C175.578 53.3562 175.805 54.1629 176.258 54.7095C176.725 55.2562 177.412 55.5295 178.318 55.5295C178.985 55.5295 179.532 55.4029 179.958 55.1495C180.398 54.8962 180.685 54.5362 180.818 54.0695H183.078C182.865 55.1495 182.332 55.9962 181.478 56.6095C180.638 57.2229 179.572 57.5295 178.278 57.5295ZM191.53 47.3495V49.6095H190.63C189.736 49.6095 189.036 49.8495 188.53 50.3295C188.023 50.7962 187.77 51.5095 187.77 52.4695V57.2695H185.33V47.4095H187.63L187.83 49.4495H187.59C187.723 48.7962 188.036 48.2629 188.53 47.8495C189.023 47.4362 189.663 47.2295 190.45 47.2295C190.623 47.2295 190.796 47.2362 190.97 47.2495C191.143 47.2629 191.33 47.2962 191.53 47.3495ZM196.069 57.5295C195.029 57.5295 194.203 57.2495 193.589 56.6895C192.989 56.1162 192.689 55.3695 192.689 54.4495C192.689 53.5429 193.003 52.8229 193.629 52.2895C194.269 51.7429 195.176 51.4229 196.349 51.3295L199.309 51.0895V50.8695C199.309 50.4162 199.223 50.0562 199.049 49.7895C198.889 49.5095 198.656 49.3095 198.349 49.1895C198.043 49.0562 197.683 48.9895 197.269 48.9895C196.549 48.9895 195.996 49.1362 195.609 49.4295C195.223 49.7095 195.029 50.1095 195.029 50.6295H192.949C192.949 49.9095 193.129 49.2895 193.489 48.7695C193.863 48.2362 194.383 47.8229 195.049 47.5295C195.729 47.2362 196.509 47.0895 197.389 47.0895C198.283 47.0895 199.049 47.2495 199.689 47.5695C200.329 47.8762 200.823 48.3429 201.169 48.9695C201.516 49.5829 201.689 50.3495 201.689 51.2695V57.2695H199.549L199.369 55.8095C199.156 56.3162 198.743 56.7295 198.129 57.0495C197.529 57.3695 196.843 57.5295 196.069 57.5295ZM196.849 55.6895C197.609 55.6895 198.209 55.4762 198.649 55.0495C199.103 54.6229 199.329 54.0295 199.329 53.2695V52.7495L197.269 52.9095C196.509 52.9762 195.969 53.1362 195.649 53.3895C195.329 53.6295 195.169 53.9495 195.169 54.3495C195.169 54.7895 195.316 55.1229 195.609 55.3495C195.903 55.5762 196.316 55.6895 196.849 55.6895ZM203.845 52.3095C203.845 51.2962 204.052 50.3962 204.465 49.6095C204.892 48.8229 205.472 48.2095 206.205 47.7695C206.952 47.3162 207.812 47.0895 208.785 47.0895C210.132 47.0895 211.232 47.4429 212.085 48.1495C212.952 48.8429 213.452 49.7829 213.585 50.9695H211.145C210.998 50.4095 210.725 49.9895 210.325 49.7095C209.938 49.4162 209.452 49.2695 208.865 49.2695C208.358 49.2695 207.905 49.3962 207.505 49.6495C207.118 49.8895 206.818 50.2362 206.605 50.6895C206.392 51.1429 206.285 51.6829 206.285 52.3095C206.285 52.9362 206.385 53.4762 206.585 53.9295C206.785 54.3829 207.072 54.7362 207.445 54.9895C207.832 55.2295 208.285 55.3495 208.805 55.3495C209.418 55.3495 209.925 55.2029 210.325 54.9095C210.738 54.6162 211.012 54.1962 211.145 53.6495H213.605C213.498 54.4229 213.225 55.1029 212.785 55.6895C212.358 56.2629 211.805 56.7162 211.125 57.0495C210.445 57.3695 209.672 57.5295 208.805 57.5295C207.805 57.5295 206.932 57.3162 206.185 56.8895C205.438 56.4495 204.858 55.8429 204.445 55.0695C204.045 54.2829 203.845 53.3629 203.845 52.3095ZM214.78 47.3895H221.02V49.4295H214.78V47.3895ZM219.12 57.2695H216.68V44.3095H219.12V57.2695ZM222.895 57.2695V47.3895H225.335V57.2695H222.895ZM224.095 45.4095C223.682 45.4095 223.329 45.2695 223.035 44.9895C222.755 44.6962 222.615 44.3429 222.615 43.9295C222.615 43.5162 222.755 43.1695 223.035 42.8895C223.329 42.6095 223.682 42.4695 224.095 42.4695C224.509 42.4695 224.855 42.6095 225.135 42.8895C225.429 43.1695 225.575 43.5162 225.575 43.9295C225.575 44.3429 225.429 44.6962 225.135 44.9895C224.855 45.2695 224.509 45.4095 224.095 45.4095ZM227.615 52.3095C227.615 51.2829 227.841 50.3829 228.295 49.6095C228.748 48.8229 229.375 48.2095 230.175 47.7695C230.975 47.3295 231.881 47.1095 232.895 47.1095C233.921 47.1095 234.828 47.3295 235.615 47.7695C236.415 48.2095 237.041 48.8229 237.495 49.6095C237.948 50.3829 238.175 51.2829 238.175 52.3095C238.175 53.3362 237.948 54.2429 237.495 55.0295C237.041 55.8029 236.415 56.4095 235.615 56.8495C234.828 57.2895 233.921 57.5095 232.895 57.5095C231.881 57.5095 230.975 57.2895 230.175 56.8495C229.375 56.4095 228.748 55.8029 228.295 55.0295C227.841 54.2429 227.615 53.3362 227.615 52.3095ZM230.055 52.3095C230.055 52.9095 230.175 53.4362 230.415 53.8895C230.668 54.3429 231.001 54.6962 231.415 54.9495C231.841 55.2029 232.335 55.3295 232.895 55.3295C233.455 55.3295 233.948 55.2029 234.375 54.9495C234.801 54.6962 235.135 54.3429 235.375 53.8895C235.615 53.4362 235.735 52.9095 235.735 52.3095C235.735 51.6962 235.615 51.1695 235.375 50.7295C235.135 50.2762 234.801 49.9229 234.375 49.6695C233.948 49.4162 233.455 49.2895 232.895 49.2895C232.335 49.2895 231.841 49.4162 231.415 49.6695C231.001 49.9229 230.668 50.2762 230.415 50.7295C230.175 51.1695 230.055 51.6962 230.055 52.3095ZM242.887 57.2695H240.447V47.3895H242.707L242.907 48.6695C243.214 48.1762 243.647 47.7895 244.207 47.5095C244.781 47.2295 245.401 47.0895 246.067 47.0895C247.307 47.0895 248.241 47.4562 248.867 48.1895C249.507 48.9229 249.827 49.9229 249.827 51.1895V57.2695H247.387V51.7695C247.387 50.9429 247.201 50.3295 246.827 49.9295C246.454 49.5162 245.947 49.3095 245.307 49.3095C244.547 49.3095 243.954 49.5495 243.527 50.0295C243.101 50.5095 242.887 51.1495 242.887 51.9495V57.2695Z" fill="white"/>
<path d="M92.63 138.204C91.4173 138.204 90.3633 137.943 89.468 137.422C88.584 136.889 87.8927 136.147 87.394 135.195C86.9067 134.232 86.663 133.098 86.663 131.795C86.663 130.503 86.9123 129.375 87.411 128.412C87.921 127.449 88.635 126.701 89.553 126.168C90.471 125.635 91.5307 125.369 92.732 125.369C93.718 125.369 94.602 125.55 95.384 125.913C96.166 126.276 96.812 126.786 97.322 127.443C97.832 128.089 98.155 128.86 98.291 129.755H95.996C95.7807 129.03 95.3783 128.469 94.789 128.072C94.211 127.664 93.5027 127.46 92.664 127.46C91.916 127.46 91.2587 127.636 90.692 127.987C90.1367 128.338 89.706 128.837 89.4 129.483C89.094 130.129 88.941 130.9 88.941 131.795C88.941 132.656 89.094 133.416 89.4 134.073C89.706 134.719 90.1367 135.223 90.692 135.586C91.2587 135.937 91.916 136.113 92.664 136.113C93.514 136.113 94.2393 135.909 94.84 135.501C95.452 135.093 95.86 134.543 96.064 133.852H98.325C98.1663 134.713 97.8207 135.473 97.288 136.13C96.7667 136.787 96.1037 137.297 95.299 137.66C94.5057 138.023 93.616 138.204 92.63 138.204ZM102.317 138H100.26V125.352H102.317V138ZM110.526 129.602H112.6V138H110.679L110.526 136.878C110.277 137.275 109.903 137.598 109.404 137.847C108.906 138.096 108.373 138.221 107.806 138.221C106.843 138.221 106.089 137.915 105.545 137.303C105.001 136.691 104.729 135.875 104.729 134.855V129.602H106.803V134.124C106.803 134.917 106.956 135.49 107.262 135.841C107.568 136.192 108.01 136.368 108.588 136.368C109.246 136.368 109.733 136.175 110.05 135.79C110.368 135.393 110.526 134.798 110.526 134.005V129.602ZM117.002 138H115.081V125.352H117.155V130.826C117.427 130.35 117.824 129.987 118.345 129.738C118.866 129.477 119.45 129.347 120.096 129.347C120.901 129.347 121.586 129.54 122.153 129.925C122.731 130.299 123.173 130.826 123.479 131.506C123.796 132.186 123.955 132.974 123.955 133.869C123.955 134.719 123.791 135.473 123.462 136.13C123.133 136.787 122.669 137.303 122.068 137.677C121.467 138.04 120.765 138.221 119.96 138.221C119.337 138.221 118.77 138.085 118.26 137.813C117.761 137.541 117.387 137.167 117.138 136.691L117.002 138ZM117.172 133.767C117.172 134.266 117.268 134.713 117.461 135.11C117.654 135.495 117.926 135.796 118.277 136.011C118.64 136.215 119.059 136.317 119.535 136.317C120.022 136.317 120.442 136.209 120.793 135.994C121.144 135.779 121.411 135.478 121.592 135.093C121.773 134.708 121.864 134.266 121.864 133.767C121.864 133.268 121.773 132.826 121.592 132.441C121.411 132.056 121.144 131.755 120.793 131.54C120.442 131.313 120.022 131.2 119.535 131.2C119.059 131.2 118.64 131.313 118.277 131.54C117.926 131.755 117.654 132.056 117.461 132.441C117.268 132.815 117.172 133.257 117.172 133.767ZM133.093 127.528H130.373V125.573H135.167V138H133.093V127.528Z" fill="#989B99"/>
<path d="M308.63 247.204C307.417 247.204 306.363 246.943 305.468 246.422C304.584 245.889 303.893 245.147 303.394 244.195C302.907 243.232 302.663 242.098 302.663 240.795C302.663 239.503 302.912 238.375 303.411 237.412C303.921 236.449 304.635 235.701 305.553 235.168C306.471 234.635 307.531 234.369 308.732 234.369C309.718 234.369 310.602 234.55 311.384 234.913C312.166 235.276 312.812 235.786 313.322 236.443C313.832 237.089 314.155 237.86 314.291 238.755H311.996C311.781 238.03 311.378 237.469 310.789 237.072C310.211 236.664 309.503 236.46 308.664 236.46C307.916 236.46 307.259 236.636 306.692 236.987C306.137 237.338 305.706 237.837 305.4 238.483C305.094 239.129 304.941 239.9 304.941 240.795C304.941 241.656 305.094 242.416 305.4 243.073C305.706 243.719 306.137 244.223 306.692 244.586C307.259 244.937 307.916 245.113 308.664 245.113C309.514 245.113 310.239 244.909 310.84 244.501C311.452 244.093 311.86 243.543 312.064 242.852H314.325C314.166 243.713 313.821 244.473 313.288 245.13C312.767 245.787 312.104 246.297 311.299 246.66C310.506 247.023 309.616 247.204 308.63 247.204ZM318.317 247H316.26V234.352H318.317V247ZM326.526 238.602H328.6V247H326.679L326.526 245.878C326.277 246.275 325.903 246.598 325.404 246.847C324.906 247.096 324.373 247.221 323.806 247.221C322.843 247.221 322.089 246.915 321.545 246.303C321.001 245.691 320.729 244.875 320.729 243.855V238.602H322.803V243.124C322.803 243.917 322.956 244.49 323.262 244.841C323.568 245.192 324.01 245.368 324.588 245.368C325.246 245.368 325.733 245.175 326.05 244.79C326.368 244.393 326.526 243.798 326.526 243.005V238.602ZM333.002 247H331.081V234.352H333.155V239.826C333.427 239.35 333.824 238.987 334.345 238.738C334.866 238.477 335.45 238.347 336.096 238.347C336.901 238.347 337.586 238.54 338.153 238.925C338.731 239.299 339.173 239.826 339.479 240.506C339.796 241.186 339.955 241.974 339.955 242.869C339.955 243.719 339.791 244.473 339.462 245.13C339.133 245.787 338.669 246.303 338.068 246.677C337.467 247.04 336.765 247.221 335.96 247.221C335.337 247.221 334.77 247.085 334.26 246.813C333.761 246.541 333.387 246.167 333.138 245.691L333.002 247ZM333.172 242.767C333.172 243.266 333.268 243.713 333.461 244.11C333.654 244.495 333.926 244.796 334.277 245.011C334.64 245.215 335.059 245.317 335.535 245.317C336.022 245.317 336.442 245.209 336.793 244.994C337.144 244.779 337.411 244.478 337.592 244.093C337.773 243.708 337.864 243.266 337.864 242.767C337.864 242.268 337.773 241.826 337.592 241.441C337.411 241.056 337.144 240.755 336.793 240.54C336.442 240.313 336.022 240.2 335.535 240.2C335.059 240.2 334.64 240.313 334.277 240.54C333.926 240.755 333.654 241.056 333.461 241.441C333.268 241.815 333.172 242.257 333.172 242.767ZM355.196 246.983L346.577 247V245.368L350.64 241.934C351.059 241.583 351.41 241.26 351.694 240.965C351.988 240.67 352.221 240.393 352.391 240.132C352.561 239.871 352.685 239.611 352.765 239.35C352.844 239.089 352.884 238.806 352.884 238.5C352.884 237.797 352.702 237.253 352.34 236.868C351.977 236.483 351.467 236.29 350.81 236.29C350.13 236.29 349.591 236.517 349.195 236.97C348.798 237.423 348.594 238.047 348.583 238.84H346.424C346.435 237.933 346.622 237.146 346.985 236.477C347.347 235.797 347.857 235.276 348.515 234.913C349.172 234.539 349.937 234.352 350.81 234.352C351.694 234.352 352.453 234.516 353.088 234.845C353.734 235.162 354.232 235.621 354.584 236.222C354.935 236.823 355.111 237.542 355.111 238.381C355.111 238.812 355.048 239.225 354.924 239.622C354.81 240.007 354.635 240.387 354.397 240.761C354.159 241.124 353.864 241.492 353.513 241.866C353.161 242.24 352.748 242.631 352.272 243.039L349.246 245.623L348.464 244.96H355.196V246.983Z" fill="#989B99"/>
<path d="M92.63 339.204C91.4173 339.204 90.3633 338.943 89.468 338.422C88.584 337.889 87.8927 337.147 87.394 336.195C86.9067 335.232 86.663 334.098 86.663 332.795C86.663 331.503 86.9123 330.375 87.411 329.412C87.921 328.449 88.635 327.701 89.553 327.168C90.471 326.635 91.5307 326.369 92.732 326.369C93.718 326.369 94.602 326.55 95.384 326.913C96.166 327.276 96.812 327.786 97.322 328.443C97.832 329.089 98.155 329.86 98.291 330.755H95.996C95.7807 330.03 95.3783 329.469 94.789 329.072C94.211 328.664 93.5027 328.46 92.664 328.46C91.916 328.46 91.2587 328.636 90.692 328.987C90.1367 329.338 89.706 329.837 89.4 330.483C89.094 331.129 88.941 331.9 88.941 332.795C88.941 333.656 89.094 334.416 89.4 335.073C89.706 335.719 90.1367 336.223 90.692 336.586C91.2587 336.937 91.916 337.113 92.664 337.113C93.514 337.113 94.2393 336.909 94.84 336.501C95.452 336.093 95.86 335.543 96.064 334.852H98.325C98.1663 335.713 97.8207 336.473 97.288 337.13C96.7667 337.787 96.1037 338.297 95.299 338.66C94.5057 339.023 93.616 339.204 92.63 339.204ZM102.317 339H100.26V326.352H102.317V339ZM110.526 330.602H112.6V339H110.679L110.526 337.878C110.277 338.275 109.903 338.598 109.404 338.847C108.906 339.096 108.373 339.221 107.806 339.221C106.843 339.221 106.089 338.915 105.545 338.303C105.001 337.691 104.729 336.875 104.729 335.855V330.602H106.803V335.124C106.803 335.917 106.956 336.49 107.262 336.841C107.568 337.192 108.01 337.368 108.588 337.368C109.246 337.368 109.733 337.175 110.05 336.79C110.368 336.393 110.526 335.798 110.526 335.005V330.602ZM117.002 339H115.081V326.352H117.155V331.826C117.427 331.35 117.824 330.987 118.345 330.738C118.866 330.477 119.45 330.347 120.096 330.347C120.901 330.347 121.586 330.54 122.153 330.925C122.731 331.299 123.173 331.826 123.479 332.506C123.796 333.186 123.955 333.974 123.955 334.869C123.955 335.719 123.791 336.473 123.462 337.13C123.133 337.787 122.669 338.303 122.068 338.677C121.467 339.04 120.765 339.221 119.96 339.221C119.337 339.221 118.77 339.085 118.26 338.813C117.761 338.541 117.387 338.167 117.138 337.691L117.002 339ZM117.172 334.767C117.172 335.266 117.268 335.713 117.461 336.11C117.654 336.495 117.926 336.796 118.277 337.011C118.64 337.215 119.059 337.317 119.535 337.317C120.022 337.317 120.442 337.209 120.793 336.994C121.144 336.779 121.411 336.478 121.592 336.093C121.773 335.708 121.864 335.266 121.864 334.767C121.864 334.268 121.773 333.826 121.592 333.441C121.411 333.056 121.144 332.755 120.793 332.54C120.442 332.313 120.022 332.2 119.535 332.2C119.059 332.2 118.64 332.313 118.277 332.54C117.926 332.755 117.654 333.056 117.461 333.441C117.268 333.815 117.172 334.257 117.172 334.767ZM138.601 328.307L134.113 332.438L132.685 331.435L137.037 327.44L136.663 328.494H130.713V326.573H138.601V328.307ZM134.198 332.846H132.685V331.435C132.9 331.265 133.183 331.152 133.535 331.095C133.886 331.027 134.215 330.993 134.521 330.993C135.11 330.993 135.671 331.084 136.204 331.265C136.736 331.446 137.207 331.713 137.615 332.064C138.034 332.404 138.363 332.829 138.601 333.339C138.839 333.838 138.958 334.41 138.958 335.056C138.958 335.906 138.759 336.643 138.363 337.266C137.966 337.889 137.422 338.371 136.731 338.711C136.051 339.051 135.291 339.221 134.453 339.221C133.637 339.221 132.9 339.062 132.243 338.745C131.597 338.416 131.081 337.94 130.696 337.317C130.322 336.694 130.135 335.934 130.135 335.039H132.277C132.277 335.753 132.475 336.308 132.872 336.705C133.28 337.09 133.818 337.283 134.487 337.283C135.167 337.283 135.711 337.079 136.119 336.671C136.538 336.252 136.748 335.702 136.748 335.022C136.748 334.399 136.538 333.883 136.119 333.475C135.699 333.056 135.059 332.846 134.198 332.846Z" fill="#989B99"/>
</svg>
