<svg width="360" height="185" viewBox="0 0 360 185" fill="none" xmlns="http://www.w3.org/2000/svg">
<path d="M0 10C0 4.47716 4.47715 0 10 0H350C355.523 0 360 4.47715 360 10V185H0V10Z" fill="black"/>
<g clip-path="url(#clip0_1521_1026)">
<path d="M281.156 123.374C284.034 123.374 286.795 124.517 288.83 126.553C290.865 128.588 292.009 131.348 292.009 134.227C292.009 131.348 293.152 128.588 295.188 126.553C297.223 124.517 299.983 123.374 302.862 123.374C299.983 123.374 297.223 122.23 295.188 120.195C293.152 118.16 292.009 115.399 292.009 112.521C292.009 115.399 290.865 118.16 288.83 120.195C286.795 122.23 284.034 123.374 281.156 123.374ZM281.156 58.255C284.034 58.255 286.795 59.3984 288.83 61.4338C290.865 63.4691 292.009 66.2297 292.009 69.1081C292.009 66.2297 293.152 63.4691 295.188 61.4338C297.223 59.3984 299.983 58.255 302.862 58.255C299.983 58.255 297.223 57.1115 295.188 55.0762C293.152 53.0408 292.009 50.2803 292.009 47.4019C292.009 50.2803 290.865 53.0408 288.83 55.0762C286.795 57.1115 284.034 58.255 281.156 58.255ZM243.17 123.374C243.17 114.738 246.6 106.457 252.706 100.351C258.812 94.2447 267.094 90.8144 275.729 90.8144C267.094 90.8144 258.812 87.384 252.706 81.2779C246.6 75.1719 243.17 66.8903 243.17 58.255C243.17 66.8903 239.739 75.1719 233.633 81.2779C227.527 87.384 219.246 90.8144 210.61 90.8144C219.246 90.8144 227.527 94.2447 233.633 100.351C239.739 106.457 243.17 114.738 243.17 123.374Z" stroke="url(#paint0_linear_1521_1026)" stroke-width="3" stroke-linecap="round" stroke-linejoin="round"/>
</g>
<g clip-path="url(#clip1_1521_1026)">
<path d="M36.25 65.9165C36.25 61.6067 37.962 57.4735 41.0095 54.426C44.057 51.3786 48.1902 49.6665 52.5 49.6665H117.5C121.81 49.6665 125.943 51.3786 128.99 54.426C132.038 57.4735 133.75 61.6067 133.75 65.9165V76.7498C133.75 81.0596 132.038 85.1929 128.99 88.2403C125.943 91.2878 121.81 92.9998 117.5 92.9998H52.5C48.1902 92.9998 44.057 91.2878 41.0095 88.2403C37.962 85.1929 36.25 81.0596 36.25 76.7498V65.9165Z" stroke="#4EF162" stroke-width="2" stroke-linecap="round" stroke-linejoin="round"/>
<path d="M101.25 136.333H52.5C48.1902 136.333 44.057 134.621 41.0095 131.574C37.962 128.526 36.25 124.393 36.25 120.083V109.25C36.25 104.94 37.962 100.807 41.0095 97.7595C44.057 94.712 48.1902 93 52.5 93H117.5" stroke="#4EF162" stroke-width="2" stroke-linecap="round" stroke-linejoin="round"/>
<path d="M57.9167 71.3335V71.3904" stroke="#4EF162" stroke-width="2" stroke-linecap="round" stroke-linejoin="round"/>
<path d="M57.9167 114.667V114.723" stroke="#4EF162" stroke-width="2" stroke-linecap="round" stroke-linejoin="round"/>
<path d="M128.333 109.25L117.5 125.5H133.75L122.917 141.75" stroke="#4EF162" stroke-width="2" stroke-linecap="round" stroke-linejoin="round"/>
</g>
<rect x="18.5" y="26.5" width="133" height="133" stroke="black" stroke-width="3"/>
<path d="M177.8 82.52V102.56H174.6V82.52H177.8ZM166.2 90.92H186.2V94.12H166.2V90.92Z" fill="#F7B84E"/>
<defs>
<linearGradient id="paint0_linear_1521_1026" x1="256.736" y1="47.4019" x2="256.736" y2="134.227" gradientUnits="userSpaceOnUse">
<stop stop-color="#0DFF2B"/>
<stop offset="1" stop-color="#028A10"/>
</linearGradient>
<clipPath id="clip0_1521_1026">
<rect width="115" height="115" fill="white" transform="translate(203 35)"/>
</clipPath>
<clipPath id="clip1_1521_1026">
<rect x="20" y="28" width="130" height="130" fill="white"/>
</clipPath>
</defs>
</svg>
