<svg width="451" height="444" viewBox="0 0 451 444" fill="none" xmlns="http://www.w3.org/2000/svg">
<path d="M0 24.2018C0 10.8355 10.8355 0 24.2018 0H426.715C440.082 0 450.917 10.8355 450.917 24.2018V443.143H0V24.2018Z" fill="#16171B"/>
<path d="M33.4602 45.2082C33.4602 43.9078 33.7954 42.7599 34.4659 41.7643C35.1364 40.7687 36.0609 39.9966 37.2393 39.4481C38.4381 38.8792 39.8197 38.5947 41.3842 38.5947C42.8877 38.5947 44.1881 38.8588 45.2852 39.3871C46.4027 39.9154 47.2662 40.6671 47.8758 41.6424C48.5056 42.6177 48.8409 43.7758 48.8815 45.1168H44.9805C44.9398 44.1618 44.5944 43.4202 43.9442 42.8919C43.2941 42.3434 42.4204 42.0691 41.3232 42.0691C40.1245 42.0691 39.1594 42.3434 38.4279 42.8919C37.7168 43.4202 37.3612 44.1517 37.3612 45.0863C37.3612 45.8787 37.5746 46.5085 38.0012 46.9759C38.4482 47.4228 39.139 47.7581 40.0737 47.9816L43.5785 48.774C45.4884 49.1804 46.9107 49.8813 47.8453 50.8769C48.7799 51.8522 49.2472 53.1728 49.2472 54.8389C49.2472 56.2002 48.912 57.399 48.2415 58.4352C47.571 59.4714 46.616 60.274 45.3767 60.8429C44.1576 61.3914 42.7252 61.6657 41.0794 61.6657C39.5149 61.6657 38.1435 61.4016 36.965 60.8733C35.7866 60.3247 34.8621 59.5628 34.1916 58.5876C33.5414 57.6123 33.196 56.4643 33.1554 55.1437H37.0565C37.0768 56.0783 37.4425 56.8199 38.1536 57.3685C38.8851 57.8968 39.8705 58.1609 41.1099 58.1609C42.4102 58.1609 43.4363 57.8968 44.1881 57.3685C44.9601 56.8199 45.3462 56.0986 45.3462 55.2046C45.3462 54.4325 45.143 53.823 44.7366 53.376C44.3303 52.9087 43.6699 52.5836 42.7556 52.4007L39.2203 51.6083C37.3307 51.202 35.8983 50.4705 34.9231 49.414C33.9478 48.3372 33.4602 46.9352 33.4602 45.2082ZM59.3018 61.6657C57.8186 61.6657 56.4979 61.3305 55.3398 60.66C54.202 59.9692 53.308 59.0346 52.6578 57.8561C52.0077 56.6574 51.6826 55.2859 51.6826 53.7417C51.6826 52.1772 51.9975 50.7956 52.6274 49.5969C53.2572 48.3981 54.141 47.4635 55.2788 46.793C56.4167 46.1022 57.717 45.7568 59.1799 45.7568C60.7037 45.7568 62.0142 46.0819 63.1114 46.732C64.2086 47.3619 65.0518 48.2457 65.641 49.3835C66.2505 50.5213 66.5553 51.8826 66.5553 53.4674V54.5951L53.6331 54.6256L53.694 52.2484H62.8676C62.8676 51.2121 62.5324 50.3791 61.8619 49.7493C61.2117 49.1194 60.3279 48.8045 59.2104 48.8045C58.3367 48.8045 57.5951 48.9873 56.9856 49.3531C56.3963 49.7188 55.9493 50.2674 55.6446 50.9988C55.3398 51.7303 55.1874 52.6242 55.1874 53.6808C55.1874 55.3062 55.5328 56.5354 56.2236 57.3685C56.9348 58.2015 57.9811 58.618 59.3628 58.618C60.3787 58.618 61.2117 58.425 61.8619 58.039C62.5324 57.6529 62.9692 57.1044 63.1724 56.3932H66.6163C66.2912 58.039 65.4785 59.3292 64.1781 60.2638C62.8981 61.1984 61.2726 61.6657 59.3018 61.6657ZM74.201 61.6657C72.6162 61.6657 71.3565 61.2391 70.4219 60.3857C69.5076 59.512 69.0504 58.3742 69.0504 56.9723C69.0504 55.5907 69.5279 54.4935 70.4828 53.6808C71.4581 52.8477 72.8397 52.3601 74.6277 52.2179L79.1383 51.8522V51.5169C79.1383 50.8261 79.0062 50.2775 78.7421 49.8712C78.4983 49.4445 78.1427 49.1397 77.6754 48.9569C77.2081 48.7537 76.6595 48.6521 76.0296 48.6521C74.9325 48.6521 74.0893 48.8756 73.5001 49.3226C72.9108 49.7493 72.6162 50.3588 72.6162 51.1512H69.4466C69.4466 50.054 69.7209 49.1092 70.2695 48.3168C70.8384 47.5041 71.6308 46.8743 72.6467 46.4273C73.6829 45.9803 74.8715 45.7568 76.2125 45.7568C77.5738 45.7568 78.7421 46.0006 79.7173 46.4882C80.6926 46.9555 81.4444 47.6667 81.9726 48.6216C82.5009 49.5562 82.765 50.7245 82.765 52.1265V61.2695H79.504L79.2297 59.0447C78.9046 59.8168 78.2748 60.4467 77.3401 60.9343C76.4258 61.4219 75.3795 61.6657 74.201 61.6657ZM75.3896 58.8619C76.5477 58.8619 77.4621 58.5368 78.1325 57.8866C78.8234 57.2364 79.1688 56.3323 79.1688 55.1741V54.3817L76.0296 54.6256C74.8715 54.7272 74.0486 54.971 73.561 55.357C73.0734 55.7227 72.8296 56.2104 72.8296 56.8199C72.8296 57.4904 73.0531 57.9983 73.5001 58.3437C73.947 58.6892 74.5769 58.8619 75.3896 58.8619ZM90.4746 61.2695H86.7564V46.2139H90.1698L90.6269 48.8959L90.2003 48.5302C90.505 47.7987 91.0638 47.1587 91.8765 46.6101C92.6892 46.0412 93.7051 45.7568 94.9242 45.7568C96.2449 45.7568 97.3217 46.1022 98.1547 46.793C99.0081 47.4838 99.5973 48.3981 99.9224 49.5359H99.3129C99.5364 48.3981 100.105 47.4838 101.02 46.793C101.954 46.1022 103.082 45.7568 104.403 45.7568C106.231 45.7568 107.633 46.2749 108.608 47.3111C109.584 48.327 110.071 49.6985 110.071 51.4255V61.2695H106.384V52.4007C106.384 51.3239 106.109 50.5112 105.561 49.9626C105.032 49.3937 104.321 49.1092 103.427 49.1092C102.858 49.1092 102.33 49.2413 101.842 49.5054C101.375 49.7696 100.999 50.1658 100.715 50.694C100.43 51.2223 100.288 51.903 100.288 52.736V61.2695H96.5699V52.3703C96.5699 51.3137 96.3058 50.5112 95.7775 49.9626C95.2493 49.414 94.5483 49.1397 93.6746 49.1397C93.0854 49.1397 92.547 49.2718 92.0594 49.5359C91.5717 49.7797 91.1857 50.1759 90.9012 50.7245C90.6168 51.2528 90.4746 51.9233 90.4746 52.736V61.2695ZM117.809 61.2695H114.121V38.5947H117.809V61.2695ZM128.783 61.6657C127.3 61.6657 125.979 61.3305 124.821 60.66C123.683 59.9692 122.789 59.0346 122.139 57.8561C121.489 56.6574 121.164 55.2859 121.164 53.7417C121.164 52.1772 121.479 50.7956 122.109 49.5969C122.738 48.3981 123.622 47.4635 124.76 46.793C125.898 46.1022 127.198 45.7568 128.661 45.7568C130.185 45.7568 131.495 46.0819 132.593 46.732C133.69 47.3619 134.533 48.2457 135.122 49.3835C135.732 50.5213 136.036 51.8826 136.036 53.4674V54.5951L123.114 54.6256L123.175 52.2484H132.349C132.349 51.2121 132.014 50.3791 131.343 49.7493C130.693 49.1194 129.809 48.8045 128.692 48.8045C127.818 48.8045 127.076 48.9873 126.467 49.3531C125.878 49.7188 125.431 50.2674 125.126 50.9988C124.821 51.7303 124.669 52.6242 124.669 53.6808C124.669 55.3062 125.014 56.5354 125.705 57.3685C126.416 58.2015 127.462 58.618 128.844 58.618C129.86 58.618 130.693 58.425 131.343 58.039C132.014 57.6529 132.45 57.1044 132.654 56.3932H136.097C135.772 58.039 134.96 59.3292 133.659 60.2638C132.379 61.1984 130.754 61.6657 128.783 61.6657ZM138.193 56.698H141.728C141.748 57.3482 141.992 57.8663 142.46 58.2523C142.927 58.6384 143.577 58.8314 144.41 58.8314C145.304 58.8314 145.975 58.6688 146.422 58.3437C146.889 58.0187 147.123 57.5818 147.123 57.0332C147.123 56.6675 147.001 56.3424 146.757 56.058C146.513 55.7735 146.056 55.5602 145.385 55.418L142.673 54.7779C141.312 54.4732 140.296 53.9855 139.625 53.3151C138.975 52.6242 138.65 51.6795 138.65 50.4807C138.65 49.5054 138.904 48.6622 139.412 47.9511C139.94 47.24 140.651 46.7016 141.545 46.3358C142.439 45.9498 143.465 45.7568 144.623 45.7568C145.741 45.7568 146.726 45.96 147.58 46.3663C148.433 46.7727 149.093 47.3416 149.561 48.073C150.048 48.8045 150.302 49.6578 150.323 50.6331H146.787C146.787 49.9829 146.584 49.475 146.178 49.1092C145.771 48.7232 145.202 48.5302 144.471 48.5302C143.74 48.5302 143.171 48.6927 142.764 49.0178C142.358 49.3429 142.155 49.7797 142.155 50.3283C142.155 51.1614 142.805 51.7303 144.105 52.035L146.818 52.675C148.077 52.9595 149.022 53.4166 149.652 54.0465C150.302 54.6764 150.627 55.5703 150.627 56.7285C150.627 57.7444 150.363 58.6282 149.835 59.38C149.307 60.1114 148.565 60.6803 147.61 61.0867C146.655 61.4727 145.558 61.6657 144.319 61.6657C142.449 61.6657 140.956 61.2086 139.839 60.2943C138.741 59.38 138.193 58.1812 138.193 56.698ZM152.639 56.698H156.174C156.195 57.3482 156.438 57.8663 156.906 58.2523C157.373 58.6384 158.023 58.8314 158.856 58.8314C159.75 58.8314 160.421 58.6688 160.868 58.3437C161.335 58.0187 161.569 57.5818 161.569 57.0332C161.569 56.6675 161.447 56.3424 161.203 56.058C160.959 55.7735 160.502 55.5602 159.831 55.418L157.119 54.7779C155.758 54.4732 154.742 53.9855 154.071 53.3151C153.421 52.6242 153.096 51.6795 153.096 50.4807C153.096 49.5054 153.35 48.6622 153.858 47.9511C154.386 47.24 155.097 46.7016 155.991 46.3358C156.885 45.9498 157.911 45.7568 159.07 45.7568C160.187 45.7568 161.172 45.96 162.026 46.3663C162.879 46.7727 163.539 47.3416 164.007 48.073C164.494 48.8045 164.748 49.6578 164.769 50.6331H161.233C161.233 49.9829 161.03 49.475 160.624 49.1092C160.217 48.7232 159.649 48.5302 158.917 48.5302C158.186 48.5302 157.617 48.6927 157.21 49.0178C156.804 49.3429 156.601 49.7797 156.601 50.3283C156.601 51.1614 157.251 51.7303 158.551 52.035L161.264 52.675C162.524 52.9595 163.468 53.4166 164.098 54.0465C164.748 54.6764 165.073 55.5703 165.073 56.7285C165.073 57.7444 164.809 58.6282 164.281 59.38C163.753 60.1114 163.011 60.6803 162.056 61.0867C161.101 61.4727 160.004 61.6657 158.765 61.6657C156.895 61.6657 155.402 61.2086 154.285 60.2943C153.187 59.38 152.639 58.1812 152.639 56.698ZM185.36 61.2695H177.345V38.9909H185.147C187.341 38.9909 189.271 39.4684 190.938 40.4233C192.604 41.3579 193.904 42.6684 194.839 44.3548C195.794 46.0209 196.271 47.9613 196.271 50.1759C196.271 52.35 195.804 54.2802 194.869 55.9665C193.955 57.6326 192.675 58.933 191.029 59.8676C189.404 60.8022 187.514 61.2695 185.36 61.2695ZM181.246 40.789V59.5019L179.387 57.6733H184.995C186.478 57.6733 187.758 57.3685 188.835 56.7589C189.911 56.1494 190.734 55.2859 191.303 54.1684C191.872 53.0509 192.157 51.7201 192.157 50.1759C192.157 48.5911 191.862 47.24 191.273 46.1225C190.684 44.9847 189.84 44.111 188.743 43.5015C187.646 42.8919 186.325 42.5872 184.781 42.5872H179.387L181.246 40.789ZM204.175 61.6657C202.59 61.6657 201.331 61.2391 200.396 60.3857C199.482 59.512 199.024 58.3742 199.024 56.9723C199.024 55.5907 199.502 54.4935 200.457 53.6808C201.432 52.8477 202.814 52.3601 204.602 52.2179L209.112 51.8522V51.5169C209.112 50.8261 208.98 50.2775 208.716 49.8712C208.472 49.4445 208.117 49.1397 207.649 48.9569C207.182 48.7537 206.634 48.6521 206.004 48.6521C204.906 48.6521 204.063 48.8756 203.474 49.3226C202.885 49.7493 202.59 50.3588 202.59 51.1512H199.421C199.421 50.054 199.695 49.1092 200.244 48.3168C200.812 47.5041 201.605 46.8743 202.621 46.4273C203.657 45.9803 204.846 45.7568 206.187 45.7568C207.548 45.7568 208.716 46.0006 209.691 46.4882C210.667 46.9555 211.418 47.6667 211.947 48.6216C212.475 49.5562 212.739 50.7245 212.739 52.1265V61.2695H209.478L209.204 59.0447C208.879 59.8168 208.249 60.4467 207.314 60.9343C206.4 61.4219 205.353 61.6657 204.175 61.6657ZM205.364 58.8619C206.522 58.8619 207.436 58.5368 208.107 57.8866C208.797 57.2364 209.143 56.3323 209.143 55.1741V54.3817L206.004 54.6256C204.846 54.7272 204.023 54.971 203.535 55.357C203.047 55.7227 202.804 56.2104 202.804 56.8199C202.804 57.4904 203.027 57.9983 203.474 58.3437C203.921 58.6892 204.551 58.8619 205.364 58.8619ZM215.029 46.2139H224.537V49.3226H215.029V46.2139ZM221.642 61.2695H217.924V41.5205H221.642V61.2695ZM231.609 61.6657C230.024 61.6657 228.764 61.2391 227.83 60.3857C226.915 59.512 226.458 58.3742 226.458 56.9723C226.458 55.5907 226.936 54.4935 227.891 53.6808C228.866 52.8477 230.248 52.3601 232.036 52.2179L236.546 51.8522V51.5169C236.546 50.8261 236.414 50.2775 236.15 49.8712C235.906 49.4445 235.551 49.1397 235.083 48.9569C234.616 48.7537 234.067 48.6521 233.438 48.6521C232.34 48.6521 231.497 48.8756 230.908 49.3226C230.319 49.7493 230.024 50.3588 230.024 51.1512H226.855C226.855 50.054 227.129 49.1092 227.677 48.3168C228.246 47.5041 229.039 46.8743 230.055 46.4273C231.091 45.9803 232.279 45.7568 233.62 45.7568C234.982 45.7568 236.15 46.0006 237.125 46.4882C238.1 46.9555 238.852 47.6667 239.381 48.6216C239.909 49.5562 240.173 50.7245 240.173 52.1265V61.2695H236.912L236.638 59.0447C236.313 59.8168 235.683 60.4467 234.748 60.9343C233.834 61.4219 232.787 61.6657 231.609 61.6657ZM232.798 58.8619C233.956 58.8619 234.87 58.5368 235.54 57.8866C236.231 57.2364 236.577 56.3323 236.577 55.1741V54.3817L233.438 54.6256C232.279 54.7272 231.457 54.971 230.969 55.357C230.481 55.7227 230.237 56.2104 230.237 56.8199C230.237 57.4904 230.461 57.9983 230.908 58.3437C231.355 58.6892 231.985 58.8619 232.798 58.8619ZM267.102 61.2695H253.266V38.9909H267.102V42.5872H255.796L257.167 41.3376V48.3168H266.066V51.7607H257.167V58.9228L255.796 57.6733H267.102V61.2695ZM273.713 61.2695H269.477L274.658 53.8941L269.477 46.2139H273.805L277.127 51.3341L280.327 46.2139H284.502L279.382 53.8636L284.35 61.2695H280.083L276.852 56.3018L273.713 61.2695ZM287.056 68.2487V46.2139H290.5L290.744 48.4997C291.191 47.626 291.882 46.9555 292.816 46.4882C293.751 46.0006 294.777 45.7568 295.894 45.7568C297.337 45.7568 298.576 46.0819 299.613 46.732C300.669 47.3822 301.492 48.2864 302.081 49.4445C302.671 50.6026 302.965 51.9741 302.965 53.5589C302.965 55.1234 302.691 56.5151 302.142 57.7342C301.594 58.9533 300.791 59.9184 299.735 60.6295C298.698 61.3203 297.428 61.6657 295.925 61.6657C294.807 61.6657 293.781 61.4524 292.847 61.0257C291.932 60.599 291.242 60.0098 290.774 59.2581V68.2487H287.056ZM290.805 53.7417C290.805 54.6357 290.978 55.4281 291.323 56.1189C291.668 56.8097 292.156 57.3583 292.786 57.7647C293.436 58.1507 294.188 58.3437 295.041 58.3437C295.915 58.3437 296.667 58.1507 297.296 57.7647C297.926 57.3583 298.404 56.8097 298.729 56.1189C299.054 55.4281 299.216 54.6357 299.216 53.7417C299.216 52.8477 299.054 52.0553 298.729 51.3645C298.404 50.6737 297.926 50.1353 297.296 49.7493C296.667 49.3429 295.915 49.1397 295.041 49.1397C294.188 49.1397 293.436 49.3327 292.786 49.7188C292.156 50.1048 291.668 50.6432 291.323 51.3341C290.978 52.0249 290.805 52.8274 290.805 53.7417ZM310.013 61.2695H306.325V38.5947H310.013V61.2695ZM313.368 53.7113C313.368 52.1468 313.713 50.7753 314.404 49.5969C315.095 48.3981 316.05 47.4635 317.269 46.793C318.488 46.1225 319.87 45.7873 321.414 45.7873C322.978 45.7873 324.36 46.1225 325.559 46.793C326.778 47.4635 327.733 48.3981 328.424 49.5969C329.115 50.7753 329.46 52.1468 329.46 53.7113C329.46 55.2757 329.115 56.6574 328.424 57.8561C327.733 59.0346 326.778 59.959 325.559 60.6295C324.36 61.3 322.978 61.6353 321.414 61.6353C319.87 61.6353 318.488 61.3 317.269 60.6295C316.05 59.959 315.095 59.0346 314.404 57.8561C313.713 56.6574 313.368 55.2757 313.368 53.7113ZM317.086 53.7113C317.086 54.6256 317.269 55.4281 317.635 56.1189C318.021 56.8097 318.529 57.3482 319.159 57.7342C319.809 58.1202 320.561 58.3133 321.414 58.3133C322.267 58.3133 323.019 58.1202 323.669 57.7342C324.319 57.3482 324.827 56.8097 325.193 56.1189C325.559 55.4281 325.742 54.6256 325.742 53.7113C325.742 52.7766 325.559 51.9741 325.193 51.3036C324.827 50.6128 324.319 50.0743 323.669 49.6883C323.019 49.3023 322.267 49.1092 321.414 49.1092C320.561 49.1092 319.809 49.3023 319.159 49.6883C318.529 50.0743 318.021 50.6128 317.635 51.3036C317.269 51.9741 317.086 52.7766 317.086 53.7113ZM342.194 46.153V49.5969H340.822C339.461 49.5969 338.394 49.9626 337.622 50.694C336.85 51.4052 336.464 52.4922 336.464 53.9551V61.2695H332.746V46.2444H336.251L336.555 49.3531H336.19C336.393 48.3575 336.87 47.5448 337.622 46.9149C338.374 46.285 339.349 45.9701 340.548 45.9701C340.812 45.9701 341.076 45.9803 341.34 46.0006C341.604 46.0209 341.889 46.0717 342.194 46.153ZM348.934 61.6657C347.349 61.6657 346.089 61.2391 345.155 60.3857C344.24 59.512 343.783 58.3742 343.783 56.9723C343.783 55.5907 344.261 54.4935 345.216 53.6808C346.191 52.8477 347.573 52.3601 349.36 52.2179L353.871 51.8522V51.5169C353.871 50.8261 353.739 50.2775 353.475 49.8712C353.231 49.4445 352.875 49.1397 352.408 48.9569C351.941 48.7537 351.392 48.6521 350.762 48.6521C349.665 48.6521 348.822 48.8756 348.233 49.3226C347.644 49.7493 347.349 50.3588 347.349 51.1512H344.179C344.179 50.054 344.454 49.1092 345.002 48.3168C345.571 47.5041 346.364 46.8743 347.379 46.4273C348.416 45.9803 349.604 45.7568 350.945 45.7568C352.307 45.7568 353.475 46.0006 354.45 46.4882C355.425 46.9555 356.177 47.6667 356.705 48.6216C357.234 49.5562 357.498 50.7245 357.498 52.1265V61.2695H354.237L353.963 59.0447C353.637 59.8168 353.008 60.4467 352.073 60.9343C351.159 61.4219 350.112 61.6657 348.934 61.6657ZM350.122 58.8619C351.281 58.8619 352.195 58.5368 352.865 57.8866C353.556 57.2364 353.902 56.3323 353.902 55.1741V54.3817L350.762 54.6256C349.604 54.7272 348.781 54.971 348.294 55.357C347.806 55.7227 347.562 56.2104 347.562 56.8199C347.562 57.4904 347.786 57.9983 348.233 58.3437C348.68 58.6892 349.31 58.8619 350.122 58.8619ZM359.787 46.2139H369.296V49.3226H359.787V46.2139ZM366.401 61.2695H362.683V41.5205H366.401V61.2695ZM371.977 61.2695V46.2139H375.695V61.2695H371.977ZM373.805 43.1967C373.176 43.1967 372.637 42.9834 372.19 42.5567C371.764 42.1097 371.55 41.5713 371.55 40.9414C371.55 40.3116 371.764 39.7833 372.19 39.3566C372.637 38.9299 373.176 38.7166 373.805 38.7166C374.435 38.7166 374.964 38.9299 375.39 39.3566C375.837 39.7833 376.061 40.3116 376.061 40.9414C376.061 41.5713 375.837 42.1097 375.39 42.5567C374.964 42.9834 374.435 43.1967 373.805 43.1967ZM378.991 53.7113C378.991 52.1468 379.337 50.7753 380.028 49.5969C380.718 48.3981 381.673 47.4635 382.892 46.793C384.111 46.1225 385.493 45.7873 387.037 45.7873C388.602 45.7873 389.983 46.1225 391.182 46.793C392.401 47.4635 393.356 48.3981 394.047 49.5969C394.738 50.7753 395.083 52.1468 395.083 53.7113C395.083 55.2757 394.738 56.6574 394.047 57.8561C393.356 59.0346 392.401 59.959 391.182 60.6295C389.983 61.3 388.602 61.6353 387.037 61.6353C385.493 61.6353 384.111 61.3 382.892 60.6295C381.673 59.959 380.718 59.0346 380.028 57.8561C379.337 56.6574 378.991 55.2757 378.991 53.7113ZM382.71 53.7113C382.71 54.6256 382.892 55.4281 383.258 56.1189C383.644 56.8097 384.152 57.3482 384.782 57.7342C385.432 58.1202 386.184 58.3133 387.037 58.3133C387.891 58.3133 388.642 58.1202 389.293 57.7342C389.943 57.3482 390.451 56.8097 390.816 56.1189C391.182 55.4281 391.365 54.6256 391.365 53.7113C391.365 52.7766 391.182 51.9741 390.816 51.3036C390.451 50.6128 389.943 50.0743 389.293 49.6883C388.642 49.3023 387.891 49.1092 387.037 49.1092C386.184 49.1092 385.432 49.3023 384.782 49.6883C384.152 50.0743 383.644 50.6128 383.258 51.3036C382.892 51.9741 382.71 52.7766 382.71 53.7113ZM402.087 61.2695H398.369V46.2139H401.813L402.118 48.1645C402.585 47.4127 403.245 46.8235 404.099 46.3968C404.972 45.9701 405.917 45.7568 406.933 45.7568C408.823 45.7568 410.245 46.3155 411.2 47.433C412.175 48.5505 412.663 50.0743 412.663 52.0045V61.2695H408.945V52.8884C408.945 51.6287 408.66 50.694 408.091 50.0845C407.522 49.4546 406.75 49.1397 405.775 49.1397C404.617 49.1397 403.713 49.5054 403.062 50.2369C402.412 50.9683 402.087 51.9436 402.087 53.1627V61.2695Z" fill="white"/>
<g clip-path="url(#clip0_1107_26161)">
<g clip-path="url(#clip1_1107_26161)">
<path d="M250.515 177.91C253.443 177.91 256.252 179.073 258.322 181.144C260.393 183.215 261.557 186.023 261.557 188.952C261.557 186.023 262.72 183.215 264.791 181.144C266.861 179.073 269.67 177.91 272.598 177.91C269.67 177.91 266.861 176.746 264.791 174.676C262.72 172.605 261.557 169.796 261.557 166.868C261.557 169.796 260.393 172.605 258.322 174.676C256.252 176.746 253.443 177.91 250.515 177.91ZM250.515 111.659C253.443 111.659 256.252 112.822 258.322 114.893C260.393 116.963 261.557 119.772 261.557 122.7C261.557 119.772 262.72 116.963 264.791 114.893C266.861 112.822 269.67 111.659 272.598 111.659C269.67 111.659 266.861 110.495 264.791 108.424C262.72 106.354 261.557 103.545 261.557 100.617C261.557 103.545 260.393 106.354 258.322 108.424C256.252 110.495 253.443 111.659 250.515 111.659ZM211.868 177.91C211.868 169.124 215.358 160.699 221.57 154.486C227.783 148.274 236.208 144.784 244.994 144.784C236.208 144.784 227.783 141.294 221.57 135.082C215.358 128.87 211.868 120.444 211.868 111.659C211.868 120.444 208.378 128.87 202.166 135.082C195.954 141.294 187.528 144.784 178.742 144.784C187.528 144.784 195.954 148.274 202.166 154.486C208.378 160.699 211.868 169.124 211.868 177.91Z" stroke="url(#paint0_linear_1107_26161)" stroke-width="6" stroke-linecap="round" stroke-linejoin="round"/>
</g>
<rect x="36" y="285" width="30" height="153" rx="4" fill="#08C41E"/>
<rect x="132" y="219" width="30" height="219" rx="4" fill="#08C41E"/>
<rect x="84" y="251" width="30" height="187" rx="4" fill="#08C41E"/>
<rect x="178" y="353" width="30" height="85" rx="4" fill="#08C41E"/>
<rect x="240" y="236" width="175" height="24" rx="4" fill="#D9D9D9"/>
<rect x="240" y="343" width="175" height="9" rx="4" fill="#D9D9D9"/>
<rect x="240" y="274" width="134" height="9" rx="4" fill="#D9D9D9"/>
<rect x="240" y="366" width="134" height="9" rx="4" fill="#D9D9D9"/>
<rect x="240" y="297" width="162" height="9" rx="4" fill="#D9D9D9"/>
<rect x="240" y="389" width="162" height="9" rx="4" fill="#D9D9D9"/>
<rect x="240" y="320" width="113" height="9" rx="4" fill="#D9D9D9"/>
<rect x="240" y="412" width="113" height="9" rx="4" fill="#D9D9D9"/>
</g>
<defs>
<linearGradient id="paint0_linear_1107_26161" x1="225.67" y1="100.617" x2="225.67" y2="188.952" gradientUnits="userSpaceOnUse">
<stop stop-color="#0DFF2B"/>
<stop offset="1" stop-color="#028A10"/>
</linearGradient>
<clipPath id="clip0_1107_26161">
<rect width="402.975" height="349.849" fill="white" transform="translate(27.2109 88.1094)"/>
</clipPath>
<clipPath id="clip1_1107_26161">
<rect width="117" height="117" fill="white" transform="translate(171 88)"/>
</clipPath>
</defs>
</svg>
