<svg width="450" height="443" viewBox="0 0 450 443" fill="none" xmlns="http://www.w3.org/2000/svg">
<path d="M0 24.2018C0 10.8355 10.8355 0 24.2018 0H425.798C439.164 0 450 10.8355 450 24.2018V443H0V24.2018Z" fill="#16171B"/>
<path d="M32 89.9574C32 82.8012 37.8012 77 44.9574 77H400.043C407.199 77 413 82.8012 413 89.9574V443H32V89.9574Z" fill="black"/>
<circle cx="60" cy="105" r="18" fill="#4EF162"/>
<circle cx="389.5" cy="322.5" r="9.5" fill="#4EF162"/>
<rect x="49" y="156" width="193" height="20" rx="5" fill="#1B702C"/>
<rect x="49" y="186" width="144" height="20" rx="5" fill="#1B702C"/>
<rect x="49" y="352" width="144" height="20" rx="5" fill="#1B702C"/>
<rect x="49" y="392" width="350" height="36" rx="5" fill="#16171B"/>
<rect x="179" y="229" width="193" height="43" rx="5" fill="#1B702C"/>
<rect x="222" y="282" width="150" height="20" rx="5" fill="#1B702C"/>
<rect x="160" y="312" width="212" height="20" rx="5" fill="#1B702C"/>
<rect x="188" y="241" width="85" height="22" rx="4" fill="black"/>
<rect x="278" y="241" width="85" height="22" rx="4" fill="black"/>
<path d="M380.647 402.353C380.51 402.214 380.339 402.115 380.15 402.066C379.962 402.017 379.764 402.019 379.577 402.073H379.568L364.574 406.623C364.361 406.684 364.172 406.809 364.031 406.981C363.891 407.153 363.806 407.363 363.788 407.584C363.77 407.805 363.819 408.026 363.93 408.218C364.04 408.41 364.206 408.565 364.406 408.66L371.091 411.913L374.338 418.594C374.425 418.781 374.564 418.939 374.739 419.05C374.914 419.161 375.116 419.219 375.323 419.219C375.354 419.219 375.386 419.219 375.417 419.215C375.639 419.197 375.85 419.112 376.021 418.972C376.193 418.831 376.317 418.64 376.378 418.427L380.924 403.432V403.423C380.979 403.237 380.982 403.038 380.933 402.85C380.884 402.662 380.785 402.49 380.647 402.353ZM380.022 403.166L375.479 418.159V418.167C375.47 418.198 375.452 418.226 375.427 418.246C375.402 418.267 375.372 418.279 375.339 418.281C375.307 418.283 375.275 418.275 375.248 418.259C375.22 418.242 375.198 418.217 375.185 418.187L372.007 411.658L375.835 407.83C375.879 407.786 375.913 407.734 375.937 407.677C375.961 407.621 375.973 407.56 375.973 407.498C375.973 407.436 375.961 407.375 375.937 407.319C375.913 407.262 375.879 407.21 375.835 407.166C375.792 407.123 375.74 407.088 375.683 407.065C375.626 407.041 375.565 407.029 375.504 407.029C375.442 407.029 375.381 407.041 375.324 407.065C375.267 407.088 375.216 407.123 375.172 407.166L371.344 410.994L364.809 407.812C364.78 407.799 364.756 407.777 364.74 407.749C364.724 407.722 364.716 407.69 364.719 407.658C364.722 407.626 364.734 407.596 364.754 407.571C364.775 407.547 364.802 407.529 364.833 407.52H364.842L379.835 402.975C379.861 402.968 379.889 402.967 379.915 402.975C379.942 402.982 379.966 402.996 379.985 403.016C380.004 403.035 380.018 403.059 380.025 403.085C380.032 403.111 380.032 403.139 380.025 403.166H380.022Z" fill="#089104"/>
<path d="M42.9715 57.2695H33.8915V42.6495H42.9715V45.0095H35.5515L36.4515 44.1895V48.7695H42.2915V51.0295H36.4515V55.7295L35.5515 54.9095H42.9715V57.2695ZM48.1461 57.2695H45.7061V47.3895H47.9661L48.1661 48.6695C48.4727 48.1762 48.9061 47.7895 49.4661 47.5095C50.0394 47.2295 50.6594 47.0895 51.3261 47.0895C52.5661 47.0895 53.4994 47.4562 54.1261 48.1895C54.7661 48.9229 55.0861 49.9229 55.0861 51.1895V57.2695H52.6461V51.7695C52.6461 50.9429 52.4594 50.3295 52.0861 49.9295C51.7127 49.5162 51.2061 49.3095 50.5661 49.3095C49.8061 49.3095 49.2127 49.5495 48.7861 50.0295C48.3594 50.5095 48.1461 51.1495 48.1461 51.9495V57.2695ZM57.262 52.1095C57.262 51.1495 57.4554 50.2962 57.842 49.5495C58.242 48.7895 58.7954 48.1895 59.502 47.7495C60.2087 47.3095 61.0287 47.0895 61.962 47.0895C62.802 47.0895 63.522 47.2762 64.122 47.6495C64.722 48.0095 65.142 48.5162 65.382 49.1695L65.122 49.3895L65.322 47.3895H67.582V56.7695C67.582 57.8629 67.3687 58.8095 66.942 59.6095C66.5287 60.4229 65.9354 61.0429 65.162 61.4695C64.402 61.9095 63.482 62.1295 62.402 62.1295C60.9887 62.1295 59.8287 61.7495 58.922 60.9895C58.0154 60.2295 57.482 59.1895 57.322 57.8695H59.762C59.842 58.5095 60.1087 59.0095 60.562 59.3695C61.0287 59.7295 61.642 59.9095 62.402 59.9095C63.242 59.9095 63.9087 59.6629 64.402 59.1695C64.9087 58.6895 65.162 58.0362 65.162 57.2095V54.7495L65.442 55.0095C65.202 55.6362 64.762 56.1362 64.122 56.5095C63.482 56.8829 62.742 57.0695 61.902 57.0695C60.9687 57.0695 60.1554 56.8562 59.462 56.4295C58.7687 56.0029 58.2287 55.4162 57.842 54.6695C57.4554 53.9229 57.262 53.0695 57.262 52.1095ZM59.722 52.0495C59.722 52.6095 59.8287 53.1095 60.042 53.5495C60.2687 53.9762 60.582 54.3162 60.982 54.5695C61.382 54.8229 61.8487 54.9495 62.382 54.9495C62.942 54.9495 63.422 54.8295 63.822 54.5895C64.2354 54.3362 64.5487 53.9962 64.762 53.5695C64.9887 53.1295 65.102 52.6229 65.102 52.0495C65.102 51.4762 64.9954 50.9829 64.782 50.5695C64.5687 50.1429 64.2554 49.8095 63.842 49.5695C63.442 49.3295 62.9554 49.2095 62.382 49.2095C61.8354 49.2095 61.362 49.3362 60.962 49.5895C60.562 49.8295 60.2554 50.1629 60.042 50.5895C59.8287 51.0162 59.722 51.5029 59.722 52.0495ZM73.3858 57.5295C72.3458 57.5295 71.5192 57.2495 70.9058 56.6895C70.3058 56.1162 70.0058 55.3695 70.0058 54.4495C70.0058 53.5429 70.3192 52.8229 70.9458 52.2895C71.5858 51.7429 72.4925 51.4229 73.6658 51.3295L76.6258 51.0895V50.8695C76.6258 50.4162 76.5392 50.0562 76.3658 49.7895C76.2058 49.5095 75.9725 49.3095 75.6658 49.1895C75.3592 49.0562 74.9992 48.9895 74.5858 48.9895C73.8658 48.9895 73.3125 49.1362 72.9258 49.4295C72.5392 49.7095 72.3458 50.1095 72.3458 50.6295H70.2658C70.2658 49.9095 70.4458 49.2895 70.8058 48.7695C71.1792 48.2362 71.6992 47.8229 72.3658 47.5295C73.0458 47.2362 73.8258 47.0895 74.7058 47.0895C75.5992 47.0895 76.3658 47.2495 77.0058 47.5695C77.6458 47.8762 78.1392 48.3429 78.4858 48.9695C78.8325 49.5829 79.0058 50.3495 79.0058 51.2695V57.2695H76.8658L76.6858 55.8095C76.4725 56.3162 76.0592 56.7295 75.4458 57.0495C74.8458 57.3695 74.1592 57.5295 73.3858 57.5295ZM74.1658 55.6895C74.9258 55.6895 75.5258 55.4762 75.9658 55.0495C76.4192 54.6229 76.6458 54.0295 76.6458 53.2695V52.7495L74.5858 52.9095C73.8258 52.9762 73.2858 53.1362 72.9658 53.3895C72.6458 53.6295 72.4858 53.9495 72.4858 54.3495C72.4858 54.7895 72.6325 55.1229 72.9258 55.3495C73.2192 55.5762 73.6325 55.6895 74.1658 55.6895ZM81.1815 52.1095C81.1815 51.1495 81.3748 50.2962 81.7615 49.5495C82.1615 48.7895 82.7148 48.1895 83.4215 47.7495C84.1282 47.3095 84.9482 47.0895 85.8815 47.0895C86.7215 47.0895 87.4415 47.2762 88.0415 47.6495C88.6415 48.0095 89.0615 48.5162 89.3015 49.1695L89.0415 49.3895L89.2415 47.3895H91.5015V56.7695C91.5015 57.8629 91.2882 58.8095 90.8615 59.6095C90.4482 60.4229 89.8548 61.0429 89.0815 61.4695C88.3215 61.9095 87.4015 62.1295 86.3215 62.1295C84.9082 62.1295 83.7482 61.7495 82.8415 60.9895C81.9348 60.2295 81.4015 59.1895 81.2415 57.8695H83.6815C83.7615 58.5095 84.0282 59.0095 84.4815 59.3695C84.9482 59.7295 85.5615 59.9095 86.3215 59.9095C87.1615 59.9095 87.8282 59.6629 88.3215 59.1695C88.8282 58.6895 89.0815 58.0362 89.0815 57.2095V54.7495L89.3615 55.0095C89.1215 55.6362 88.6815 56.1362 88.0415 56.5095C87.4015 56.8829 86.6615 57.0695 85.8215 57.0695C84.8882 57.0695 84.0748 56.8562 83.3815 56.4295C82.6882 56.0029 82.1482 55.4162 81.7615 54.6695C81.3748 53.9229 81.1815 53.0695 81.1815 52.1095ZM83.6415 52.0495C83.6415 52.6095 83.7482 53.1095 83.9615 53.5495C84.1882 53.9762 84.5015 54.3162 84.9015 54.5695C85.3015 54.8229 85.7682 54.9495 86.3015 54.9495C86.8615 54.9495 87.3415 54.8295 87.7415 54.5895C88.1548 54.3362 88.4682 53.9962 88.6815 53.5695C88.9082 53.1295 89.0215 52.6229 89.0215 52.0495C89.0215 51.4762 88.9148 50.9829 88.7015 50.5695C88.4882 50.1429 88.1748 49.8095 87.7615 49.5695C87.3615 49.3295 86.8748 49.2095 86.3015 49.2095C85.7548 49.2095 85.2815 49.3362 84.8815 49.5895C84.4815 49.8295 84.1748 50.1629 83.9615 50.5895C83.7482 51.0162 83.6415 51.5029 83.6415 52.0495ZM94.3653 57.2695V47.3895H96.8053V57.2695H94.3653ZM95.5653 45.4095C95.1519 45.4095 94.7986 45.2695 94.5053 44.9895C94.2253 44.6962 94.0853 44.3429 94.0853 43.9295C94.0853 43.5162 94.2253 43.1695 94.5053 42.8895C94.7986 42.6095 95.1519 42.4695 95.5653 42.4695C95.9786 42.4695 96.3253 42.6095 96.6053 42.8895C96.8986 43.1695 97.0453 43.5162 97.0453 43.9295C97.0453 44.3429 96.8986 44.6962 96.6053 44.9895C96.3253 45.2695 95.9786 45.4095 95.5653 45.4095ZM102.105 57.2695H99.6648V47.3895H101.925L102.125 48.6695C102.432 48.1762 102.865 47.7895 103.425 47.5095C103.998 47.2295 104.618 47.0895 105.285 47.0895C106.525 47.0895 107.458 47.4562 108.085 48.1895C108.725 48.9229 109.045 49.9229 109.045 51.1895V57.2695H106.605V51.7695C106.605 50.9429 106.418 50.3295 106.045 49.9295C105.672 49.5162 105.165 49.3095 104.525 49.3095C103.765 49.3095 103.172 49.5495 102.745 50.0295C102.318 50.5095 102.105 51.1495 102.105 51.9495V57.2695ZM111.221 52.1095C111.221 51.1495 111.414 50.2962 111.801 49.5495C112.201 48.7895 112.754 48.1895 113.461 47.7495C114.167 47.3095 114.987 47.0895 115.921 47.0895C116.761 47.0895 117.481 47.2762 118.081 47.6495C118.681 48.0095 119.101 48.5162 119.341 49.1695L119.081 49.3895L119.281 47.3895H121.541V56.7695C121.541 57.8629 121.327 58.8095 120.901 59.6095C120.487 60.4229 119.894 61.0429 119.121 61.4695C118.361 61.9095 117.441 62.1295 116.361 62.1295C114.947 62.1295 113.787 61.7495 112.881 60.9895C111.974 60.2295 111.441 59.1895 111.281 57.8695H113.721C113.801 58.5095 114.067 59.0095 114.521 59.3695C114.987 59.7295 115.601 59.9095 116.361 59.9095C117.201 59.9095 117.867 59.6629 118.361 59.1695C118.867 58.6895 119.121 58.0362 119.121 57.2095V54.7495L119.401 55.0095C119.161 55.6362 118.721 56.1362 118.081 56.5095C117.441 56.8829 116.701 57.0695 115.861 57.0695C114.927 57.0695 114.114 56.8562 113.421 56.4295C112.727 56.0029 112.187 55.4162 111.801 54.6695C111.414 53.9229 111.221 53.0695 111.221 52.1095ZM113.681 52.0495C113.681 52.6095 113.787 53.1095 114.001 53.5495C114.227 53.9762 114.541 54.3162 114.941 54.5695C115.341 54.8229 115.807 54.9495 116.341 54.9495C116.901 54.9495 117.381 54.8295 117.781 54.5895C118.194 54.3362 118.507 53.9962 118.721 53.5695C118.947 53.1295 119.061 52.6229 119.061 52.0495C119.061 51.4762 118.954 50.9829 118.741 50.5695C118.527 50.1429 118.214 49.8095 117.801 49.5695C117.401 49.3295 116.914 49.2095 116.341 49.2095C115.794 49.2095 115.321 49.3362 114.921 49.5895C114.521 49.8295 114.214 50.1629 114.001 50.5895C113.787 51.0162 113.681 51.5029 113.681 52.0495ZM133.054 42.6495V57.2695H130.494V42.6495H133.054ZM138.713 57.2695H136.273V47.3895H138.533L138.733 48.6695C139.04 48.1762 139.473 47.7895 140.033 47.5095C140.607 47.2295 141.227 47.0895 141.893 47.0895C143.133 47.0895 144.067 47.4562 144.693 48.1895C145.333 48.9229 145.653 49.9229 145.653 51.1895V57.2695H143.213V51.7695C143.213 50.9429 143.027 50.3295 142.653 49.9295C142.28 49.5162 141.773 49.3095 141.133 49.3095C140.373 49.3095 139.78 49.5495 139.353 50.0295C138.927 50.5095 138.713 51.1495 138.713 51.9495V57.2695ZM147.409 47.3895H153.649V49.4295H147.409V47.3895ZM151.749 57.2695H149.309V44.3095H151.749V57.2695ZM159.847 57.5295C158.874 57.5295 158.007 57.3095 157.247 56.8695C156.5 56.4162 155.914 55.8029 155.487 55.0295C155.06 54.2429 154.847 53.3429 154.847 52.3295C154.847 51.3029 155.054 50.3962 155.467 49.6095C155.88 48.8229 156.46 48.2095 157.207 47.7695C157.954 47.3162 158.807 47.0895 159.767 47.0895C160.767 47.0895 161.627 47.3029 162.347 47.7295C163.067 48.1429 163.62 48.7229 164.007 49.4695C164.407 50.2162 164.607 51.1095 164.607 52.1495V52.8895L156.127 52.9095L156.167 51.3495H162.187C162.187 50.6695 161.967 50.1229 161.527 49.7095C161.1 49.2962 160.52 49.0895 159.787 49.0895C159.214 49.0895 158.727 49.2095 158.327 49.4495C157.94 49.6895 157.647 50.0495 157.447 50.5295C157.247 51.0095 157.147 51.5962 157.147 52.2895C157.147 53.3562 157.374 54.1629 157.827 54.7095C158.294 55.2562 158.98 55.5295 159.887 55.5295C160.554 55.5295 161.1 55.4029 161.527 55.1495C161.967 54.8962 162.254 54.5362 162.387 54.0695H164.647C164.434 55.1495 163.9 55.9962 163.047 56.6095C162.207 57.2229 161.14 57.5295 159.847 57.5295ZM173.099 47.3495V49.6095H172.199C171.305 49.6095 170.605 49.8495 170.099 50.3295C169.592 50.7962 169.339 51.5095 169.339 52.4695V57.2695H166.899V47.4095H169.199L169.399 49.4495H169.159C169.292 48.7962 169.605 48.2629 170.099 47.8495C170.592 47.4362 171.232 47.2295 172.019 47.2295C172.192 47.2295 172.365 47.2362 172.539 47.2495C172.712 47.2629 172.899 47.2962 173.099 47.3495ZM177.638 57.5295C176.598 57.5295 175.771 57.2495 175.158 56.6895C174.558 56.1162 174.258 55.3695 174.258 54.4495C174.258 53.5429 174.571 52.8229 175.198 52.2895C175.838 51.7429 176.745 51.4229 177.918 51.3295L180.878 51.0895V50.8695C180.878 50.4162 180.791 50.0562 180.618 49.7895C180.458 49.5095 180.225 49.3095 179.918 49.1895C179.611 49.0562 179.251 48.9895 178.838 48.9895C178.118 48.9895 177.565 49.1362 177.178 49.4295C176.791 49.7095 176.598 50.1095 176.598 50.6295H174.518C174.518 49.9095 174.698 49.2895 175.058 48.7695C175.431 48.2362 175.951 47.8229 176.618 47.5295C177.298 47.2362 178.078 47.0895 178.958 47.0895C179.851 47.0895 180.618 47.2495 181.258 47.5695C181.898 47.8762 182.391 48.3429 182.738 48.9695C183.085 49.5829 183.258 50.3495 183.258 51.2695V57.2695H181.118L180.938 55.8095C180.725 56.3162 180.311 56.7295 179.698 57.0495C179.098 57.3695 178.411 57.5295 177.638 57.5295ZM178.418 55.6895C179.178 55.6895 179.778 55.4762 180.218 55.0495C180.671 54.6229 180.898 54.0295 180.898 53.2695V52.7495L178.838 52.9095C178.078 52.9762 177.538 53.1362 177.218 53.3895C176.898 53.6295 176.738 53.9495 176.738 54.3495C176.738 54.7895 176.885 55.1229 177.178 55.3495C177.471 55.5762 177.885 55.6895 178.418 55.6895ZM185.414 52.3095C185.414 51.2962 185.62 50.3962 186.034 49.6095C186.46 48.8229 187.04 48.2095 187.774 47.7695C188.52 47.3162 189.38 47.0895 190.354 47.0895C191.7 47.0895 192.8 47.4429 193.654 48.1495C194.52 48.8429 195.02 49.7829 195.154 50.9695H192.714C192.567 50.4095 192.294 49.9895 191.894 49.7095C191.507 49.4162 191.02 49.2695 190.434 49.2695C189.927 49.2695 189.474 49.3962 189.074 49.6495C188.687 49.8895 188.387 50.2362 188.174 50.6895C187.96 51.1429 187.854 51.6829 187.854 52.3095C187.854 52.9362 187.954 53.4762 188.154 53.9295C188.354 54.3829 188.64 54.7362 189.014 54.9895C189.4 55.2295 189.854 55.3495 190.374 55.3495C190.987 55.3495 191.494 55.2029 191.894 54.9095C192.307 54.6162 192.58 54.1962 192.714 53.6495H195.174C195.067 54.4229 194.794 55.1029 194.354 55.6895C193.927 56.2629 193.374 56.7162 192.694 57.0495C192.014 57.3695 191.24 57.5295 190.374 57.5295C189.374 57.5295 188.5 57.3162 187.754 56.8895C187.007 56.4495 186.427 55.8429 186.014 55.0695C185.614 54.2829 185.414 53.3629 185.414 52.3095ZM196.349 47.3895H202.589V49.4295H196.349V47.3895ZM200.689 57.2695H198.249V44.3095H200.689V57.2695ZM204.464 57.2695V47.3895H206.904V57.2695H204.464ZM205.664 45.4095C205.251 45.4095 204.897 45.2695 204.604 44.9895C204.324 44.6962 204.184 44.3429 204.184 43.9295C204.184 43.5162 204.324 43.1695 204.604 42.8895C204.897 42.6095 205.251 42.4695 205.664 42.4695C206.077 42.4695 206.424 42.6095 206.704 42.8895C206.997 43.1695 207.144 43.5162 207.144 43.9295C207.144 44.3429 206.997 44.6962 206.704 44.9895C206.424 45.2695 206.077 45.4095 205.664 45.4095ZM209.184 52.3095C209.184 51.2829 209.41 50.3829 209.864 49.6095C210.317 48.8229 210.944 48.2095 211.744 47.7695C212.544 47.3295 213.45 47.1095 214.464 47.1095C215.49 47.1095 216.397 47.3295 217.184 47.7695C217.984 48.2095 218.61 48.8229 219.064 49.6095C219.517 50.3829 219.744 51.2829 219.744 52.3095C219.744 53.3362 219.517 54.2429 219.064 55.0295C218.61 55.8029 217.984 56.4095 217.184 56.8495C216.397 57.2895 215.49 57.5095 214.464 57.5095C213.45 57.5095 212.544 57.2895 211.744 56.8495C210.944 56.4095 210.317 55.8029 209.864 55.0295C209.41 54.2429 209.184 53.3362 209.184 52.3095ZM211.624 52.3095C211.624 52.9095 211.744 53.4362 211.984 53.8895C212.237 54.3429 212.57 54.6962 212.984 54.9495C213.41 55.2029 213.904 55.3295 214.464 55.3295C215.024 55.3295 215.517 55.2029 215.944 54.9495C216.37 54.6962 216.704 54.3429 216.944 53.8895C217.184 53.4362 217.304 52.9095 217.304 52.3095C217.304 51.6962 217.184 51.1695 216.944 50.7295C216.704 50.2762 216.37 49.9229 215.944 49.6695C215.517 49.4162 215.024 49.2895 214.464 49.2895C213.904 49.2895 213.41 49.4162 212.984 49.6695C212.57 49.9229 212.237 50.2762 211.984 50.7295C211.744 51.1695 211.624 51.6962 211.624 52.3095ZM224.456 57.2695H222.016V47.3895H224.276L224.476 48.6695C224.783 48.1762 225.216 47.7895 225.776 47.5095C226.35 47.2295 226.97 47.0895 227.636 47.0895C228.876 47.0895 229.81 47.4562 230.436 48.1895C231.076 48.9229 231.396 49.9229 231.396 51.1895V57.2695H228.956V51.7695C228.956 50.9429 228.77 50.3295 228.396 49.9295C228.023 49.5162 227.516 49.3095 226.876 49.3095C226.116 49.3095 225.523 49.5495 225.096 50.0295C224.67 50.5095 224.456 51.1495 224.456 51.9495V57.2695ZM233.255 54.2695H235.575C235.588 54.6962 235.748 55.0362 236.055 55.2895C236.362 55.5429 236.788 55.6695 237.335 55.6695C237.922 55.6695 238.362 55.5629 238.655 55.3495C238.962 55.1362 239.115 54.8495 239.115 54.4895C239.115 54.2495 239.035 54.0362 238.875 53.8495C238.715 53.6629 238.415 53.5229 237.975 53.4295L236.195 53.0095C235.302 52.8095 234.635 52.4895 234.195 52.0495C233.768 51.5962 233.555 50.9762 233.555 50.1895C233.555 49.5495 233.722 48.9962 234.055 48.5295C234.402 48.0629 234.868 47.7095 235.455 47.4695C236.042 47.2162 236.715 47.0895 237.475 47.0895C238.208 47.0895 238.855 47.2229 239.415 47.4895C239.975 47.7562 240.408 48.1295 240.715 48.6095C241.035 49.0895 241.202 49.6495 241.215 50.2895H238.895C238.895 49.8629 238.762 49.5295 238.495 49.2895C238.228 49.0362 237.855 48.9095 237.375 48.9095C236.895 48.9095 236.522 49.0162 236.255 49.2295C235.988 49.4429 235.855 49.7295 235.855 50.0895C235.855 50.6362 236.282 51.0095 237.135 51.2095L238.915 51.6295C239.742 51.8162 240.362 52.1162 240.775 52.5295C241.202 52.9429 241.415 53.5295 241.415 54.2895C241.415 54.9562 241.242 55.5362 240.895 56.0295C240.548 56.5095 240.062 56.8829 239.435 57.1495C238.808 57.4029 238.088 57.5295 237.275 57.5295C236.048 57.5295 235.068 57.2295 234.335 56.6295C233.615 56.0295 233.255 55.2429 233.255 54.2695Z" fill="white"/>
<path d="M90.553 98.573V111H88.377V98.573H90.553ZM93.29 106.716H90.026V104.778H92.831C93.579 104.778 94.1457 104.591 94.531 104.217C94.9277 103.832 95.126 103.299 95.126 102.619C95.126 101.939 94.9277 101.418 94.531 101.055C94.1457 100.692 93.5903 100.511 92.865 100.511H89.822V98.573H93.29C94.1287 98.573 94.854 98.743 95.466 99.083C96.078 99.423 96.554 99.899 96.894 100.511C97.234 101.112 97.404 101.82 97.404 102.636C97.404 103.429 97.234 104.138 96.894 104.761C96.554 105.373 96.078 105.855 95.466 106.206C94.854 106.546 94.1287 106.716 93.29 106.716ZM101.358 111H99.3011V98.352H101.358V111ZM106.371 111.221C105.487 111.221 104.785 110.983 104.263 110.507C103.753 110.02 103.498 109.385 103.498 108.603C103.498 107.832 103.765 107.22 104.297 106.767C104.841 106.302 105.612 106.03 106.609 105.951L109.125 105.747V105.56C109.125 105.175 109.052 104.869 108.904 104.642C108.768 104.404 108.57 104.234 108.309 104.132C108.049 104.019 107.743 103.962 107.391 103.962C106.779 103.962 106.309 104.087 105.98 104.336C105.652 104.574 105.487 104.914 105.487 105.356H103.719C103.719 104.744 103.872 104.217 104.178 103.775C104.496 103.322 104.938 102.97 105.504 102.721C106.082 102.472 106.745 102.347 107.493 102.347C108.253 102.347 108.904 102.483 109.448 102.755C109.992 103.016 110.412 103.412 110.706 103.945C111.001 104.466 111.148 105.118 111.148 105.9V111H109.329L109.176 109.759C108.995 110.19 108.644 110.541 108.122 110.813C107.612 111.085 107.029 111.221 106.371 111.221ZM107.034 109.657C107.68 109.657 108.19 109.476 108.564 109.113C108.95 108.75 109.142 108.246 109.142 107.6V107.158L107.391 107.294C106.745 107.351 106.286 107.487 106.014 107.702C105.742 107.906 105.606 108.178 105.606 108.518C105.606 108.892 105.731 109.175 105.98 109.368C106.23 109.561 106.581 109.657 107.034 109.657ZM114.55 102.602L117.287 110.354L116.165 112.479L112.357 102.602H114.55ZM112.578 114.893V113.176H113.819C114.091 113.176 114.329 113.142 114.533 113.074C114.737 113.017 114.918 112.904 115.077 112.734C115.247 112.564 115.388 112.315 115.502 111.986L118.987 102.602H121.129L117.015 112.87C116.709 113.641 116.323 114.202 115.859 114.553C115.394 114.904 114.816 115.08 114.125 115.08C113.83 115.08 113.552 115.063 113.292 115.029C113.042 115.006 112.804 114.961 112.578 114.893ZM126.02 111.221C125.193 111.221 124.456 111.034 123.81 110.66C123.176 110.275 122.677 109.753 122.314 109.096C121.952 108.427 121.77 107.662 121.77 106.801C121.77 105.928 121.946 105.158 122.297 104.489C122.649 103.82 123.142 103.299 123.776 102.925C124.411 102.54 125.136 102.347 125.952 102.347C126.802 102.347 127.533 102.528 128.145 102.891C128.757 103.242 129.228 103.735 129.556 104.37C129.896 105.005 130.066 105.764 130.066 106.648V107.277L122.858 107.294L122.892 105.968H128.009C128.009 105.39 127.822 104.925 127.448 104.574C127.086 104.223 126.593 104.047 125.969 104.047C125.482 104.047 125.068 104.149 124.728 104.353C124.4 104.557 124.15 104.863 123.98 105.271C123.81 105.679 123.725 106.178 123.725 106.767C123.725 107.674 123.918 108.359 124.303 108.824C124.7 109.289 125.284 109.521 126.054 109.521C126.621 109.521 127.086 109.413 127.448 109.198C127.822 108.983 128.066 108.677 128.179 108.28H130.1C129.919 109.198 129.466 109.918 128.74 110.439C128.026 110.96 127.12 111.221 126.02 111.221ZM137.335 102.568V104.489H136.57C135.811 104.489 135.216 104.693 134.785 105.101C134.354 105.498 134.139 106.104 134.139 106.92V111H132.065V102.619H134.02L134.19 104.353H133.986C134.099 103.798 134.366 103.344 134.785 102.993C135.204 102.642 135.748 102.466 136.417 102.466C136.564 102.466 136.712 102.472 136.859 102.483C137.006 102.494 137.165 102.523 137.335 102.568Z" fill="#989B99"/>
</svg>
