<svg width="28" height="31" viewBox="0 0 28 31" fill="none" xmlns="http://www.w3.org/2000/svg">
<path d="M28 16C28 8.26719 21.7328 2 14 2C6.26719 2 0 8.26719 0 16C0 23.7328 6.26719 30 14 30C14.082 30 14.1641 30 14.2461 29.9945V19.1008H11.2383V15.5953H14.2461V13.0141C14.2461 10.0227 16.0727 8.39297 18.7414 8.39297C20.0211 8.39297 21.1203 8.48594 21.4375 8.52969V11.6578H19.6C18.1508 11.6578 17.8664 12.3469 17.8664 13.3586V15.5898H21.3391L20.8852 19.0953H17.8664V29.4586C23.718 27.7797 28 22.393 28 16Z" fill="#D4D7DC"/>
</svg>
