<svg width="100" height="100" viewBox="0 0 100 100" fill="none" xmlns="http://www.w3.org/2000/svg">
<path d="M88.707 21.1798C88.2878 18.71 87.1111 16.4317 85.3397 14.6604C83.5683 12.889 81.29 11.7123 78.8203 11.2931C66.3203 9.17588 42.7734 8.20322 25.4883 25.4884C8.2031 42.7735 9.17575 66.3204 11.2929 78.8204C11.7121 81.2902 12.8889 83.5685 14.6602 85.3398C16.4316 87.1112 18.7099 88.2879 21.1797 88.7071C25.5675 89.4545 30.0099 89.8347 34.4609 89.8438C46.8398 89.8438 62.2422 86.7657 74.4961 74.5118C91.7969 57.2267 90.8242 33.6798 88.707 21.1798ZM65.4062 14.8048C69.6393 14.8199 73.8638 15.1897 78.0351 15.9103C79.5478 16.1667 80.9432 16.8872 82.028 17.9721C83.1129 19.0569 83.8334 20.4523 84.0898 21.9649C85.0216 27.2769 85.3622 32.6757 85.1054 38.0626L61.9375 14.8985C63.0664 14.8438 64.2187 14.8048 65.4062 14.8048ZM21.9648 84.0899C20.4522 83.8335 19.0568 83.113 17.9719 82.0281C16.8871 80.9433 16.1665 79.5479 15.9101 78.0353C14.9784 72.7233 14.6378 67.3245 14.8945 61.9376L38.0625 85.1056C32.6755 85.3623 27.2768 85.0217 21.9648 84.0899ZM71.1836 71.1993C66.5273 75.8517 57.8086 82.3478 44.0508 84.4806L15.5156 55.9337C17.6523 42.1759 24.1484 33.4571 28.7968 28.8009C33.4453 24.1446 42.1875 17.6563 55.9375 15.5196L84.4843 44.0665C82.3476 57.8126 75.8515 66.5431 71.1992 71.1993H71.1836ZM64.1484 35.8517C64.5873 36.2911 64.8338 36.8868 64.8338 37.5079C64.8338 38.129 64.5873 38.7247 64.1484 39.1642L58 45.3126L61.0273 48.3399C61.2576 48.5545 61.4423 48.8133 61.5704 49.1008C61.6985 49.3883 61.7674 49.6986 61.7729 50.0133C61.7785 50.328 61.7206 50.6406 61.6027 50.9324C61.4848 51.2243 61.3094 51.4894 61.0868 51.7119C60.8643 51.9345 60.5991 52.1099 60.3073 52.2278C60.0155 52.3457 59.7029 52.4036 59.3882 52.398C59.0735 52.3925 58.7631 52.3236 58.4756 52.1955C58.1881 52.0674 57.9294 51.8827 57.7148 51.6524L54.6875 48.629L48.6289 54.6876L51.6562 57.7188C51.8865 57.9334 52.0712 58.1922 52.1993 58.4797C52.3274 58.7672 52.3963 59.0775 52.4018 59.3922C52.4074 59.7069 52.3495 60.0195 52.2316 60.3113C52.1137 60.6032 51.9383 60.8683 51.7157 61.0908C51.4932 61.3134 51.2281 61.4888 50.9362 61.6067C50.6444 61.7246 50.3318 61.7825 50.0171 61.7769C49.7024 61.7714 49.392 61.7025 49.1045 61.5744C48.817 61.4463 48.5583 61.2616 48.3437 61.0313L45.3125 58.0001L39.1601 64.1485C38.9456 64.3788 38.6868 64.5635 38.3993 64.6916C38.1118 64.8197 37.8015 64.8886 37.4868 64.8941C37.1721 64.8997 36.8595 64.8418 36.5676 64.7239C36.2758 64.606 36.0107 64.4306 35.7881 64.208C35.5656 63.9855 35.3901 63.7204 35.2722 63.4285C35.1544 63.1367 35.0965 62.8241 35.102 62.5094C35.1076 62.1947 35.1765 61.8843 35.3046 61.5969C35.4327 61.3094 35.6174 61.0506 35.8476 60.836L42 54.6876L38.9726 51.6603C38.7424 51.4457 38.5577 51.1869 38.4296 50.8994C38.3015 50.6119 38.2326 50.3016 38.227 49.9869C38.2215 49.6722 38.2794 49.3596 38.3972 49.0678C38.5151 48.7759 38.6906 48.5108 38.9131 48.2883C39.1357 48.0657 39.4008 47.8902 39.6926 47.7724C39.9845 47.6545 40.2971 47.5966 40.6118 47.6021C40.9265 47.6077 41.2368 47.6766 41.5243 47.8047C41.8118 47.9328 42.0706 48.1175 42.2851 48.3477L45.3164 51.3751L51.3711 45.3204L48.3437 42.2892C48.1135 42.0746 47.9288 41.8158 47.8007 41.5283C47.6726 41.2408 47.6037 40.9305 47.5981 40.6158C47.5926 40.3011 47.6505 39.9885 47.7683 39.6967C47.8862 39.4048 48.0617 39.1397 48.2842 38.9172C48.5068 38.6946 48.7719 38.5192 49.0637 38.4013C49.3556 38.2834 49.6682 38.2255 49.9829 38.2311C50.2976 38.2366 50.6079 38.3055 50.8954 38.4336C51.1829 38.5617 51.4417 38.7464 51.6562 38.9767L54.6836 42.004L60.8359 35.8556C61.2748 35.4161 61.8703 35.1689 62.4914 35.1682C63.1124 35.1674 63.7084 35.4133 64.1484 35.8517Z" fill="#013606"/>
</svg>
