<svg width="39" height="39" viewBox="0 0 39 39" fill="none" xmlns="http://www.w3.org/2000/svg">
<g clip-path="url(#clip0_1116_26328)">
<path d="M26.505 29.9702C27.4812 29.9702 28.4173 30.358 29.1076 31.0482C29.7978 31.7385 30.1856 32.6746 30.1856 33.6508C30.1856 32.6746 30.5734 31.7385 31.2637 31.0482C31.9539 30.358 32.8901 29.9702 33.8662 29.9702C32.8901 29.9702 31.9539 29.5824 31.2637 28.8922C30.5734 28.2019 30.1856 27.2657 30.1856 26.2896C30.1856 27.2657 29.7978 28.2019 29.1076 28.8922C28.4173 29.5824 27.4812 29.9702 26.505 29.9702ZM26.505 7.88644C27.4812 7.88644 28.4173 8.27421 29.1076 8.96447C29.7978 9.65472 30.1856 10.5909 30.1856 11.5671C30.1856 10.5909 30.5734 9.65472 31.2637 8.96447C31.9539 8.27421 32.8901 7.88644 33.8662 7.88644C32.8901 7.88644 31.9539 7.49866 31.2637 6.80841C30.5734 6.11815 30.1856 5.18197 30.1856 4.20581C30.1856 5.18197 29.7978 6.11815 29.1076 6.80841C28.4173 7.49866 27.4812 7.88644 26.505 7.88644ZM13.6228 29.9702C13.6228 27.0417 14.7861 24.2332 16.8569 22.1624C18.9277 20.0916 21.7362 18.9283 24.6647 18.9283C21.7362 18.9283 18.9277 17.765 16.8569 15.6942C14.7861 13.6235 13.6228 10.8149 13.6228 7.88644C13.6228 10.8149 12.4595 13.6235 10.3887 15.6942C8.31796 17.765 5.50942 18.9283 2.58093 18.9283C5.50942 18.9283 8.31796 20.0916 10.3887 22.1624C12.4595 24.2332 13.6228 27.0417 13.6228 29.9702Z" stroke="url(#paint0_linear_1116_26328)" stroke-width="4" stroke-linecap="round" stroke-linejoin="round"/>
</g>
<defs>
<linearGradient id="paint0_linear_1116_26328" x1="18.2236" y1="4.20581" x2="18.2236" y2="33.6508" gradientUnits="userSpaceOnUse">
<stop stop-color="#0DFF2B"/>
<stop offset="1" stop-color="#028A10"/>
</linearGradient>
<clipPath id="clip0_1116_26328">
<rect width="39" height="39" fill="white"/>
</clipPath>
</defs>
</svg>
