<svg width="59" height="59" viewBox="0 0 59 59" fill="none" xmlns="http://www.w3.org/2000/svg">
<g clip-path="url(#clip0_1107_25507)">
<path d="M40.0972 45.3395C41.574 45.3395 42.9903 45.9262 44.0345 46.9704C45.0787 48.0146 45.6654 49.4309 45.6654 50.9077C45.6654 49.4309 46.252 48.0146 47.2962 46.9704C48.3404 45.9262 49.7567 45.3395 51.2335 45.3395C49.7567 45.3395 48.3404 44.7529 47.2962 43.7087C46.252 42.6645 45.6654 41.2482 45.6654 39.7714C45.6654 41.2482 45.0787 42.6645 44.0345 43.7087C42.9903 44.7529 41.574 45.3395 40.0972 45.3395ZM40.0972 11.9308C41.574 11.9308 42.9903 12.5174 44.0345 13.5617C45.0787 14.6059 45.6654 16.0222 45.6654 17.4989C45.6654 16.0222 46.252 14.6059 47.2962 13.5617C48.3404 12.5174 49.7567 11.9308 51.2335 11.9308C49.7567 11.9308 48.3404 11.3442 47.2962 10.2999C46.252 9.2557 45.6654 7.83943 45.6654 6.36267C45.6654 7.83943 45.0787 9.2557 44.0345 10.2999C42.9903 11.3442 41.574 11.9308 40.0972 11.9308ZM20.6088 45.3395C20.6088 40.9093 22.3687 36.6604 25.5014 33.5278C28.6341 30.3951 32.8829 28.6352 37.3132 28.6352C32.8829 28.6352 28.6341 26.8752 25.5014 23.7426C22.3687 20.6099 20.6088 16.3611 20.6088 11.9308C20.6088 16.3611 18.8489 20.6099 15.7162 23.7426C12.5835 26.8752 8.33469 28.6352 3.90441 28.6352C8.33469 28.6352 12.5835 30.3951 15.7162 33.5278C18.8489 36.6604 20.6088 40.9093 20.6088 45.3395Z" stroke="url(#paint0_linear_1107_25507)" stroke-width="4" stroke-linecap="round" stroke-linejoin="round"/>
</g>
<defs>
<linearGradient id="paint0_linear_1107_25507" x1="27.5689" y1="6.36267" x2="27.5689" y2="50.9077" gradientUnits="userSpaceOnUse">
<stop stop-color="#0DFF2B"/>
<stop offset="1" stop-color="#028A10"/>
</linearGradient>
<clipPath id="clip0_1107_25507">
<rect width="59" height="59" fill="white"/>
</clipPath>
</defs>
</svg>
