<svg width="48" height="48" viewBox="0 0 48 48" fill="none" xmlns="http://www.w3.org/2000/svg">
<rect x="48" width="48" height="48" rx="24" transform="rotate(90 48 0)" fill="#0152FF" fill-opacity="0.08"/>
<path d="M34 27L33 33.5H18H14.5V26.5L15 14.5H33L34 27Z" fill="#0152FF" fill-opacity="0.12"/>
<path d="M32.75 13.5H15.25C14.7859 13.5 14.3408 13.6844 14.0126 14.0126C13.6844 14.3408 13.5 14.7859 13.5 15.25V32.75C13.5 33.2141 13.6844 33.6592 14.0126 33.9874C14.3408 34.3156 14.7859 34.5 15.25 34.5H32.75C33.2141 34.5 33.6592 34.3156 33.9874 33.9874C34.3156 33.6592 34.5 33.2141 34.5 32.75V15.25C34.5 14.7859 34.3156 14.3408 33.9874 14.0126C33.6592 13.6844 33.2141 13.5 32.75 13.5ZM15.25 15.25H32.75V23.7134L30.0495 21.0119C29.7214 20.6839 29.2764 20.4997 28.8125 20.4997C28.3486 20.4997 27.9036 20.6839 27.5755 21.0119L15.8373 32.75H15.25V15.25ZM32.75 32.75H18.3125L28.8125 22.25L32.75 26.1875V32.75ZM20.5 23.125C21.0192 23.125 21.5267 22.971 21.9584 22.6826C22.3901 22.3942 22.7265 21.9842 22.9252 21.5045C23.1239 21.0249 23.1758 20.4971 23.0746 19.9879C22.9733 19.4787 22.7233 19.011 22.3562 18.6438C21.989 18.2767 21.5213 18.0267 21.0121 17.9254C20.5029 17.8242 19.9751 17.8761 19.4955 18.0748C19.0158 18.2735 18.6058 18.6099 18.3174 19.0416C18.029 19.4733 17.875 19.9808 17.875 20.5C17.875 21.1962 18.1516 21.8639 18.6438 22.3562C19.1361 22.8484 19.8038 23.125 20.5 23.125ZM20.5 19.625C20.6731 19.625 20.8422 19.6763 20.9861 19.7725C21.13 19.8686 21.2422 20.0053 21.3084 20.1652C21.3746 20.325 21.3919 20.501 21.3582 20.6707C21.3244 20.8404 21.2411 20.9963 21.1187 21.1187C20.9963 21.2411 20.8404 21.3244 20.6707 21.3582C20.501 21.3919 20.325 21.3746 20.1652 21.3084C20.0053 21.2422 19.8686 21.13 19.7725 20.9861C19.6763 20.8422 19.625 20.6731 19.625 20.5C19.625 20.2679 19.7172 20.0454 19.8813 19.8813C20.0454 19.7172 20.2679 19.625 20.5 19.625Z" fill="#0152FF"/>
</svg>
