<svg width="28" height="31" viewBox="0 0 28 31" fill="none" xmlns="http://www.w3.org/2000/svg">
<path d="M11.3203 16C11.3203 17.48 12.52 18.6797 14 18.6797C15.48 18.6797 16.6797 17.48 16.6797 16C16.6797 14.52 15.48 13.3203 14 13.3203C12.52 13.3203 11.3203 14.52 11.3203 16Z" fill="#D4D7DC"/>
<path d="M7.73621 11.2595C7.86502 10.9104 8.07053 10.5945 8.33756 10.3351C8.59689 10.0681 8.91263 9.86261 9.2619 9.7338C9.54517 9.62378 9.9707 9.49283 10.7545 9.45715C11.6024 9.41849 11.8566 9.41016 14.0031 9.41016C16.1498 9.41016 16.404 9.41827 17.2516 9.45694C18.0354 9.49283 18.4612 9.62378 18.7442 9.7338C19.0935 9.86261 19.4094 10.0681 19.6685 10.3351C19.9356 10.5945 20.1411 10.9102 20.2701 11.2595C20.3801 11.5428 20.5111 11.9685 20.5468 12.7523C20.5854 13.5999 20.5938 13.8542 20.5938 16.0009C20.5938 18.1473 20.5854 18.4015 20.5468 19.2494C20.5111 20.0332 20.3801 20.4587 20.2701 20.742C20.1411 21.0913 19.9358 21.407 19.6688 21.6663C19.4094 21.9334 19.0937 22.1389 18.7444 22.2677C18.4612 22.3779 18.0354 22.5089 17.2516 22.5446C16.404 22.5832 16.15 22.5913 14.0033 22.5913C11.8564 22.5913 11.6021 22.5832 10.7547 22.5446C9.97092 22.5089 9.54517 22.3779 9.2619 22.2677C8.56079 21.9973 8.00665 21.4431 7.73621 20.742C7.62619 20.4587 7.49524 20.0332 7.45935 19.2494C7.42069 18.4015 7.41257 18.1473 7.41257 16.0009C7.41257 13.8542 7.42069 13.5999 7.45935 12.7523C7.49503 11.9685 7.62598 11.5428 7.73621 11.2595ZM14.0031 20.1287C16.2831 20.1287 18.1313 18.2806 18.1313 16.0006C18.1313 13.7206 16.2831 11.8726 14.0031 11.8726C11.7233 11.8726 9.875 13.7206 9.875 16.0006C9.875 18.2806 11.7233 20.1287 14.0031 20.1287ZM9.71179 12.6741C10.2446 12.6741 10.6765 12.2422 10.6765 11.7094C10.6765 11.1766 10.2446 10.7447 9.71179 10.7447C9.17902 10.7447 8.74707 11.1766 8.74707 11.7094C8.74728 12.2422 9.17902 12.6741 9.71179 12.6741Z" fill="#D4D7DC"/>
<path d="M14 2C21.7308 2 28 8.2692 28 16C28 23.7308 21.7308 30 14 30C6.2692 30 0 23.7308 0 16C0 8.2692 6.2692 2 14 2ZM6.00943 19.3144C6.04831 20.1701 6.18439 20.7544 6.38306 21.2658C6.80069 22.3457 7.65433 23.1993 8.73419 23.6169C9.24539 23.8156 9.82986 23.9515 10.6854 23.9906C11.5427 24.0297 11.8166 24.0391 13.9998 24.0391C16.1832 24.0391 16.4569 24.0297 17.3144 23.9906C18.1699 23.9515 18.7544 23.8156 19.2656 23.6169C19.8022 23.4151 20.288 23.0987 20.6896 22.6896C21.0985 22.2882 21.4149 21.8022 21.6167 21.2658C21.8154 20.7546 21.9515 20.1701 21.9904 19.3146C22.0299 18.4571 22.0391 18.1832 22.0391 16C22.0391 13.8168 22.0299 13.5429 21.9906 12.6856C21.9517 11.8299 21.8158 11.2456 21.6172 10.7342C21.4153 10.1978 21.0987 9.71179 20.6896 9.31039C20.2882 8.90131 19.8022 8.58493 19.2658 8.38306C18.7544 8.18439 18.1701 8.04852 17.3144 8.00943C16.4571 7.97034 16.1832 7.96094 14 7.96094C11.8168 7.96094 11.5429 7.97034 10.6856 8.00964C9.82986 8.04852 9.24561 8.18439 8.73419 8.38284C8.19778 8.58472 7.71179 8.90131 7.31018 9.31039C6.90131 9.71201 6.58472 10.1978 6.38306 10.7342C6.18417 11.2456 6.04831 11.8299 6.00922 12.6856C5.97012 13.5429 5.96094 13.8168 5.96094 16C5.96094 18.1832 5.97012 18.4571 6.00943 19.3144Z" fill="#D4D7DC"/>
</svg>
