<svg width="28" height="31" viewBox="0 0 28 31" fill="none" xmlns="http://www.w3.org/2000/svg">
<path d="M14 2C6.2692 2 0 8.2692 0 16C0 23.7308 6.2692 30 14 30C21.7308 30 28 23.7308 28 16C28 8.2692 21.7308 2 14 2ZM9.93176 23.1641H6.52213V12.9061H9.93176V23.1641ZM8.22705 11.5054H8.20483C7.06067 11.5054 6.32068 10.7177 6.32068 9.73337C6.32068 8.72678 7.08331 7.96094 8.24969 7.96094C9.41608 7.96094 10.1339 8.72678 10.1561 9.73337C10.1561 10.7177 9.41608 11.5054 8.22705 11.5054ZM22.2262 23.1641H18.817V17.6763C18.817 16.2971 18.3233 15.3566 17.0896 15.3566C16.1478 15.3566 15.5868 15.991 15.3403 16.6035C15.2501 16.8227 15.2281 17.129 15.2281 17.4355V23.1641H11.8187C11.8187 23.1641 11.8633 13.8685 11.8187 12.9061H15.2281V14.3585C15.6812 13.6595 16.4919 12.6653 18.3009 12.6653C20.5441 12.6653 22.2262 14.1314 22.2262 17.2822V23.1641Z" fill="#D4D7DC"/>
</svg>
