<svg width="119" height="37" viewBox="0 0 119 37" fill="none" xmlns="http://www.w3.org/2000/svg">
<path d="M107.371 27.9408V24.9411C108.961 25.5774 110.798 25.8956 112.879 25.8956C114.434 25.8956 115.211 25.3956 115.211 24.3957C115.211 23.4412 114.688 22.964 113.643 22.964H111.052C108.143 22.964 106.689 21.5323 106.689 18.669C106.689 15.6693 108.811 14.1694 113.057 14.1694C114.856 14.1694 116.552 14.4421 118.142 14.9875V17.9872C116.552 17.3509 114.825 17.0328 112.961 17.0328C111.007 17.0328 110.03 17.5327 110.03 18.5326C110.03 19.4871 110.598 19.9643 111.734 19.9643H114.052C117.233 19.9643 118.824 21.396 118.824 24.2594C118.824 27.2591 116.797 28.7589 112.743 28.7589C110.752 28.7589 108.961 28.4862 107.371 27.9408Z" fill="#4EF162"/>
<path d="M104.985 28.2135C103.803 28.4862 102.576 28.6226 101.303 28.6226C96.2127 28.6226 93.6675 26.1455 93.6675 21.1915C93.6675 16.601 96.2127 14.3058 101.303 14.3058C102.576 14.3058 103.803 14.4421 104.985 14.7148V17.5782C103.803 17.3055 102.667 17.1691 101.576 17.1691C98.7124 17.1691 97.2808 18.5099 97.2808 21.1915C97.2808 24.2366 98.7124 25.7592 101.576 25.7592C102.667 25.7592 103.803 25.6229 104.985 25.3502V28.2135Z" fill="#4EF162"/>
<path d="M90.9946 9.12451V11.9879H87.3813V9.12451H90.9946ZM90.9946 14.3058V28.6226H87.3813V14.3058H90.9946Z" fill="#4EF162"/>
<path d="M78.0962 11.9879H80.7687L81.3141 14.3059H84.9137V17.1692H81.7095V23.7549C81.7095 25.0912 82.2867 25.7593 83.4411 25.7593H84.9137V28.6226H81.6958C79.2961 28.6226 78.0962 27.3364 78.0962 24.7639V11.9879Z" fill="#4EF162"/>
<path d="M74.8784 9.12451V11.9879H71.2651V9.12451H74.8784ZM74.8784 14.3058V28.6226H71.2651V14.3058H74.8784Z" fill="#4EF162"/>
<path d="M67.8423 9.12451V28.6226H64.229V9.12451H67.8423Z" fill="#4EF162"/>
<path d="M47.7856 28.6226V9.12451H51.3989V16.1329C52.5261 14.9149 53.9669 14.3058 55.7212 14.3058C59.1118 14.3058 60.8071 16.0693 60.8071 19.5962V28.6226H57.1938V19.5962C57.1938 18.0145 56.4075 17.2237 54.835 17.2237C53.6623 17.2237 52.517 17.6919 51.3989 18.6281V28.6226H47.7856Z" fill="#4EF162"/>
<path d="M38.5 11.9879H41.1725L41.7179 14.3059H45.3175V17.1692H42.1133V23.7549C42.1133 25.0912 42.6905 25.7593 43.8449 25.7593H45.3175V28.6226H42.0996C39.6999 28.6226 38.5 27.3364 38.5 24.7639V11.9879Z" fill="#4EF162"/>
<ellipse cx="18.5" cy="18.5" rx="18.5" ry="18.5" fill="#4EF162"/>
<path d="M15.015 28.5735H11.1699L26.8366 9.07544H32.1188V18.8245V28.5735H28.2901L28.2737 23.2559H22.4952L24.3632 20.1198H28.2901L28.6228 12.2169L15.015 28.5735Z" fill="black"/>
<path d="M14.4481 0.327881C14.7771 2.34399 14.6371 4.41685 14.0405 6.35991C13.4439 8.303 12.4097 10.0556 11.0306 11.4593C9.65155 12.863 7.97093 13.8737 6.14038 14.4012C4.30982 14.9287 2.38669 14.956 0.543945 14.4806L0.764469 13.482C1.54503 13.6826 2.35942 13.7891 3.19679 13.7891C8.98088 13.7891 13.6697 8.72231 13.6697 2.47189C13.6697 1.8013 13.615 1.14445 13.5115 0.505899L14.4481 0.327881Z" fill="black"/>
</svg>
