<svg width="48" height="48" viewBox="0 0 48 48" fill="none" xmlns="http://www.w3.org/2000/svg">
<path d="M24 16C24.5523 16 25 15.5523 25 15C25 14.4477 24.5523 14 24 14C23.4477 14 23 14.4477 23 15C23 15.5523 23.4477 16 24 16Z" fill="#4C4D4C"/>
<path d="M20 33L24 27M24 27L28 33M24 27V23M24 23L30 21M24 23L18 21M6 24C6 26.3638 6.46558 28.7044 7.37017 30.8883C8.27475 33.0722 9.60062 35.0565 11.2721 36.7279C12.9435 38.3994 14.9278 39.7252 17.1117 40.6298C19.2956 41.5344 21.6362 42 24 42C26.3638 42 28.7044 41.5344 30.8883 40.6298C33.0722 39.7252 35.0565 38.3994 36.7279 36.7279C38.3994 35.0565 39.7252 33.0722 40.6298 30.8883C41.5344 28.7044 42 26.3638 42 24C42 21.6362 41.5344 19.2956 40.6298 17.1117C39.7252 14.9278 38.3994 12.9435 36.7279 11.2721C35.0565 9.60062 33.0722 8.27475 30.8883 7.37017C28.7044 6.46558 26.3638 6 24 6C21.6362 6 19.2956 6.46558 17.1117 7.37017C14.9278 8.27475 12.9435 9.60062 11.2721 11.2721C9.60062 12.9435 8.27475 14.9278 7.37017 17.1117C6.46558 19.2956 6 21.6362 6 24ZM25 15C25 15.5523 24.5523 16 24 16C23.4477 16 23 15.5523 23 15C23 14.4477 23.4477 14 24 14C24.5523 14 25 14.4477 25 15Z" stroke="#F5F4EE" stroke-width="2" stroke-linecap="round" stroke-linejoin="round"/>
</svg>
