<svg width="42" height="46" viewBox="0 0 42 46" fill="none" xmlns="http://www.w3.org/2000/svg">
<path d="M38.1944 2.3V37.5188H3.80688V9.91875L12.8631 0H36.16C37.2756 0 38.1944 1.07813 38.1944 2.3Z" fill="#E2E7E9"/>
<path d="M10.9612 9.91875H3.87366L12.8643 0L12.7987 7.7625C12.8643 8.98438 12.0112 9.91875 10.9612 9.91875Z" fill="#CED7D7"/>
<path d="M24.3462 20.124C22.4431 18.1115 21.065 15.8115 21.065 15.8115C21.59 14.949 22.8369 9.98959 20.9337 8.55209C19.0306 7.11459 18.0462 9.77397 18.0462 9.77397C17.1931 13.0802 19.2275 16.099 19.2275 16.099L16.9306 21.6333C16.6681 21.6333 9.38374 24.724 11.8775 28.5333C14.4369 32.3427 17.9806 23.1427 17.9806 23.1427C19.3587 22.6396 23.5587 21.9927 23.5587 21.9927C25.1994 24.4365 27.1681 25.2271 27.1681 25.2271C30.1869 26.0896 30.515 23.3583 30.515 23.3583C30.5806 19.7646 24.3462 20.124 24.3462 20.124ZM13.1244 27.2396C13.0587 27.2396 13.0587 27.1677 13.0587 27.1677C12.665 26.1615 15.6837 24.2208 15.6837 24.2208C15.6837 24.2208 14.0431 27.6709 13.1244 27.2396ZM19.9494 9.84584C20.8025 10.7083 20.0806 13.6552 20.0806 13.6552C20.0806 13.6552 19.0962 10.7083 19.9494 9.84584ZM19.1619 20.9865L20.3431 17.824L22.1806 20.2677L19.1619 20.9865ZM28.8744 23.2865C28.3494 24.2208 26.1837 22.2083 25.9869 21.9927C26.315 21.9927 29.1369 22.2083 28.8744 23.2865ZM38.1931 35.2177V43.699C38.1931 44.9209 37.2744 45.999 36.0931 45.999H5.83999C4.72437 45.999 3.73999 44.9927 3.73999 43.699V35.2177H38.1931Z" fill="#F2786B"/>
<path d="M18.3087 38.9549C18.3087 39.5299 18.1119 39.9611 17.7837 40.3205C17.4556 40.608 16.9306 40.7518 16.2744 40.7518H15.7494V42.8361H14.8962V37.3018H16.4056C17.0619 37.3018 17.5212 37.4455 17.8494 37.733C18.1775 38.0205 18.3087 38.3799 18.3087 38.9549ZM15.815 40.033H16.2744C16.6681 40.033 16.9962 39.9611 17.1931 39.8174C17.39 39.6736 17.5212 39.3861 17.5212 39.0268C17.5212 38.7393 17.4556 38.4518 17.2587 38.308C17.0619 38.1643 16.7994 38.0924 16.4056 38.0924H15.815V40.033ZM23.4931 40.033C23.4931 40.9674 23.2306 41.6861 22.7712 42.1174C22.3119 42.6205 21.6556 42.8361 20.7369 42.8361H19.2931V37.3018H20.8681C21.6556 37.3018 22.3119 37.5174 22.7712 38.0205C23.2306 38.4518 23.4931 39.1705 23.4931 40.033ZM22.5744 40.033C22.5744 38.6674 21.9837 38.0205 20.8681 38.0205H20.1462V42.0455H20.7369C21.9837 42.1174 22.5744 41.3986 22.5744 40.033ZM25.3962 42.8361H24.5431V37.3018H27.4306V38.0924H25.3962V39.8174H27.2994V40.608H25.3962V42.8361Z" fill="#EFF2F3"/>
</svg>
