<svg width="68" height="68" viewBox="0 0 68 68" fill="none" xmlns="http://www.w3.org/2000/svg">
<circle cx="34" cy="34" r="33" fill="black" stroke="#4EF162" stroke-width="2"/>
<path d="M29.7136 45.2057C28.5318 45.2057 27.3872 44.9768 26.2799 44.5192C25.1725 44.0615 24.175 43.375 23.2875 42.4597L16.5511 35.5492C16.0489 35.0305 15.6648 34.4282 15.3989 33.7424C15.133 33.0565 15 32.3621 15 31.6591C15 30.9562 15.133 30.2624 15.3989 29.5777C15.6648 28.8931 16.0489 28.2902 16.5511 27.7691L23.5977 20.4924C24.1 19.9737 24.6838 19.5771 25.3492 19.3025C26.0145 19.0279 26.6858 18.8906 27.363 18.8906C28.0402 18.8906 28.7126 19.0279 29.3804 19.3025C30.0481 19.5771 30.6313 19.9737 31.13 20.4924L37.8221 27.4487C38.7085 28.364 39.3732 29.3941 39.8164 30.5388C40.2596 31.6835 40.4812 32.8655 40.4812 34.0847C40.4812 35.1831 40.2968 36.2741 39.9281 37.3578C39.5594 38.4415 38.9909 39.4252 38.2227 40.3088L47.3966 49.7822C47.7511 50.1483 47.9284 50.5834 47.9284 51.0874C47.9284 51.5914 47.7511 52.0259 47.3966 52.3908C47.042 52.7557 46.6284 52.9388 46.1557 52.94C45.683 52.9412 45.2693 52.7581 44.9148 52.3908L35.7409 42.9174C34.8841 43.7107 33.9315 44.2904 32.8833 44.6565C31.835 45.0226 30.7785 45.2057 29.7136 45.2057ZM47.7955 29.8743C46.0818 29.8743 44.6193 29.2488 43.408 27.9979C42.1966 26.747 41.5909 25.2367 41.5909 23.4671C41.5909 21.6975 42.1966 20.1873 43.408 18.9364C44.6193 17.6855 46.0818 17.06 47.7955 17.06C49.5091 17.06 50.9716 17.6855 52.183 18.9364C53.3943 20.1873 54 21.6975 54 23.4671C54 25.2367 53.3943 26.747 52.183 27.9979C50.9716 29.2488 49.5091 29.8743 47.7955 29.8743Z" fill="url(#paint0_linear_562_1069)"/>
<defs>
<linearGradient id="paint0_linear_562_1069" x1="34.5" y1="17.06" x2="34.5" y2="52.94" gradientUnits="userSpaceOnUse">
<stop stop-color="#4EF162"/>
<stop offset="1" stop-color="#2D8B39"/>
</linearGradient>
</defs>
</svg>
