<svg width="451" height="444" viewBox="0 0 451 444" fill="none" xmlns="http://www.w3.org/2000/svg">
<path d="M0 24.2018C0 10.8355 10.8355 0 24.2018 0H426.715C440.082 0 450.917 10.8355 450.917 24.2018V443.143H0V24.2018Z" fill="#16171B"/>
<path d="M86.3697 38.9909V61.2695H82.4686V38.9909H86.3697ZM91.2765 53.5893H85.4249V50.115H90.4536C91.7946 50.115 92.8105 49.7797 93.5013 49.1092C94.2124 48.4184 94.568 47.4635 94.568 46.2444C94.568 45.0253 94.2124 44.0907 93.5013 43.4405C92.8105 42.7904 91.8149 42.4653 90.5145 42.4653H85.0592V38.9909H91.2765C92.78 38.9909 94.0803 39.2957 95.1775 39.9052C96.2747 40.5147 97.128 41.3681 97.7376 42.4653C98.3471 43.5421 98.6519 44.812 98.6519 46.2749C98.6519 47.6971 98.3471 48.967 97.7376 50.0845C97.128 51.1817 96.2747 52.0452 95.1775 52.675C94.0803 53.2846 92.78 53.5893 91.2765 53.5893ZM111.171 46.153V49.5969H109.8C108.439 49.5969 107.372 49.9626 106.6 50.694C105.828 51.4052 105.442 52.4922 105.442 53.9551V61.2695H101.723V46.2444H105.228L105.533 49.3531H105.167C105.371 48.3575 105.848 47.5448 106.6 46.9149C107.352 46.285 108.327 45.9701 109.526 45.9701C109.79 45.9701 110.054 45.9803 110.318 46.0006C110.582 46.0209 110.867 46.0717 111.171 46.153ZM112.637 53.7113C112.637 52.1468 112.982 50.7753 113.673 49.5969C114.364 48.3981 115.319 47.4635 116.538 46.793C117.757 46.1225 119.139 45.7873 120.683 45.7873C122.247 45.7873 123.629 46.1225 124.828 46.793C126.047 47.4635 127.002 48.3981 127.692 49.5969C128.383 50.7753 128.729 52.1468 128.729 53.7113C128.729 55.2757 128.383 56.6574 127.692 57.8561C127.002 59.0346 126.047 59.959 124.828 60.6295C123.629 61.3 122.247 61.6353 120.683 61.6353C119.139 61.6353 117.757 61.3 116.538 60.6295C115.319 59.959 114.364 59.0346 113.673 57.8561C112.982 56.6574 112.637 55.2757 112.637 53.7113ZM116.355 53.7113C116.355 54.6256 116.538 55.4281 116.904 56.1189C117.29 56.8097 117.798 57.3482 118.427 57.7342C119.078 58.1202 119.829 58.3133 120.683 58.3133C121.536 58.3133 122.288 58.1202 122.938 57.7342C123.588 57.3482 124.096 56.8097 124.462 56.1189C124.828 55.4281 125.01 54.6256 125.01 53.7113C125.01 52.7766 124.828 51.9741 124.462 51.3036C124.096 50.6128 123.588 50.0743 122.938 49.6883C122.288 49.3023 121.536 49.1092 120.683 49.1092C119.829 49.1092 119.078 49.3023 118.427 49.6883C117.798 50.0743 117.29 50.6128 116.904 51.3036C116.538 51.9741 116.355 52.7766 116.355 53.7113ZM136.495 61.6657C134.91 61.6657 133.65 61.2391 132.715 60.3857C131.801 59.512 131.344 58.3742 131.344 56.9723C131.344 55.5907 131.821 54.4935 132.776 53.6808C133.752 52.8477 135.133 52.3601 136.921 52.2179L141.432 51.8522V51.5169C141.432 50.8261 141.3 50.2775 141.036 49.8712C140.792 49.4445 140.436 49.1397 139.969 48.9569C139.502 48.7537 138.953 48.6521 138.323 48.6521C137.226 48.6521 136.383 48.8756 135.794 49.3226C135.204 49.7493 134.91 50.3588 134.91 51.1512H131.74C131.74 50.054 132.015 49.1092 132.563 48.3168C133.132 47.5041 133.924 46.8743 134.94 46.4273C135.977 45.9803 137.165 45.7568 138.506 45.7568C139.867 45.7568 141.036 46.0006 142.011 46.4882C142.986 46.9555 143.738 47.6667 144.266 48.6216C144.794 49.5562 145.059 50.7245 145.059 52.1265V61.2695H141.798L141.523 59.0447C141.198 59.8168 140.568 60.4467 139.634 60.9343C138.719 61.4219 137.673 61.6657 136.495 61.6657ZM137.683 58.8619C138.841 58.8619 139.756 58.5368 140.426 57.8866C141.117 57.2364 141.462 56.3323 141.462 55.1741V54.3817L138.323 54.6256C137.165 54.7272 136.342 54.971 135.855 55.357C135.367 55.7227 135.123 56.2104 135.123 56.8199C135.123 57.4904 135.347 57.9983 135.794 58.3437C136.241 58.6892 136.87 58.8619 137.683 58.8619ZM148.166 53.7113C148.166 52.1671 148.481 50.7956 149.111 49.5969C149.761 48.3981 150.645 47.4635 151.762 46.793C152.9 46.1022 154.211 45.7568 155.694 45.7568C157.746 45.7568 159.422 46.2952 160.723 47.3721C162.043 48.4286 162.805 49.861 163.008 51.6693H159.29C159.067 50.8159 158.65 50.1759 158.041 49.7493C157.451 49.3023 156.71 49.0788 155.816 49.0788C155.044 49.0788 154.353 49.2718 153.743 49.6578C153.154 50.0235 152.697 50.5518 152.372 51.2426C152.047 51.9334 151.884 52.7563 151.884 53.7113C151.884 54.6662 152.037 55.4891 152.341 56.1799C152.646 56.8707 153.083 57.4091 153.652 57.7952C154.241 58.1609 154.932 58.3437 155.724 58.3437C156.659 58.3437 157.431 58.1202 158.041 57.6733C158.671 57.2263 159.087 56.5862 159.29 55.7532H163.039C162.876 56.9316 162.46 57.9679 161.789 58.8619C161.139 59.7355 160.296 60.4263 159.26 60.9343C158.224 61.4219 157.045 61.6657 155.724 61.6657C154.201 61.6657 152.87 61.3406 151.732 60.6905C150.594 60.02 149.71 59.0955 149.08 57.9171C148.471 56.7183 148.166 55.3164 148.166 53.7113ZM164.652 46.2139H174.16V49.3226H164.652V46.2139ZM171.265 61.2695H167.547V41.5205H171.265V61.2695ZM176.841 61.2695V46.2139H180.559V61.2695H176.841ZM178.67 43.1967C178.04 43.1967 177.501 42.9834 177.054 42.5567C176.628 42.1097 176.414 41.5713 176.414 40.9414C176.414 40.3116 176.628 39.7833 177.054 39.3566C177.501 38.9299 178.04 38.7166 178.67 38.7166C179.299 38.7166 179.828 38.9299 180.254 39.3566C180.701 39.7833 180.925 40.3116 180.925 40.9414C180.925 41.5713 180.701 42.1097 180.254 42.5567C179.828 42.9834 179.299 43.1967 178.67 43.1967ZM189.006 61.2695L183.033 46.2139H186.995L189.616 53.1322C189.941 54.0262 190.215 54.8491 190.439 55.6008C190.682 56.3323 190.855 56.9012 190.957 57.3075C191.058 56.8402 191.231 56.2408 191.475 55.5094C191.739 54.7576 192.033 53.9652 192.359 53.1322L195.101 46.2139H198.942L192.663 61.2695H189.006ZM207.439 61.6657C205.956 61.6657 204.635 61.3305 203.477 60.66C202.339 59.9692 201.445 59.0346 200.795 57.8561C200.145 56.6574 199.819 55.2859 199.819 53.7417C199.819 52.1772 200.134 50.7956 200.764 49.5969C201.394 48.3981 202.278 47.4635 203.416 46.793C204.554 46.1022 205.854 45.7568 207.317 45.7568C208.841 45.7568 210.151 46.0819 211.248 46.732C212.346 47.3619 213.189 48.2457 213.778 49.3835C214.387 50.5213 214.692 51.8826 214.692 53.4674V54.5951L201.77 54.6256L201.831 52.2484H211.005C211.005 51.2121 210.669 50.3791 209.999 49.7493C209.349 49.1194 208.465 48.8045 207.347 48.8045C206.474 48.8045 205.732 48.9873 205.122 49.3531C204.533 49.7188 204.086 50.2674 203.781 50.9988C203.477 51.7303 203.324 52.6242 203.324 53.6808C203.324 55.3062 203.67 56.5354 204.361 57.3685C205.072 58.2015 206.118 58.618 207.5 58.618C208.516 58.618 209.349 58.425 209.999 58.039C210.669 57.6529 211.106 57.1044 211.309 56.3932H214.753C214.428 58.039 213.615 59.3292 212.315 60.2638C211.035 61.1984 209.41 61.6657 207.439 61.6657ZM230.887 61.2695H227.108V38.9909H230.887L238.08 56.7285L245.273 38.9909H249.113V61.2695H245.334V54.4122C245.334 53.2947 245.334 52.3601 245.334 51.6083C245.334 50.8363 245.344 50.1861 245.364 49.6578C245.384 49.1296 245.405 48.6622 245.425 48.2559C245.445 47.8495 245.486 47.4432 245.547 47.0368L239.878 61.2695H236.282L230.644 47.0673C230.745 47.7378 230.806 48.5911 230.827 49.6273C230.867 50.6636 230.887 51.8826 230.887 53.2846V61.2695ZM258.314 61.6657C256.729 61.6657 255.469 61.2391 254.535 60.3857C253.62 59.512 253.163 58.3742 253.163 56.9723C253.163 55.5907 253.641 54.4935 254.595 53.6808C255.571 52.8477 256.952 52.3601 258.74 52.2179L263.251 51.8522V51.5169C263.251 50.8261 263.119 50.2775 262.855 49.8712C262.611 49.4445 262.255 49.1397 261.788 48.9569C261.321 48.7537 260.772 48.6521 260.142 48.6521C259.045 48.6521 258.202 48.8756 257.613 49.3226C257.023 49.7493 256.729 50.3588 256.729 51.1512H253.559C253.559 50.054 253.834 49.1092 254.382 48.3168C254.951 47.5041 255.743 46.8743 256.759 46.4273C257.796 45.9803 258.984 45.7568 260.325 45.7568C261.686 45.7568 262.855 46.0006 263.83 46.4882C264.805 46.9555 265.557 47.6667 266.085 48.6216C266.614 49.5562 266.878 50.7245 266.878 52.1265V61.2695H263.617L263.342 59.0447C263.017 59.8168 262.387 60.4467 261.453 60.9343C260.538 61.4219 259.492 61.6657 258.314 61.6657ZM259.502 58.8619C260.66 58.8619 261.575 58.5368 262.245 57.8866C262.936 57.2364 263.281 56.3323 263.281 55.1741V54.3817L260.142 54.6256C258.984 54.7272 258.161 54.971 257.674 55.357C257.186 55.7227 256.942 56.2104 256.942 56.8199C256.942 57.4904 257.166 57.9983 257.613 58.3437C258.06 58.6892 258.69 58.8619 259.502 58.8619ZM280.317 46.153V49.5969H278.945C277.584 49.5969 276.517 49.9626 275.745 50.694C274.973 51.4052 274.587 52.4922 274.587 53.9551V61.2695H270.869V46.2444H274.374L274.679 49.3531H274.313C274.516 48.3575 274.994 47.5448 275.745 46.9149C276.497 46.285 277.472 45.9701 278.671 45.9701C278.935 45.9701 279.199 45.9803 279.464 46.0006C279.728 46.0209 280.012 46.0717 280.317 46.153ZM286.921 61.2695H283.233V38.5947H286.921V52.5227L292.772 46.2139H297.435L291.706 52.1874L297.314 61.2695H293.047L289.115 54.9303L286.921 57.2161V61.2695ZM305.961 61.6657C304.478 61.6657 303.157 61.3305 301.999 60.66C300.861 59.9692 299.967 59.0346 299.317 57.8561C298.667 56.6574 298.342 55.2859 298.342 53.7417C298.342 52.1772 298.657 50.7956 299.286 49.5969C299.916 48.3981 300.8 47.4635 301.938 46.793C303.076 46.1022 304.376 45.7568 305.839 45.7568C307.363 45.7568 308.673 46.0819 309.771 46.732C310.868 47.3619 311.711 48.2457 312.3 49.3835C312.91 50.5213 313.214 51.8826 313.214 53.4674V54.5951L300.292 54.6256L300.353 52.2484H309.527C309.527 51.2121 309.191 50.3791 308.521 49.7493C307.871 49.1194 306.987 48.8045 305.87 48.8045C304.996 48.8045 304.254 48.9873 303.645 49.3531C303.055 49.7188 302.608 50.2674 302.304 50.9988C301.999 51.7303 301.847 52.6242 301.847 53.6808C301.847 55.3062 302.192 56.5354 302.883 57.3685C303.594 58.2015 304.64 58.618 306.022 58.618C307.038 58.618 307.871 58.425 308.521 58.039C309.191 57.6529 309.628 57.1044 309.832 56.3932H313.275C312.95 58.039 312.138 59.3292 310.837 60.2638C309.557 61.1984 307.932 61.6657 305.961 61.6657ZM314.887 46.2139H324.395V49.3226H314.887V46.2139ZM321.5 61.2695H317.782V41.5205H321.5V61.2695ZM327.076 61.2695V46.2139H330.794V61.2695H327.076ZM328.905 43.1967C328.275 43.1967 327.736 42.9834 327.289 42.5567C326.863 42.1097 326.649 41.5713 326.649 40.9414C326.649 40.3116 326.863 39.7833 327.289 39.3566C327.736 38.9299 328.275 38.7166 328.905 38.7166C329.535 38.7166 330.063 38.9299 330.489 39.3566C330.936 39.7833 331.16 40.3116 331.16 40.9414C331.16 41.5713 330.936 42.1097 330.489 42.5567C330.063 42.9834 329.535 43.1967 328.905 43.1967ZM338.693 61.2695H334.974V46.2139H338.418L338.723 48.1645C339.19 47.4127 339.851 46.8235 340.704 46.3968C341.578 45.9701 342.523 45.7568 343.538 45.7568C345.428 45.7568 346.85 46.3155 347.805 47.433C348.78 48.5505 349.268 50.0743 349.268 52.0045V61.2695H345.55V52.8884C345.55 51.6287 345.265 50.694 344.697 50.0845C344.128 49.4546 343.356 49.1397 342.38 49.1397C341.222 49.1397 340.318 49.5054 339.668 50.2369C339.018 50.9683 338.693 51.9436 338.693 53.1627V61.2695ZM352.407 53.4065C352.407 51.9436 352.701 50.6432 353.29 49.5054C353.9 48.3473 354.743 47.433 355.82 46.7625C356.897 46.092 358.146 45.7568 359.569 45.7568C360.849 45.7568 361.946 46.0412 362.86 46.6101C363.774 47.1587 364.414 47.9308 364.78 48.9264L364.384 49.2616L364.689 46.2139H368.133V60.5076C368.133 62.1737 367.808 63.6163 367.157 64.8353C366.528 66.0747 365.623 67.0195 364.445 67.6697C363.287 68.3402 361.885 68.6754 360.239 68.6754C358.085 68.6754 356.318 68.0964 354.936 66.9382C353.555 65.7801 352.742 64.1953 352.498 62.1838H356.216C356.338 63.1591 356.744 63.921 357.435 64.4696C358.146 65.0182 359.081 65.2925 360.239 65.2925C361.519 65.2925 362.535 64.9166 363.287 64.1648C364.059 63.4334 364.445 62.4378 364.445 61.1781V57.4294L364.872 57.8256C364.506 58.7806 363.835 59.5425 362.86 60.1114C361.885 60.6803 360.757 60.9648 359.477 60.9648C358.055 60.9648 356.816 60.6397 355.759 59.9895C354.702 59.3393 353.88 58.4453 353.29 57.3075C352.701 56.1697 352.407 54.8694 352.407 53.4065ZM356.155 53.3151C356.155 54.1684 356.318 54.9303 356.643 55.6008C356.988 56.251 357.466 56.7691 358.075 57.1551C358.685 57.5412 359.396 57.7342 360.209 57.7342C361.062 57.7342 361.793 57.5513 362.403 57.1856C363.033 56.7996 363.51 56.2815 363.835 55.6313C364.181 54.9608 364.353 54.1887 364.353 53.3151C364.353 52.4414 364.191 51.6896 363.866 51.0598C363.541 50.4096 363.063 49.9016 362.433 49.5359C361.824 49.1702 361.082 48.9873 360.209 48.9873C359.376 48.9873 358.654 49.1804 358.045 49.5664C357.435 49.9321 356.968 50.4401 356.643 51.0902C356.318 51.7404 356.155 52.482 356.155 53.3151Z" fill="white"/>
<circle cx="345" cy="174" r="46" fill="#0BEC27"/>
<rect x="139" y="305" width="193" height="20" rx="5" fill="#1B702C"/>
<rect x="164" y="335" width="144" height="20" rx="5" fill="#1B702C"/>
<rect x="120" y="275" width="232" height="20" rx="5" fill="#1B702C"/>
<g clip-path="url(#clip0_1521_1069)">
<path d="M126.515 204.91C129.443 204.91 132.252 206.073 134.322 208.144C136.393 210.215 137.557 213.023 137.557 215.952C137.557 213.023 138.72 210.215 140.791 208.144C142.861 206.073 145.67 204.91 148.598 204.91C145.67 204.91 142.861 203.746 140.791 201.676C138.72 199.605 137.557 196.796 137.557 193.868C137.557 196.796 136.393 199.605 134.322 201.676C132.252 203.746 129.443 204.91 126.515 204.91ZM126.515 138.659C129.443 138.659 132.252 139.822 134.322 141.893C136.393 143.963 137.557 146.772 137.557 149.7C137.557 146.772 138.72 143.963 140.791 141.893C142.861 139.822 145.67 138.659 148.598 138.659C145.67 138.659 142.861 137.495 140.791 135.424C138.72 133.354 137.557 130.545 137.557 127.617C137.557 130.545 136.393 133.354 134.322 135.424C132.252 137.495 129.443 138.659 126.515 138.659ZM87.8681 204.91C87.8681 196.124 91.3581 187.699 97.5703 181.486C103.783 175.274 112.208 171.784 120.994 171.784C112.208 171.784 103.783 168.294 97.5703 162.082C91.3581 155.87 87.8681 147.444 87.8681 138.659C87.8681 147.444 84.378 155.87 78.1658 162.082C71.9535 168.294 63.5279 171.784 54.7424 171.784C63.5279 171.784 71.9535 175.274 78.1658 181.486C84.378 187.699 87.8681 196.124 87.8681 204.91Z" stroke="url(#paint0_linear_1521_1069)" stroke-width="6" stroke-linecap="round" stroke-linejoin="round"/>
</g>
<path d="M240.294 158.706C240.02 158.429 239.677 158.23 239.3 158.132C238.924 158.033 238.527 158.038 238.153 158.147H238.136L208.147 167.245C207.721 167.369 207.343 167.618 207.062 167.962C206.781 168.305 206.611 168.726 206.575 169.167C206.539 169.609 206.638 170.052 206.859 170.436C207.08 170.821 207.412 171.129 207.812 171.32L221.181 177.826L227.675 191.187C227.85 191.562 228.128 191.879 228.478 192.1C228.827 192.322 229.232 192.439 229.645 192.437C229.708 192.437 229.772 192.437 229.834 192.43C230.277 192.395 230.699 192.225 231.042 191.943C231.386 191.661 231.634 191.281 231.755 190.853L240.848 160.864V160.847C240.957 160.473 240.963 160.077 240.866 159.7C240.768 159.323 240.57 158.98 240.294 158.706ZM239.044 160.331L229.958 190.317V190.334C229.94 190.396 229.904 190.452 229.854 190.492C229.804 190.533 229.743 190.557 229.678 190.562C229.614 190.566 229.55 190.551 229.495 190.517C229.439 190.484 229.396 190.434 229.37 190.375L223.014 177.316L230.67 169.659C230.757 169.572 230.826 169.469 230.874 169.355C230.921 169.241 230.945 169.119 230.945 168.996C230.945 168.873 230.921 168.751 230.874 168.637C230.826 168.523 230.757 168.42 230.67 168.333C230.583 168.246 230.48 168.177 230.366 168.129C230.252 168.082 230.13 168.058 230.007 168.058C229.884 168.058 229.762 168.082 229.648 168.129C229.534 168.177 229.431 168.246 229.344 168.333L221.687 175.989L208.617 169.625C208.559 169.598 208.511 169.554 208.479 169.499C208.447 169.443 208.432 169.38 208.438 169.316C208.443 169.252 208.468 169.192 208.508 169.142C208.549 169.093 208.604 169.058 208.666 169.041H208.683L238.669 159.95C238.721 159.935 238.777 159.935 238.83 159.949C238.883 159.963 238.931 159.992 238.969 160.031C239.007 160.07 239.035 160.118 239.049 160.17C239.064 160.223 239.064 160.278 239.05 160.331H239.044Z" fill="white"/>
<path d="M362.667 190V185.667C362.667 183.368 361.754 181.164 360.128 179.538C358.503 177.913 356.299 177 354 177H336.667C334.368 177 332.164 177.913 330.538 179.538C328.913 181.164 328 183.368 328 185.667V190" stroke="black" stroke-width="2" stroke-linecap="round" stroke-linejoin="round"/>
<path d="M345 171.833C349.786 171.833 353.667 167.953 353.667 163.167C353.667 158.38 349.786 154.5 345 154.5C340.213 154.5 336.333 158.38 336.333 163.167C336.333 167.953 340.213 171.833 345 171.833Z" stroke="black" stroke-width="2" stroke-linecap="round" stroke-linejoin="round"/>
<defs>
<linearGradient id="paint0_linear_1521_1069" x1="101.67" y1="127.617" x2="101.67" y2="215.952" gradientUnits="userSpaceOnUse">
<stop stop-color="#0DFF2B"/>
<stop offset="1" stop-color="#028A10"/>
</linearGradient>
<clipPath id="clip0_1521_1069">
<rect width="117" height="117" fill="white" transform="translate(47 115)"/>
</clipPath>
</defs>
</svg>
