<svg width="451" height="444" viewBox="0 0 451 444" fill="none" xmlns="http://www.w3.org/2000/svg">
<path d="M0 24.2018C0 10.8355 10.8355 0 24.2018 0H426.715C440.082 0 450.917 10.8355 450.917 24.2018V443.143H0V24.2018Z" fill="#16171B"/>
<path d="M64.1886 45.2082C64.1886 43.9078 64.5238 42.7599 65.1943 41.7643C65.8648 40.7687 66.7893 39.9966 67.9677 39.4481C69.1665 38.8792 70.5481 38.5947 72.1126 38.5947C73.6161 38.5947 74.9165 38.8588 76.0136 39.3871C77.1311 39.9154 77.9946 40.6671 78.6042 41.6424C79.234 42.6177 79.5693 43.7758 79.6099 45.1168H75.7089C75.6682 44.1618 75.3228 43.4202 74.6727 42.8919C74.0225 42.3434 73.1488 42.0691 72.0516 42.0691C70.8529 42.0691 69.8878 42.3434 69.1563 42.8919C68.4452 43.4202 68.0896 44.1517 68.0896 45.0863C68.0896 45.8787 68.303 46.5085 68.7297 46.9759C69.1767 47.4228 69.8675 47.7581 70.8021 47.9816L74.3069 48.774C76.2168 49.1804 77.6391 49.8813 78.5737 50.8769C79.5083 51.8522 79.9756 53.1728 79.9756 54.8389C79.9756 56.2002 79.6404 57.399 78.9699 58.4352C78.2994 59.4714 77.3445 60.274 76.1051 60.8429C74.886 61.3914 73.4536 61.6657 71.8078 61.6657C70.2433 61.6657 68.8719 61.4016 67.6934 60.8733C66.515 60.3247 65.5905 59.5628 64.92 58.5876C64.2699 57.6123 63.9245 56.4643 63.8838 55.1437H67.7849C67.8052 56.0783 68.1709 56.8199 68.882 57.3685C69.6135 57.8968 70.5989 58.1609 71.8383 58.1609C73.1387 58.1609 74.1647 57.8968 74.9165 57.3685C75.6886 56.8199 76.0746 56.0986 76.0746 55.2046C76.0746 54.4325 75.8714 53.823 75.4651 53.376C75.0587 52.9087 74.3984 52.5836 73.4841 52.4007L69.9487 51.6083C68.0592 51.202 66.6268 50.4705 65.6515 49.414C64.6762 48.3372 64.1886 46.9352 64.1886 45.2082ZM82.411 53.7113C82.411 52.1468 82.7564 50.7753 83.4472 49.5969C84.138 48.3981 85.093 47.4635 86.312 46.793C87.5311 46.1225 88.9127 45.7873 90.4569 45.7873C92.0214 45.7873 93.403 46.1225 94.6018 46.793C95.8208 47.4635 96.7758 48.3981 97.4666 49.5969C98.1574 50.7753 98.5028 52.1468 98.5028 53.7113C98.5028 55.2757 98.1574 56.6574 97.4666 57.8561C96.7758 59.0346 95.8208 59.959 94.6018 60.6295C93.403 61.3 92.0214 61.6353 90.4569 61.6353C88.9127 61.6353 87.5311 61.3 86.312 60.6295C85.093 59.959 84.138 59.0346 83.4472 57.8561C82.7564 56.6574 82.411 55.2757 82.411 53.7113ZM86.1292 53.7113C86.1292 54.6256 86.312 55.4281 86.6778 56.1189C87.0638 56.8097 87.5718 57.3482 88.2016 57.7342C88.8518 58.1202 89.6036 58.3133 90.4569 58.3133C91.3103 58.3133 92.062 58.1202 92.7122 57.7342C93.3624 57.3482 93.8703 56.8097 94.236 56.1189C94.6018 55.4281 94.7846 54.6256 94.7846 53.7113C94.7846 52.7766 94.6018 51.9741 94.236 51.3036C93.8703 50.6128 93.3624 50.0743 92.7122 49.6883C92.062 49.3023 91.3103 49.1092 90.4569 49.1092C89.6036 49.1092 88.8518 49.3023 88.2016 49.6883C87.5718 50.0743 87.0638 50.6128 86.6778 51.3036C86.312 51.9741 86.1292 52.7766 86.1292 53.7113ZM100.905 53.7113C100.905 52.1671 101.22 50.7956 101.85 49.5969C102.5 48.3981 103.384 47.4635 104.501 46.793C105.639 46.1022 106.949 45.7568 108.433 45.7568C110.485 45.7568 112.161 46.2952 113.461 47.3721C114.782 48.4286 115.544 49.861 115.747 51.6693H112.029C111.805 50.8159 111.389 50.1759 110.779 49.7493C110.19 49.3023 109.449 49.0788 108.555 49.0788C107.782 49.0788 107.092 49.2718 106.482 49.6578C105.893 50.0235 105.436 50.5518 105.111 51.2426C104.786 51.9334 104.623 52.7563 104.623 53.7113C104.623 54.6662 104.775 55.4891 105.08 56.1799C105.385 56.8707 105.822 57.4091 106.391 57.7952C106.98 58.1609 107.671 58.3437 108.463 58.3437C109.398 58.3437 110.17 58.1202 110.779 57.6733C111.409 57.2263 111.826 56.5862 112.029 55.7532H115.778C115.615 56.9316 115.199 57.9679 114.528 58.8619C113.878 59.7355 113.035 60.4263 111.998 60.9343C110.962 61.4219 109.784 61.6657 108.463 61.6657C106.939 61.6657 105.608 61.3406 104.471 60.6905C103.333 60.02 102.449 59.0955 101.819 57.9171C101.21 56.7183 100.905 55.3164 100.905 53.7113ZM118.884 61.2695V46.2139H122.602V61.2695H118.884ZM120.712 43.1967C120.082 43.1967 119.544 42.9834 119.097 42.5567C118.67 42.1097 118.457 41.5713 118.457 40.9414C118.457 40.3116 118.67 39.7833 119.097 39.3566C119.544 38.9299 120.082 38.7166 120.712 38.7166C121.342 38.7166 121.87 38.9299 122.297 39.3566C122.744 39.7833 122.968 40.3116 122.968 40.9414C122.968 41.5713 122.744 42.1097 122.297 42.5567C121.87 42.9834 121.342 43.1967 120.712 43.1967ZM131.262 61.6657C129.677 61.6657 128.418 61.2391 127.483 60.3857C126.569 59.512 126.111 58.3742 126.111 56.9723C126.111 55.5907 126.589 54.4935 127.544 53.6808C128.519 52.8477 129.901 52.3601 131.689 52.2179L136.199 51.8522V51.5169C136.199 50.8261 136.067 50.2775 135.803 49.8712C135.559 49.4445 135.204 49.1397 134.736 48.9569C134.269 48.7537 133.721 48.6521 133.091 48.6521C131.994 48.6521 131.15 48.8756 130.561 49.3226C129.972 49.7493 129.677 50.3588 129.677 51.1512H126.508C126.508 50.054 126.782 49.1092 127.331 48.3168C127.899 47.5041 128.692 46.8743 129.708 46.4273C130.744 45.9803 131.933 45.7568 133.274 45.7568C134.635 45.7568 135.803 46.0006 136.778 46.4882C137.754 46.9555 138.505 47.6667 139.034 48.6216C139.562 49.5562 139.826 50.7245 139.826 52.1265V61.2695H136.565L136.291 59.0447C135.966 59.8168 135.336 60.4467 134.401 60.9343C133.487 61.4219 132.441 61.6657 131.262 61.6657ZM132.451 58.8619C133.609 58.8619 134.523 58.5368 135.194 57.8866C135.884 57.2364 136.23 56.3323 136.23 55.1741V54.3817L133.091 54.6256C131.933 54.7272 131.11 54.971 130.622 55.357C130.134 55.7227 129.891 56.2104 129.891 56.8199C129.891 57.4904 130.114 57.9983 130.561 58.3437C131.008 58.6892 131.638 58.8619 132.451 58.8619ZM147.566 61.2695H143.878V38.5947H147.566V61.2695ZM164.808 38.9909V61.2695H160.907V38.9909H164.808ZM169.715 53.5893H163.863V50.115H168.892C170.233 50.115 171.249 49.7797 171.939 49.1092C172.651 48.4184 173.006 47.4635 173.006 46.2444C173.006 45.0253 172.651 44.0907 171.939 43.4405C171.249 42.7904 170.253 42.4653 168.953 42.4653H163.497V38.9909H169.715C171.218 38.9909 172.518 39.2957 173.616 39.9052C174.713 40.5147 175.566 41.3681 176.176 42.4653C176.785 43.5421 177.09 44.812 177.09 46.2749C177.09 47.6971 176.785 48.967 176.176 50.0845C175.566 51.1817 174.713 52.0452 173.616 52.675C172.518 53.2846 171.218 53.5893 169.715 53.5893ZM189.609 46.153V49.5969H188.238C186.877 49.5969 185.81 49.9626 185.038 50.694C184.266 51.4052 183.88 52.4922 183.88 53.9551V61.2695H180.162V46.2444H183.666L183.971 49.3531H183.605C183.809 48.3575 184.286 47.5448 185.038 46.9149C185.79 46.285 186.765 45.9701 187.964 45.9701C188.228 45.9701 188.492 45.9803 188.756 46.0006C189.02 46.0209 189.305 46.0717 189.609 46.153ZM191.075 53.7113C191.075 52.1468 191.42 50.7753 192.111 49.5969C192.802 48.3981 193.757 47.4635 194.976 46.793C196.195 46.1225 197.577 45.7873 199.121 45.7873C200.685 45.7873 202.067 46.1225 203.266 46.793C204.485 47.4635 205.44 48.3981 206.131 49.5969C206.821 50.7753 207.167 52.1468 207.167 53.7113C207.167 55.2757 206.821 56.6574 206.131 57.8561C205.44 59.0346 204.485 59.959 203.266 60.6295C202.067 61.3 200.685 61.6353 199.121 61.6353C197.577 61.6353 196.195 61.3 194.976 60.6295C193.757 59.959 192.802 59.0346 192.111 57.8561C191.42 56.6574 191.075 55.2757 191.075 53.7113ZM194.793 53.7113C194.793 54.6256 194.976 55.4281 195.342 56.1189C195.728 56.8097 196.236 57.3482 196.866 57.7342C197.516 58.1202 198.268 58.3133 199.121 58.3133C199.974 58.3133 200.726 58.1202 201.376 57.7342C202.026 57.3482 202.534 56.8097 202.9 56.1189C203.266 55.4281 203.449 54.6256 203.449 53.7113C203.449 52.7766 203.266 51.9741 202.9 51.3036C202.534 50.6128 202.026 50.0743 201.376 49.6883C200.726 49.3023 199.974 49.1092 199.121 49.1092C198.268 49.1092 197.516 49.3023 196.866 49.6883C196.236 50.0743 195.728 50.6128 195.342 51.3036C194.976 51.9741 194.793 52.7766 194.793 53.7113ZM209.569 53.7113C209.569 52.1468 209.914 50.7753 210.605 49.5969C211.296 48.3981 212.251 47.4635 213.47 46.793C214.689 46.1225 216.071 45.7873 217.615 45.7873C219.179 45.7873 220.561 46.1225 221.76 46.793C222.979 47.4635 223.934 48.3981 224.624 49.5969C225.315 50.7753 225.661 52.1468 225.661 53.7113C225.661 55.2757 225.315 56.6574 224.624 57.8561C223.934 59.0346 222.979 59.959 221.76 60.6295C220.561 61.3 219.179 61.6353 217.615 61.6353C216.071 61.6353 214.689 61.3 213.47 60.6295C212.251 59.959 211.296 59.0346 210.605 57.8561C209.914 56.6574 209.569 55.2757 209.569 53.7113ZM213.287 53.7113C213.287 54.6256 213.47 55.4281 213.836 56.1189C214.222 56.8097 214.73 57.3482 215.359 57.7342C216.01 58.1202 216.761 58.3133 217.615 58.3133C218.468 58.3133 219.22 58.1202 219.87 57.7342C220.52 57.3482 221.028 56.8097 221.394 56.1189C221.76 55.4281 221.942 54.6256 221.942 53.7113C221.942 52.7766 221.76 51.9741 221.394 51.3036C221.028 50.6128 220.52 50.0743 219.87 49.6883C219.22 49.3023 218.468 49.1092 217.615 49.1092C216.761 49.1092 216.01 49.3023 215.359 49.6883C214.73 50.0743 214.222 50.6128 213.836 51.3036C213.47 51.9741 213.287 52.7766 213.287 53.7113ZM227.394 46.2139H236.841V49.3226H227.394V46.2139ZM236.872 38.7471V41.9167C236.669 41.9167 236.455 41.9167 236.232 41.9167C236.029 41.9167 235.815 41.9167 235.592 41.9167C234.657 41.9167 234.027 42.1402 233.702 42.5872C233.398 43.0342 233.245 43.6336 233.245 44.3853V61.2695H229.557V44.3853C229.557 43.0037 229.781 41.8964 230.228 41.0633C230.675 40.21 231.305 39.5903 232.118 39.2042C232.93 38.7979 233.875 38.5947 234.952 38.5947C235.257 38.5947 235.572 38.6049 235.897 38.6252C236.242 38.6455 236.567 38.6861 236.872 38.7471ZM252.822 48.3473L254.407 50.3893C253.513 50.8159 252.781 51.2629 252.212 51.7303C251.664 52.1976 251.257 52.6954 250.993 53.2236C250.729 53.7519 250.597 54.3411 250.597 54.9913C250.597 56.0885 251.003 56.9418 251.816 57.5513C252.649 58.1609 253.777 58.4657 255.199 58.4657C257.292 58.4657 258.907 57.785 260.045 56.4237C261.203 55.0421 261.782 53.1119 261.782 50.6331H265.409C265.409 52.8477 264.972 54.7881 264.098 56.4542C263.225 58.0999 261.985 59.38 260.38 60.2943C258.795 61.2086 256.926 61.6657 254.772 61.6657C253.167 61.6657 251.755 61.4016 250.536 60.8733C249.317 60.3247 248.362 59.5831 247.671 58.6485C247.001 57.7139 246.666 56.6167 246.666 55.357C246.666 54.3817 246.899 53.4674 247.367 52.6141C247.834 51.7607 248.525 50.9785 249.439 50.2674C250.353 49.5562 251.481 48.9162 252.822 48.3473ZM256.144 49.7493L254.376 47.6463C255.331 47.1587 256.032 46.5797 256.479 45.9092C256.946 45.2387 257.18 44.4869 257.18 43.6539C257.18 43.0037 256.997 42.4957 256.632 42.13C256.286 41.7643 255.788 41.5814 255.138 41.5814C254.468 41.5814 253.939 41.7745 253.553 42.1605C253.167 42.5262 252.974 43.0342 252.974 43.6843C252.974 44.0704 253.035 44.4463 253.157 44.812C253.299 45.1777 253.523 45.5841 253.828 46.0311C254.153 46.4781 254.579 47.0063 255.108 47.6159L267.298 61.2695H262.971L252.121 49.0788C251.146 47.9816 250.455 47.0368 250.049 46.2444C249.642 45.4317 249.439 44.5885 249.439 43.7148C249.439 42.7192 249.683 41.8456 250.17 41.0938C250.678 40.3217 251.359 39.7223 252.212 39.2957C253.066 38.8487 254.041 38.6252 255.138 38.6252C256.235 38.6252 257.19 38.8284 258.003 39.2347C258.836 39.6411 259.486 40.2201 259.954 40.9719C260.421 41.7033 260.654 42.5567 260.654 43.532C260.654 44.7104 260.299 45.7974 259.588 46.793C258.877 47.7683 257.729 48.7537 256.144 49.7493ZM276.565 45.2082C276.565 43.9078 276.9 42.7599 277.57 41.7643C278.241 40.7687 279.165 39.9966 280.344 39.4481C281.543 38.8792 282.924 38.5947 284.489 38.5947C285.992 38.5947 287.293 38.8588 288.39 39.3871C289.507 39.9154 290.371 40.6671 290.98 41.6424C291.61 42.6177 291.945 43.7758 291.986 45.1168H288.085C288.044 44.1618 287.699 43.4202 287.049 42.8919C286.399 42.3434 285.525 42.0691 284.428 42.0691C283.229 42.0691 282.264 42.3434 281.532 42.8919C280.821 43.4202 280.466 44.1517 280.466 45.0863C280.466 45.8787 280.679 46.5085 281.106 46.9759C281.553 47.4228 282.244 47.7581 283.178 47.9816L286.683 48.774C288.593 49.1804 290.015 49.8813 290.95 50.8769C291.884 51.8522 292.352 53.1728 292.352 54.8389C292.352 56.2002 292.017 57.399 291.346 58.4352C290.676 59.4714 289.721 60.274 288.481 60.8429C287.262 61.3914 285.83 61.6657 284.184 61.6657C282.619 61.6657 281.248 61.4016 280.07 60.8733C278.891 60.3247 277.967 59.5628 277.296 58.5876C276.646 57.6123 276.301 56.4643 276.26 55.1437H280.161C280.181 56.0783 280.547 56.8199 281.258 57.3685C281.99 57.8968 282.975 58.1609 284.214 58.1609C285.515 58.1609 286.541 57.8968 287.293 57.3685C288.065 56.8199 288.451 56.0986 288.451 55.2046C288.451 54.4325 288.248 53.823 287.841 53.376C287.435 52.9087 286.775 52.5836 285.86 52.4007L282.325 51.6083C280.435 51.202 279.003 50.4705 278.028 49.414C277.052 48.3372 276.565 46.9352 276.565 45.2082ZM299.389 61.2695H295.671V38.5947H299.42V48.1645C299.887 47.433 300.537 46.8539 301.37 46.4273C302.224 45.9803 303.199 45.7568 304.296 45.7568C306.145 45.7568 307.547 46.3155 308.502 47.433C309.477 48.5505 309.965 50.0743 309.965 52.0045V61.2695H306.246V52.8884C306.246 52.035 306.114 51.3341 305.85 50.7855C305.586 50.2369 305.22 49.8305 304.753 49.5664C304.286 49.2819 303.737 49.1397 303.107 49.1397C302.335 49.1397 301.665 49.3124 301.096 49.6578C300.547 49.9829 300.121 50.4401 299.816 51.0293C299.531 51.6185 299.389 52.289 299.389 53.0408V61.2695ZM318.437 61.6657C316.852 61.6657 315.592 61.2391 314.657 60.3857C313.743 59.512 313.286 58.3742 313.286 56.9723C313.286 55.5907 313.763 54.4935 314.718 53.6808C315.694 52.8477 317.075 52.3601 318.863 52.2179L323.374 51.8522V51.5169C323.374 50.8261 323.242 50.2775 322.978 49.8712C322.734 49.4445 322.378 49.1397 321.911 48.9569C321.444 48.7537 320.895 48.6521 320.265 48.6521C319.168 48.6521 318.325 48.8756 317.736 49.3226C317.146 49.7493 316.852 50.3588 316.852 51.1512H313.682C313.682 50.054 313.956 49.1092 314.505 48.3168C315.074 47.5041 315.866 46.8743 316.882 46.4273C317.918 45.9803 319.107 45.7568 320.448 45.7568C321.809 45.7568 322.978 46.0006 323.953 46.4882C324.928 46.9555 325.68 47.6667 326.208 48.6216C326.736 49.5562 327.001 50.7245 327.001 52.1265V61.2695H323.74L323.465 59.0447C323.14 59.8168 322.51 60.4467 321.576 60.9343C320.661 61.4219 319.615 61.6657 318.437 61.6657ZM319.625 58.8619C320.783 58.8619 321.698 58.5368 322.368 57.8866C323.059 57.2364 323.404 56.3323 323.404 55.1741V54.3817L320.265 54.6256C319.107 54.7272 318.284 54.971 317.797 55.357C317.309 55.7227 317.065 56.2104 317.065 56.8199C317.065 57.4904 317.289 57.9983 317.736 58.3437C318.183 58.6892 318.812 58.8619 319.625 58.8619ZM340.44 46.153V49.5969H339.068C337.707 49.5969 336.64 49.9626 335.868 50.694C335.096 51.4052 334.71 52.4922 334.71 53.9551V61.2695H330.992V46.2444H334.497L334.802 49.3531H334.436C334.639 48.3575 335.116 47.5448 335.868 46.9149C336.62 46.285 337.595 45.9701 338.794 45.9701C339.058 45.9701 339.322 45.9803 339.586 46.0006C339.851 46.0209 340.135 46.0717 340.44 46.153ZM343.295 61.2695V46.2139H347.013V61.2695H343.295ZM345.124 43.1967C344.494 43.1967 343.955 42.9834 343.508 42.5567C343.082 42.1097 342.868 41.5713 342.868 40.9414C342.868 40.3116 343.082 39.7833 343.508 39.3566C343.955 38.9299 344.494 38.7166 345.124 38.7166C345.754 38.7166 346.282 38.9299 346.709 39.3566C347.156 39.7833 347.379 40.3116 347.379 40.9414C347.379 41.5713 347.156 42.1097 346.709 42.5567C346.282 42.9834 345.754 43.1967 345.124 43.1967ZM354.912 61.2695H351.193V46.2139H354.637L354.942 48.1645C355.409 47.4127 356.07 46.8235 356.923 46.3968C357.797 45.9701 358.742 45.7568 359.757 45.7568C361.647 45.7568 363.069 46.3155 364.024 47.433C364.999 48.5505 365.487 50.0743 365.487 52.0045V61.2695H361.769V52.8884C361.769 51.6287 361.484 50.694 360.916 50.0845C360.347 49.4546 359.575 49.1397 358.599 49.1397C357.441 49.1397 356.537 49.5054 355.887 50.2369C355.237 50.9683 354.912 51.9436 354.912 53.1627V61.2695ZM368.626 53.4065C368.626 51.9436 368.92 50.6432 369.509 49.5054C370.119 48.3473 370.962 47.433 372.039 46.7625C373.116 46.092 374.365 45.7568 375.788 45.7568C377.068 45.7568 378.165 46.0412 379.079 46.6101C379.993 47.1587 380.633 47.9308 380.999 48.9264L380.603 49.2616L380.908 46.2139H384.352V60.5076C384.352 62.1737 384.027 63.6163 383.376 64.8353C382.747 66.0747 381.842 67.0195 380.664 67.6697C379.506 68.3402 378.104 68.6754 376.458 68.6754C374.304 68.6754 372.537 68.0964 371.155 66.9382C369.774 65.7801 368.961 64.1953 368.717 62.1838H372.435C372.557 63.1591 372.963 63.921 373.654 64.4696C374.365 65.0182 375.3 65.2925 376.458 65.2925C377.738 65.2925 378.754 64.9166 379.506 64.1648C380.278 63.4334 380.664 62.4378 380.664 61.1781V57.4294L381.091 57.8256C380.725 58.7806 380.054 59.5425 379.079 60.1114C378.104 60.6803 376.976 60.9648 375.696 60.9648C374.274 60.9648 373.035 60.6397 371.978 59.9895C370.922 59.3393 370.099 58.4453 369.509 57.3075C368.92 56.1697 368.626 54.8694 368.626 53.4065ZM372.374 53.3151C372.374 54.1684 372.537 54.9303 372.862 55.6008C373.207 56.251 373.685 56.7691 374.294 57.1551C374.904 57.5412 375.615 57.7342 376.428 57.7342C377.281 57.7342 378.012 57.5513 378.622 57.1856C379.252 56.7996 379.729 56.2815 380.054 55.6313C380.4 54.9608 380.573 54.1887 380.573 53.3151C380.573 52.4414 380.41 51.6896 380.085 51.0598C379.76 50.4096 379.282 49.9016 378.652 49.5359C378.043 49.1702 377.301 48.9873 376.428 48.9873C375.595 48.9873 374.873 49.1804 374.264 49.5664C373.654 49.9321 373.187 50.4401 372.862 51.0902C372.537 51.7404 372.374 52.482 372.374 53.3151Z" fill="white"/>
<circle cx="229" cy="249" r="135" fill="#002C05"/>
<circle cx="229" cy="249" r="115" fill="#001B03"/>
<circle cx="229" cy="250" r="95" fill="black"/>
<g clip-path="url(#clip0_1521_1115)">
<path d="M214 148.75C214 152.728 215.58 156.544 218.393 159.357C221.206 162.17 225.022 163.75 229 163.75C232.978 163.75 236.794 162.17 239.607 159.357C242.42 156.544 244 152.728 244 148.75C244 144.772 242.42 140.956 239.607 138.143C236.794 135.33 232.978 133.75 229 133.75C225.022 133.75 221.206 135.33 218.393 138.143C215.58 140.956 214 144.772 214 148.75Z" stroke="white" stroke-width="4" stroke-linecap="round" stroke-linejoin="round"/>
<path d="M215.875 139.375L212.125 130H191.5L200.8 151.705C201.379 153.055 202.341 154.205 203.568 155.013C204.794 155.821 206.231 156.251 207.7 156.25H215.875" stroke="white" stroke-width="4" stroke-linecap="round" stroke-linejoin="round"/>
<path d="M242.125 139.375L245.875 130H266.5L257.2 151.705C256.621 153.055 255.659 154.205 254.432 155.013C253.206 155.821 251.769 156.251 250.3 156.25H242.125" stroke="white" stroke-width="4" stroke-linecap="round" stroke-linejoin="round"/>
</g>
<g clip-path="url(#clip1_1521_1115)">
<path d="M140 303V313L145 318" stroke="white" stroke-width="4" stroke-linecap="round" stroke-linejoin="round"/>
<path d="M117.625 310.5C118.185 305 120.751 299.899 124.832 296.17C128.913 292.441 134.224 290.345 139.752 290.282C145.28 290.219 150.638 292.193 154.803 295.828C158.968 299.463 161.65 304.504 162.335 309.989C163.021 315.475 161.663 321.021 158.521 325.57C155.379 330.118 150.672 333.35 145.298 334.65C139.925 335.949 134.261 335.225 129.387 332.615C124.514 330.006 120.772 325.693 118.875 320.5M117.625 333V320.5H130.125" stroke="white" stroke-width="4" stroke-linecap="round" stroke-linejoin="round"/>
</g>
<path d="M315.375 281.75L286.625 316.25H312.5L309.625 339.25L338.375 304.75H312.5L315.375 281.75Z" stroke="white" stroke-width="4" stroke-linecap="round" stroke-linejoin="round"/>
<g clip-path="url(#clip2_1521_1115)">
<path d="M238.651 271.403C240.553 271.403 242.377 272.158 243.722 273.504C245.067 274.849 245.823 276.673 245.823 278.575C245.823 276.673 246.579 274.849 247.924 273.504C249.269 272.158 251.093 271.403 252.996 271.403C251.093 271.403 249.269 270.647 247.924 269.302C246.579 267.957 245.823 266.133 245.823 264.23C245.823 266.133 245.067 267.957 243.722 269.302C242.377 270.647 240.553 271.403 238.651 271.403ZM238.651 228.368C240.553 228.368 242.377 229.123 243.722 230.469C245.067 231.814 245.823 233.638 245.823 235.54C245.823 233.638 246.579 231.814 247.924 230.469C249.269 229.123 251.093 228.368 252.996 228.368C251.093 228.368 249.269 227.612 247.924 226.267C246.579 224.922 245.823 223.098 245.823 221.195C245.823 223.098 245.067 224.922 243.722 226.267C242.377 227.612 240.553 228.368 238.651 228.368ZM213.547 271.403C213.547 265.696 215.814 260.223 219.849 256.188C223.884 252.152 229.358 249.885 235.064 249.885C229.358 249.885 223.884 247.618 219.849 243.583C215.814 239.548 213.547 234.075 213.547 228.368C213.547 234.075 211.28 239.548 207.244 243.583C203.209 247.618 197.736 249.885 192.029 249.885C197.736 249.885 203.209 252.152 207.244 256.188C211.28 260.223 213.547 265.696 213.547 271.403Z" stroke="url(#paint0_linear_1521_1115)" stroke-width="6" stroke-linecap="round" stroke-linejoin="round"/>
</g>
<defs>
<linearGradient id="paint0_linear_1521_1115" x1="222.512" y1="221.195" x2="222.512" y2="278.575" gradientUnits="userSpaceOnUse">
<stop stop-color="#0DFF2B"/>
<stop offset="1" stop-color="#028A10"/>
</linearGradient>
<clipPath id="clip0_1521_1115">
<rect width="90" height="90" fill="white" transform="translate(184 100)"/>
</clipPath>
<clipPath id="clip1_1521_1115">
<rect width="60" height="60" fill="white" transform="translate(110 283)"/>
</clipPath>
<clipPath id="clip2_1521_1115">
<rect width="76" height="76" fill="white" transform="translate(187 213)"/>
</clipPath>
</defs>
</svg>
