<svg width="95" height="95" viewBox="0 0 95 95" fill="none" xmlns="http://www.w3.org/2000/svg">
<path d="M91.8877 29.8926C90.693 26.7122 89.1696 23.6617 87.3836 20.7752C86.8124 19.8521 85.2891 19.4666 84.6884 20.5681C84.0554 21.7284 83.3518 22.691 83.0506 23.102C83.0478 23.1058 83.045 23.1097 83.0422 23.1135C82.5481 23.7917 82.4954 24.6962 82.9074 25.4272C86.4302 31.6774 88.5604 38.7173 88.6263 45.8751C88.6376 46.8051 88.6196 47.9556 88.5506 48.88C88.4941 49.836 88.3822 50.922 88.2229 51.8667C87.8184 54.4885 87.0307 57.0854 86.1775 59.5941C85.9752 60.1219 85.6904 60.9412 85.4644 61.4542L85.0813 62.3741C84.9378 62.6725 84.5943 63.4454 84.4519 63.7336C84.3049 64.0173 83.9241 64.7766 83.7716 65.0693C83.3049 65.9146 82.7771 66.8571 82.2618 67.6662C79.8401 71.4859 76.7911 74.928 73.3185 77.8233C69.8356 80.714 65.8928 83.0849 61.6957 84.7845C60.8007 85.1393 59.769 85.5088 58.8615 85.8072C58.5631 85.9021 57.6941 86.153 57.4206 86.2389C57.0873 86.3327 56.3166 86.5169 55.9651 86.6163C40.9273 90.2506 24.061 84.3234 14.5402 72.139C7.90443 63.6974 4.72896 52.477 6.2828 41.8295C7.89429 31.1074 14.3424 21.4069 22.8371 14.7768C35.5147 4.82661 54.2845 3.22516 68.5894 10.6301C69.5571 11.131 71.0378 10.9682 71.8779 10.2743C72.585 9.69013 72.7165 9.32014 73.3594 8.63687C74.2243 7.71765 73.8965 6.59506 72.9774 6.04857C72.4829 5.75455 71.9758 5.46392 71.5905 5.2685C54.401 -3.54493 32.0167 -1.20454 17.4015 11.5675C8.69888 19.0689 2.26429 29.4802 0.512671 40.956C-2.38934 59.4835 7.25352 78.9749 23.7288 87.9182C32.1749 92.6351 42.0392 94.8557 51.6945 93.8963C52.7511 93.8059 54.1231 93.6024 55.165 93.4171C56.6691 93.1538 58.2433 92.7945 59.7101 92.3696C65.6667 90.6858 71.2854 87.7905 76.1967 84.0308C80.483 80.7287 84.28 76.7407 87.2973 72.2476C88.485 70.4982 89.5744 68.5918 90.5191 66.7023C90.8887 65.9327 91.3995 64.832 91.7215 64.0353C91.9871 63.433 92.334 62.4714 92.5714 61.8498C92.6878 61.487 93.0098 60.5367 93.1172 60.1852C93.2596 59.6382 93.4529 59.0416 93.5828 58.4957C94.0371 56.6345 94.3919 54.6512 94.61 52.7494C95.6191 45.0355 94.6552 37.1566 91.8877 29.8926Z" fill="black"/>
<path d="M87.2963 6.32237C86.4673 4.94322 84.6773 4.49721 83.2982 5.32621C82.9423 5.54016 82.6148 5.77907 82.2946 6.02456C80.8278 7.11874 79.294 8.88023 78.0566 10.2072C67.1867 21.93 57.3361 34.6909 49.2091 48.4965C48.4005 49.8409 47.5621 51.3163 46.8836 52.732C46.2306 54.0664 45.5348 55.5365 44.9136 56.8937C40.6387 49.0677 33.9129 40.4794 25.9293 36.965C22.7373 35.6443 19.5789 39.0054 21.1595 42.1248C21.628 43.0445 22.175 43.9025 22.7224 44.767C25.391 48.9713 28.5272 52.8114 31.2986 56.9279C34.8223 62.085 37.7902 67.5455 40.6606 73.0791C42.6379 76.8104 48.2385 76.2508 49.4176 72.1582C51.3972 67.9936 53.4318 63.8795 55.6077 59.8229C56.3027 58.5071 57.1055 57.106 57.7734 55.781C58.4229 54.479 59.1527 52.9734 59.8279 51.6807C65.4252 40.7232 72.1408 30.3905 79.4025 20.4329C80.6331 18.7544 82.3136 16.4821 83.5729 14.8221C84.3736 13.7493 85.657 12.1674 86.345 11.0525C86.7733 10.3799 87.1753 9.69365 87.4864 8.94928C87.8325 8.12138 87.7927 7.14923 87.2963 6.32237Z" fill="black"/>
</svg>
