<svg width="100" height="100" viewBox="0 0 100 100" fill="none" xmlns="http://www.w3.org/2000/svg">
<path d="M92.9688 76.6402C92.8992 75.8498 92.6584 75.084 92.2631 74.396C91.8678 73.7079 91.3275 73.1141 90.6798 72.6558L75.0821 61.5152L82.3556 54.2418C84.0785 52.5363 85.3531 50.4313 86.066 48.1141C86.7788 45.797 86.9078 43.3396 86.4415 40.9605C84.6639 32.2119 79.8674 24.3665 72.8907 18.7965C65.8182 13.0928 56.9758 10.038 47.8907 10.1598C37.9359 10.3295 28.4364 14.3596 21.3963 21.3997C14.3562 28.4398 10.3261 37.9394 10.1563 47.8941C10.0434 56.9778 13.0972 65.8172 18.7931 72.8941C24.3605 79.87 32.2031 84.6665 40.9493 86.4449C43.3284 86.9113 45.7858 86.7823 48.1029 86.0694C50.4201 85.3565 52.525 84.0819 54.2306 82.359L61.504 75.0855L72.6563 90.6793C73.1146 91.327 73.7084 91.8673 74.3964 92.2626C75.0845 92.6579 75.8503 92.8987 76.6407 92.9683C76.7931 92.9683 76.9454 92.9879 77.0938 92.9879C78.5429 92.9869 79.9324 92.4109 80.9571 91.3863L91.3673 80.9801C91.9351 80.4177 92.3728 79.7376 92.6495 78.9878C92.9262 78.238 93.0352 77.4367 92.9688 76.6402ZM22.4493 69.9527C17.4371 63.7261 14.7482 55.9493 14.8438 47.9566C14.9964 39.2221 18.5341 30.888 24.7113 24.7108C30.8884 18.5336 39.2226 14.9959 47.9571 14.8433C55.9488 14.7495 63.7247 17.4367 69.9532 22.4449C73.0616 24.9503 75.7059 27.982 77.7657 31.4019L31.4063 77.7808C27.9843 75.7174 24.9524 73.0676 22.4493 69.9527ZM88.0509 77.6441L77.6446 88.0504C77.5646 88.1278 77.4689 88.1872 77.364 88.2247C77.2592 88.2621 77.1475 88.2767 77.0365 88.2674C76.9255 88.2582 76.8178 88.2253 76.7206 88.171C76.6234 88.1168 76.5389 88.0423 76.4727 87.9527L63.7227 70.1051C63.5223 69.8276 63.2634 69.5975 62.9645 69.4308C62.6655 69.2641 62.3337 69.1649 61.9923 69.1402H61.8009C61.1795 69.1408 60.5837 69.3881 60.1446 69.8277L50.9142 79.0543C49.7528 80.2304 48.319 81.1014 46.7401 81.59C45.1612 82.0786 43.486 82.1697 41.8634 81.8551C39.7906 81.4416 37.7637 80.824 35.8126 80.0113L80.0001 35.8121C80.8123 37.7634 81.4299 39.7902 81.8438 41.8629C82.1587 43.4858 82.0673 45.1614 81.578 46.7405C81.0887 48.3195 80.2165 49.7531 79.0391 50.9137L69.8126 60.1558C69.5721 60.3964 69.3869 60.6864 69.2698 61.0057C69.1527 61.325 69.1064 61.666 69.1343 62.0049C69.1622 62.3439 69.2635 62.6727 69.4312 62.9686C69.5989 63.2645 69.829 63.5203 70.1056 63.7183L87.9532 76.4683C88.0428 76.5345 88.1173 76.619 88.1715 76.7162C88.2258 76.8134 88.2587 76.9212 88.2679 77.0321C88.2772 77.1431 88.2626 77.2548 88.2252 77.3596C88.1877 77.4645 88.1283 77.5602 88.0509 77.6402V77.6441Z" fill="#013606"/>
</svg>
