<svg width="68" height="68" viewBox="0 0 68 68" fill="none" xmlns="http://www.w3.org/2000/svg">
<circle cx="34" cy="34" r="33" fill="black" stroke="#4EF162" stroke-width="2"/>
<path d="M45.0598 15.3234C40.3306 12.5956 34.2966 14.2213 31.5562 18.9449L29.7687 22.0429C28.8974 23.5528 28.441 25.2664 28.446 27.0097C28.4509 28.7529 28.917 30.4639 29.7968 31.9688L29.1902 36.5897C28.9369 38.4758 28.3316 40.3056 27.3745 41.9524L26.1781 44.0215L26.1795 44.0229L22.4623 50.4975C22.2114 50.9504 22.1481 51.4835 22.286 51.9825C22.4238 52.4816 22.7518 52.9066 23.1996 53.1664C23.6474 53.4263 24.1792 53.5001 24.6808 53.3722C25.1825 53.2442 25.6139 52.9247 25.8826 52.4821L29.6125 46.0075L30.8088 43.9384C31.7659 42.2916 33.0327 40.8419 34.5387 39.6877L38.2208 36.8712C39.9749 36.8887 41.7023 36.4401 43.2263 35.5714C44.7504 34.7026 46.0164 33.4449 46.8952 31.9266L48.6828 28.8272L48.6856 28.823C51.3922 24.0866 49.7905 18.0512 45.0598 15.3234ZM40.0927 34.5544C39.2665 34.7487 38.4139 34.8058 37.5691 34.7233L37.6254 34.7276L36.3263 32.2686L38.8175 32.1842L40.073 34.5587L40.0927 34.5544ZM42.9993 33.2004C42.3926 33.6564 41.7255 34.0168 41.0231 34.2758L39.9013 32.156L42.3926 32.0716L42.9922 33.206L42.9993 33.2004ZM44.3223 31.9407C44.1421 32.1574 43.9521 32.3624 43.7523 32.5557L43.4764 32.0293L44.2674 32.0054L44.3223 31.9407ZM45.0683 30.8681L44.9867 31.0061L42.9838 31.0722L41.8155 28.8765L44.3068 28.792L45.2484 30.5557L45.0683 30.8681ZM46.3125 28.7132L45.8255 29.5577L45.3906 28.7498L46.3125 28.7132ZM47.1739 27.1522C47.076 27.3639 46.9695 27.5715 46.8544 27.7744L46.8812 27.7265L44.8839 27.7927L43.7157 25.5828L46.207 25.4984L47.1359 27.2353L47.1739 27.1522ZM47.7411 25.4027C47.6989 25.6148 47.6473 25.8259 47.5863 26.0361L47.2626 25.4562L47.7327 25.4449L47.7411 25.4027ZM47.7144 22.2498C47.8692 22.9761 47.9227 23.7249 47.8678 24.4737L46.7559 24.5131L45.5877 22.3174L47.7144 22.2498ZM46.2238 19.0688C46.7545 19.7444 47.1641 20.496 47.4456 21.2927L45.081 21.3743L43.8986 19.1504L46.2238 19.0688ZM44.0042 17.1532C44.4954 17.4347 44.9416 17.764 45.3456 18.1286L43.3919 18.1947L42.4883 16.4818C43.0162 16.6506 43.5244 16.8757 44.0042 17.1532ZM38.7176 16.2439C39.5499 16.0892 40.402 16.0721 41.2399 16.1932L42.3222 18.2229L39.831 18.3073L38.7176 16.2439ZM35.7393 17.4684C36.3605 17.0467 37.0387 16.7159 37.7535 16.486L38.7472 18.3496L36.2559 18.4481L35.7393 17.4684ZM34.5148 18.5016C34.6602 18.3505 34.8104 18.2069 34.9652 18.0709L35.1862 18.4762L34.5148 18.5016ZM33.4254 19.933C33.5136 19.7857 33.6056 19.6421 33.7013 19.5023L35.6929 19.4334L36.8611 21.6291L34.3698 21.7135L33.4254 19.933ZM32.3501 21.7952L32.8525 20.9253L33.3001 21.7558L32.3501 21.7952ZM31.597 23.1L31.78 22.7805L33.7927 22.7129L34.961 24.9227L32.4697 25.0072L31.5253 23.2266L31.597 23.1ZM30.7934 25.0747C30.8543 24.8326 30.9275 24.5929 31.0129 24.3555L31.3859 25.0494L30.7934 25.0747ZM30.6681 28.2839C30.541 27.5446 30.522 26.7907 30.6118 26.0459L31.8926 26.0065L33.0608 28.2023L30.6681 28.2839ZM31.97 31.4508C31.4983 30.775 31.1354 30.0293 30.8947 29.241L33.5675 29.1453L34.7358 31.3551L31.97 31.4508ZM34.4472 33.7212C33.8228 33.3587 33.2512 32.912 32.7484 32.3939L35.2425 32.3122L36.4163 34.5221L36.4952 34.5432C35.7768 34.3684 35.0871 34.0916 34.4472 33.7212ZM31.6984 34.3138C32.2079 34.7764 32.7718 35.1878 33.3902 35.5482L33.3916 35.5496C33.9865 35.8939 34.6158 36.1751 35.2692 36.3885L32.4838 38.518C32.2304 38.701 31.8926 38.7292 31.6252 38.5743C31.4935 38.4962 31.3874 38.3813 31.3199 38.2439C31.2524 38.1064 31.2264 37.9522 31.2452 37.8002L31.6984 34.3138ZM39.2539 19.3207L40.4221 21.5165L37.9308 21.6009L36.7626 19.4052L39.2539 19.3207ZM40.9288 22.4736L42.097 24.6694L39.6058 24.7538L38.4375 22.5581L40.9288 22.4736ZM37.7197 28.0334L36.5515 25.8376L39.0427 25.7532L40.211 27.9489L37.7197 28.0334ZM37.3537 22.6003L38.522 24.8101L36.0307 24.8946L34.8625 22.6847L37.3537 22.6003ZM35.4536 25.8798L36.6218 28.0756L34.1446 28.16L32.9623 25.9643L35.4536 25.8798ZM34.6513 29.1172L37.1426 29.0327L38.3108 31.2284L35.8196 31.327L34.6513 29.1172ZM39.3946 31.2003L38.2264 29.0046L40.7177 28.9201L41.8859 31.1158L39.3946 31.2003ZM41.2807 27.9067L40.1125 25.6969L42.6037 25.6124L43.772 27.8222L41.2807 27.9067ZM43.1808 24.6412L42.0126 22.4455L44.5039 22.361L45.6721 24.5427L43.1808 24.6412ZM41.5059 21.4743L40.3377 19.2785L42.8289 19.1941L43.9972 21.3898L41.5059 21.4743ZM22.5693 29.1453C23.5628 29.2303 24.4942 29.6641 25.1985 30.37C25.9028 31.0759 26.3346 32.0082 26.4174 33.0019C25.6281 33.0304 24.8484 32.821 24.1795 32.4009C23.6948 32.069 23.3064 31.6151 23.0535 31.0849C22.776 30.5232 22.6115 29.9125 22.5693 29.2875V29.1453Z" fill="url(#paint0_linear_562_1070)"/>
<path d="M21.865 29.1448C20.8685 29.226 19.9331 29.6581 19.2253 30.3644C18.5176 31.0706 18.0834 32.0051 18 33.0014C18.9273 32.9772 19.8405 33.2311 20.6222 33.7305C21.2105 34.1303 21.6849 34.6764 21.9959 35.3168C22.3107 35.9615 22.4995 36.6605 22.5519 37.376C22.5575 37.4333 22.5599 37.4802 22.5589 37.5168L22.5519 37.5196V37.5618C23.5484 37.4806 24.4838 37.0485 25.1916 36.3423C25.8993 35.636 26.3335 34.7016 26.4169 33.7052C25.4901 33.7307 24.5768 33.4782 23.7947 32.9803C23.2064 32.5803 22.7328 32.0335 22.421 31.394C22.1061 30.7493 21.9174 30.0504 21.865 29.3348V29.1448Z" fill="url(#paint1_linear_562_1070)"/>
<path d="M21.8481 37.5623C20.8546 37.4773 19.9232 37.0435 19.2189 36.3376C18.5146 35.6318 18.0828 34.6994 18 33.7057C18.7894 33.6772 19.569 33.8866 20.2379 34.3067C20.7221 34.6389 21.1106 35.0921 21.3639 35.6227C21.6414 36.1844 21.8059 36.7951 21.8481 37.4202V37.5623Z" fill="url(#paint2_linear_562_1070)"/>
<defs>
<linearGradient id="paint0_linear_562_1070" x1="36.1073" y1="14" x2="36.1073" y2="53.4335" gradientUnits="userSpaceOnUse">
<stop stop-color="#4EF162"/>
<stop offset="1" stop-color="#2D8B39"/>
</linearGradient>
<linearGradient id="paint1_linear_562_1070" x1="22.2084" y1="29.1448" x2="22.2084" y2="37.5618" gradientUnits="userSpaceOnUse">
<stop stop-color="#4EF162"/>
<stop offset="1" stop-color="#2D8B39"/>
</linearGradient>
<linearGradient id="paint2_linear_562_1070" x1="19.9241" y1="33.7031" x2="19.9241" y2="37.5623" gradientUnits="userSpaceOnUse">
<stop stop-color="#4EF162"/>
<stop offset="1" stop-color="#2D8B39"/>
</linearGradient>
</defs>
</svg>
