<svg width="68" height="68" viewBox="0 0 68 68" fill="none" xmlns="http://www.w3.org/2000/svg">
<circle cx="34" cy="34" r="33" fill="black" stroke="#4EF162" stroke-width="2"/>
<path d="M52.7658 37.1598C55.2264 31.0823 54 23.8565 49.0788 18.9273C42.5251 12.3576 31.8939 12.3576 25.3401 18.9273L20.9658 23.3096L37.4868 39.8315C41.0878 34.9804 47.7587 33.7852 52.7658 37.1598ZM35.7449 43.3858L18.5286 26.1765C16.3961 29.7153 16.8336 34.3789 19.88 37.4333L22.5749 40.1361L14.5292 47.1198C13.8575 47.7057 13.8184 48.7368 14.4511 49.3696L18.6224 53.5489C19.2473 54.1816 20.2784 54.1426 20.8642 53.4707L27.8398 45.4012L30.6284 48.19C32.1673 49.7289 34.1123 50.5726 36.1198 50.7913C35.5652 49.4633 35.2606 48.0103 35.2606 46.4871C35.2528 45.409 35.4558 44.3779 35.7449 43.3858ZM46.5011 38.9956C42.3611 38.9956 39.0022 42.3546 39.0022 46.4949C39.0022 50.6351 42.3611 53.9941 46.5011 53.9941C50.6411 53.9941 54 50.6351 54 46.4949C54 42.3546 50.6411 38.9956 46.5011 38.9956Z" fill="url(#paint0_linear_562_1076)"/>
<defs>
<linearGradient id="paint0_linear_562_1076" x1="34" y1="14" x2="34" y2="54" gradientUnits="userSpaceOnUse">
<stop stop-color="#4EF162"/>
<stop offset="1" stop-color="#2D8B39"/>
</linearGradient>
</defs>
</svg>
