<svg width="28" height="31" viewBox="0 0 28 31" fill="none" xmlns="http://www.w3.org/2000/svg">
<path d="M14 2C6.2692 2 0 8.2692 0 16C0 23.7308 6.2692 30 14 30C21.7308 30 28 23.7308 28 16C28 8.2692 21.7308 2 14 2ZM20.3922 12.9157C20.3984 13.0535 20.4014 13.1919 20.4014 13.331C20.4014 17.5772 17.1693 22.4736 11.2586 22.4738H11.2588H11.2586C9.44385 22.4738 7.75516 21.9419 6.33307 21.0304C6.5845 21.0601 6.84042 21.0748 7.09955 21.0748C8.60516 21.0748 9.99072 20.5613 11.0907 19.6993C9.68396 19.6732 8.49792 18.7442 8.08862 17.4674C8.28452 17.505 8.48596 17.5255 8.69254 17.5255C8.98584 17.5255 9.26996 17.486 9.53998 17.4123C8.06961 17.1179 6.96198 15.8184 6.96198 14.2624C6.96198 14.2479 6.96198 14.2348 6.9624 14.2214C7.39542 14.4621 7.89059 14.607 8.41782 14.6232C7.55499 14.0475 6.98782 13.0633 6.98782 11.9484C6.98782 11.3597 7.14697 10.8081 7.42297 10.3332C9.00763 12.2776 11.3759 13.5564 14.0466 13.6907C13.9915 13.4553 13.963 13.2101 13.963 12.958C13.963 11.1841 15.4022 9.7449 17.1768 9.7449C18.1011 9.7449 18.936 10.1356 19.5224 10.7603C20.2545 10.6158 20.9419 10.3484 21.5629 9.98032C21.3226 10.7303 20.8133 11.3597 20.1498 11.7577C20.7998 11.6799 21.4193 11.5075 21.9951 11.2516C21.565 11.8961 21.0197 12.4622 20.3922 12.9157Z" fill="#D4D7DC"/>
</svg>
