<svg width="100" height="100" viewBox="0 0 100 100" fill="none" xmlns="http://www.w3.org/2000/svg">
<path d="M50 10.1562C42.1197 10.1562 34.4163 12.493 27.864 16.8711C21.3117 21.2492 16.2049 27.472 13.1892 34.7525C10.1735 42.033 9.38447 50.0442 10.9219 57.7731C12.4592 65.5021 16.254 72.6015 21.8262 78.1738C27.3985 83.746 34.498 87.5408 42.2269 89.0782C49.9558 90.6155 57.9671 89.8265 65.2476 86.8108C72.5281 83.7952 78.7508 78.6883 83.1289 72.136C87.507 65.5837 89.8438 57.8803 89.8438 50C89.8314 39.4366 85.6296 29.3094 78.1601 21.8399C70.6906 14.3705 60.5634 10.1687 50 10.1562ZM82.5664 63.2383C76.9948 67.1122 70.4212 69.2908 63.6388 69.5112C56.8564 69.7316 50.1551 67.9844 44.3438 64.4805L51.3516 52.3438H85.0781C84.8308 56.0865 83.9827 59.765 82.5664 63.2383ZM34.4922 18.4531C37.8547 16.7952 41.462 15.6886 45.1758 15.1758C51.3173 18.0633 56.4917 22.6667 60.0746 28.4302C63.6575 34.1937 65.4956 40.8711 65.3672 47.6562H51.3516L34.4922 18.4531ZM85.0781 47.6562H70.0547C70.1584 41.3529 68.7667 35.1148 65.9936 29.4533C63.2206 23.7918 59.1452 18.8681 54.1016 15.0859C62.2511 16.0546 69.8064 19.8393 75.4622 25.7861C81.118 31.7329 84.5192 39.4684 85.0781 47.6562ZM30.4375 20.8047L37.9414 33.8008C32.4314 36.8637 27.7254 41.1883 24.209 46.4206C20.6926 51.6528 18.4658 57.6436 17.711 63.9023C14.4625 56.3635 13.9568 47.9252 16.2816 40.0524C18.6064 32.1796 23.6149 25.3696 30.4375 20.8047ZM22.2656 71.5586C21.702 64.801 23.1047 58.0247 26.3046 52.0462C29.5046 46.0677 34.3652 41.1422 40.3008 37.8633L47.293 50L30.4375 79.1953C27.3259 77.099 24.5675 74.5213 22.2656 71.5586ZM50 85.1562C44.6219 85.1619 39.3151 83.9268 34.4922 81.5469L42 68.543C47.4042 71.7822 53.4987 73.6953 59.7845 74.1258C66.0704 74.5562 72.3688 73.4918 78.1641 71.0195C74.8951 75.4068 70.6464 78.9696 65.7566 81.424C60.8668 83.8784 55.4712 85.1564 50 85.1562Z" fill="#013606"/>
</svg>
